<svg width="201" height="60" viewBox="0 0 201 60" fill="none" xmlns="http://www.w3.org/2000/svg">
<path d="M199.297 52.8331C199.297 53.5789 199.15 54.3175 198.865 55.0064C198.579 55.6954 198.16 56.3214 197.632 56.8485C197.105 57.3756 196.478 57.7935 195.789 58.0784C195.099 58.3633 194.36 58.5095 193.614 58.5087H7.6336C6.12622 58.5103 4.67993 57.9133 3.6128 56.8489C2.54567 55.7846 1.94508 54.3401 1.94312 52.8331V7.57172C1.94508 6.06406 2.54543 4.6188 3.61235 3.55327C4.67926 2.48775 6.12554 1.88906 7.6336 1.88867H193.613C194.359 1.88867 195.098 2.03568 195.788 2.3213C196.477 2.60692 197.104 3.02555 197.632 3.55329C198.159 4.08103 198.578 4.70753 198.864 5.39702C199.149 6.08652 199.296 6.82548 199.296 7.57172L199.297 52.8331Z" fill="white"/>
<path d="M193.614 59.8291H7.6335C5.77658 59.8288 3.99565 59.0919 2.6815 57.7803C1.36735 56.4688 0.627313 54.6896 0.623779 52.8331L0.623779 7.57324C0.626526 5.71589 1.36607 3.93547 2.68018 2.62254C3.99429 1.30961 5.77565 0.571392 7.6335 0.569824L193.613 0.569824C195.47 0.572174 197.251 1.31064 198.565 2.6234C199.879 3.93616 200.619 5.71613 200.622 7.57324V52.8331C200.625 56.692 197.475 59.8291 193.614 59.8291Z" fill="#A6A6A6"/>
<path d="M199.297 52.8331C199.297 53.5789 199.15 54.3175 198.865 55.0064C198.579 55.6954 198.16 56.3214 197.632 56.8485C197.105 57.3756 196.478 57.7935 195.789 58.0784C195.099 58.3633 194.36 58.5095 193.614 58.5087H7.6336C6.12622 58.5103 4.67993 57.9133 3.6128 56.8489C2.54567 55.7846 1.94508 54.3401 1.94312 52.8331V7.57172C1.94508 6.06406 2.54543 4.6188 3.61235 3.55327C4.67926 2.48775 6.12554 1.88906 7.6336 1.88867H193.613C194.359 1.88867 195.098 2.03568 195.788 2.3213C196.477 2.60692 197.104 3.02555 197.632 3.55329C198.159 4.08103 198.578 4.70753 198.864 5.39702C199.149 6.08652 199.296 6.82548 199.296 7.57172L199.297 52.8331Z" fill="black"/>
<path d="M45.282 29.8875C45.239 25.1114 49.1937 22.7878 49.3745 22.6796C47.1348 19.415 43.6633 18.969 42.4434 18.9334C39.5277 18.6266 36.6995 20.6776 35.2143 20.6776C33.6994 20.6776 31.4122 18.963 28.9472 19.0134C25.7751 19.0623 22.8076 20.8984 21.18 23.7495C17.8212 29.563 20.3262 38.1061 23.5443 42.8052C25.154 45.108 27.0351 47.6761 29.4971 47.5857C31.9058 47.4879 32.8056 46.052 35.7123 46.052C38.5924 46.052 39.4373 47.5857 41.9483 47.5279C44.5334 47.4879 46.161 45.2162 47.7144 42.8941C49.5747 40.2578 50.3217 37.6586 50.3514 37.5252C50.2921 37.5044 45.3324 35.6106 45.282 29.8875ZM40.5387 15.8422C41.8342 14.2225 42.7206 12.0189 42.4745 9.78271C40.5994 9.8657 38.2545 11.0794 36.9041 12.6635C35.7094 14.0595 34.6421 16.3475 34.9178 18.4992C37.0242 18.6563 39.1868 17.4367 40.5387 15.8422Z" fill="white"/>
<path d="M193.614 0.569824H93.9973L133.015 59.8291H193.614C195.471 59.8276 197.252 59.0898 198.566 57.7775C199.88 56.4652 200.62 54.6855 200.624 52.8287V7.57324C200.621 5.71601 199.881 3.93581 198.567 2.62297C197.253 1.31013 195.472 0.571783 193.614 0.569824Z" fill="url(#paint0_linear_462_3524)"/>
<path d="M80.1705 47.2554H76.8043L74.9603 41.4627H68.5509L66.7944 47.2554H63.5171L69.8687 27.5344H73.7908L80.1705 47.2554ZM74.4045 39.0324L72.7369 33.8828C72.5605 33.3567 72.2285 32.1178 71.7423 30.1677H71.683C71.4873 31.0064 71.1746 32.2453 70.7462 33.8828L69.1068 39.0324H74.4045ZM96.4727 39.9704C96.4727 42.3888 95.816 44.3005 94.5013 45.7038C93.3243 46.9531 91.8613 47.5769 90.1167 47.5769C88.2327 47.5769 86.8779 46.9056 86.0552 45.5601V53.0214H82.895V37.709C82.895 36.1901 82.855 34.6326 82.7779 33.0351H85.5572L85.7335 35.2891H85.7928C86.8467 33.5909 88.4461 32.7417 90.5925 32.7417C92.2704 32.7417 93.6712 33.4041 94.7918 34.7304C95.9109 36.0597 96.4727 37.8053 96.4727 39.9704ZM93.2532 40.086C93.2532 38.7019 92.9419 37.5608 92.3164 36.6613C91.633 35.7263 90.7155 35.258 89.5652 35.258C88.7856 35.258 88.077 35.5188 87.4441 36.033C86.8097 36.5517 86.3946 37.2289 86.2005 38.0676C86.1138 38.3813 86.0645 38.7041 86.0537 39.0294V41.4019C86.0537 42.4348 86.3709 43.3076 87.0053 44.0219C87.6398 44.7332 88.4639 45.0903 89.4778 45.0903C90.6681 45.0903 91.5945 44.6295 92.2571 43.7151C92.9211 42.7978 93.2532 41.5886 93.2532 40.086ZM112.833 39.9704C112.833 42.3888 112.176 44.3005 110.861 45.7038C109.683 46.9531 108.221 47.5769 106.475 47.5769C104.591 47.5769 103.236 46.9056 102.414 45.5601V53.0214H99.2535V37.709C99.2535 36.1901 99.2134 34.6326 99.1364 33.0351H101.916L102.092 35.2891H102.151C103.204 33.5909 104.803 32.7417 106.951 32.7417C108.627 32.7417 110.028 33.4041 111.152 34.7304C112.269 36.0597 112.833 37.8053 112.833 39.9704ZM109.612 40.086C109.612 38.7019 109.299 37.5608 108.673 36.6613C107.99 35.7263 107.075 35.258 105.925 35.258C105.146 35.258 104.437 35.5188 103.801 36.033C103.167 36.5517 102.753 37.2289 102.559 38.0676C102.463 38.4589 102.411 38.7775 102.411 39.0294V41.4019C102.411 42.4348 102.729 43.3076 103.361 44.0219C103.995 44.7317 104.819 45.0903 105.836 45.0903C107.028 45.0903 107.954 44.6295 108.616 43.7151C109.28 42.7978 109.612 41.5886 109.612 40.086ZM131.124 41.7235C131.124 43.4024 130.537 44.7673 129.37 45.8209C128.087 46.9708 126.295 47.5473 123.997 47.5473C121.875 47.5473 120.173 47.1383 118.889 46.3188L119.62 43.6855C121.006 44.5065 122.528 44.9155 124.185 44.9155C125.377 44.9155 126.304 44.6458 126.965 44.1108C127.627 43.5743 127.962 42.8571 127.962 41.962C127.962 41.1603 127.685 40.489 127.141 39.9422C126.594 39.3969 125.69 38.8886 124.42 38.4218C120.966 37.134 119.238 35.2506 119.238 32.7728C119.238 31.1546 119.848 29.8298 121.067 28.794C122.285 27.7596 123.901 27.2424 125.911 27.2424C127.706 27.2424 129.201 27.5551 130.389 28.179L129.596 30.7545C128.478 30.1499 127.217 29.8476 125.806 29.8476C124.691 29.8476 123.816 30.1217 123.191 30.6671C122.665 31.1546 122.398 31.7489 122.398 32.4542C122.398 33.2322 122.702 33.8783 123.306 34.3851C123.831 34.8519 124.789 35.3602 126.173 35.9056C127.872 36.5902 129.12 37.3875 129.919 38.3033C130.724 39.2191 131.124 40.3616 131.124 41.7235ZM141.599 35.4062H138.116V42.3103C138.116 44.0663 138.73 44.9421 139.96 44.9421C140.525 44.9421 140.993 44.8947 141.364 44.7954L141.451 47.1946C140.829 47.4273 140.009 47.5443 138.993 47.5443C137.745 47.5443 136.77 47.1635 136.066 46.4018C135.365 45.6401 135.012 44.3642 135.012 42.5681V35.4002H132.937V33.0292H135.012V30.4255L138.116 29.489V33.0292H141.599V35.4062ZM157.285 40.0282C157.285 42.214 156.659 44.0085 155.411 45.4119C154.105 46.8567 152.368 47.5769 150.202 47.5769C148.112 47.5769 146.451 46.8849 145.212 45.5023C143.972 44.1167 143.353 42.3711 143.353 40.2653C143.353 38.0617 143.993 36.2568 145.269 34.8534C146.549 33.4486 148.271 32.7462 150.437 32.7462C152.524 32.7462 154.2 33.4397 155.469 34.8238C156.682 36.1664 157.285 37.9002 157.285 40.0282ZM154.009 40.1008C154.009 38.7982 153.727 37.6809 153.163 36.7458C152.5 35.6166 151.551 35.052 150.323 35.052C149.057 35.052 148.086 35.6166 147.425 36.7458C146.858 37.6809 146.577 38.8175 146.577 40.1601C146.577 41.4641 146.858 42.5844 147.425 43.5166C148.108 44.6458 149.061 45.2104 150.296 45.2104C151.504 45.2104 152.451 44.6339 153.136 43.4884C153.717 42.5311 154.009 41.4063 154.009 40.1008ZM167.562 35.8137C167.233 35.7544 166.899 35.7251 166.565 35.7263C165.454 35.7263 164.594 36.1441 163.989 36.9859C163.464 37.7268 163.201 38.6634 163.201 39.794V47.2554H160.04V37.5134C160.043 36.0207 160.013 34.528 159.949 33.0366H162.701L162.817 35.7574H162.904C163.239 34.8223 163.764 34.068 164.484 33.5034C165.144 33.0101 165.945 32.7429 166.768 32.7417C167.06 32.7417 167.324 32.7625 167.559 32.7995L167.562 35.8137ZM181.695 39.4725C181.703 39.9528 181.664 40.4327 181.579 40.9055H172.099C172.134 42.3103 172.594 43.3861 173.474 44.1271C174.273 44.788 175.306 45.12 176.575 45.12C177.979 45.12 179.26 44.8977 180.411 44.4487L180.907 46.6404C179.561 47.2272 177.972 47.5191 176.138 47.5191C173.932 47.5191 172.201 46.8701 170.941 45.5749C169.684 44.2782 169.054 42.5355 169.054 40.3527C169.054 38.2099 169.64 36.4242 170.812 35.0001C172.039 33.4797 173.698 32.7195 175.785 32.7195C177.835 32.7195 179.387 33.4797 180.441 35.0001C181.276 36.2049 181.695 37.6987 181.695 39.4725ZM178.682 38.653C178.704 37.7149 178.496 36.9073 178.068 36.2242C177.521 35.3439 176.679 34.9053 175.551 34.9053C174.518 34.9053 173.676 35.3336 173.036 36.193C172.509 36.8762 172.197 37.6972 172.1 38.65L178.682 38.653Z" fill="white"/>
<path d="M67.6393 20.5621C66.7603 20.5621 65.9999 20.5191 65.3669 20.4465V10.912C66.2522 10.7753 67.1467 10.708 68.0425 10.7105C71.6666 10.7105 73.3357 12.4932 73.3357 15.3992C73.3357 18.7512 71.3643 20.5621 67.6393 20.5621ZM68.1699 11.9331C67.6808 11.9331 67.2643 11.9627 66.9189 12.0338V19.2818C67.1057 19.3114 67.4644 19.3247 67.9683 19.3247C70.343 19.3247 71.6948 17.9733 71.6948 15.4422C71.6948 13.1853 70.4719 11.9331 68.1699 11.9331ZM78.537 20.6347C76.4944 20.6347 75.1708 19.1099 75.1708 17.0397C75.1708 14.882 76.5226 13.3438 78.6526 13.3438C80.6656 13.3438 82.0189 14.7961 82.0189 16.9256C82.0189 19.1099 80.6241 20.6347 78.537 20.6347ZM78.5963 14.479C77.4742 14.479 76.7553 15.5281 76.7553 16.9952C76.7553 18.4341 77.489 19.4833 78.5815 19.4833C79.6739 19.4833 80.4077 18.3615 80.4077 16.9656C80.4077 15.543 79.6888 14.479 78.5963 14.479ZM93.6667 13.4876L91.4803 20.4762H90.0558L89.1502 17.4413C88.925 16.6989 88.7375 15.9456 88.5884 15.1843H88.5587C88.4446 15.946 88.2282 16.7092 87.9984 17.4413L87.035 20.4762H85.5957L83.5382 13.4876H85.1347L85.9262 16.81C86.113 17.6013 86.2701 18.3482 86.4005 19.0536H86.4302C86.5443 18.4652 86.7311 17.7302 87.0053 16.8248L87.9984 13.4891H89.2643L90.2145 16.7537C90.4442 17.545 90.631 18.3215 90.7762 19.055H90.8177C90.9185 18.3363 91.0771 17.5731 91.2921 16.7537L92.1414 13.4891L93.6667 13.4876ZM101.715 20.4762H100.162V16.4632C100.162 15.2273 99.6877 14.6079 98.7524 14.6079C97.8319 14.6079 97.199 15.3992 97.199 16.3195V20.4762H95.6455V15.4852C95.6455 14.8672 95.6307 14.2048 95.5877 13.4861H96.9544L97.027 14.5649H97.07C97.488 13.818 98.3359 13.3438 99.286 13.3438C100.753 13.3438 101.717 14.4656 101.717 16.2913L101.715 20.4762ZM105.999 20.4762H104.444V10.2808H105.999V20.4762ZM111.663 20.6347C109.622 20.6347 108.297 19.1099 108.297 17.0397C108.297 14.882 109.649 13.3438 111.777 13.3438C113.792 13.3438 115.143 14.7961 115.143 16.9256C115.145 19.1099 113.749 20.6347 111.663 20.6347ZM111.721 14.479C110.599 14.479 109.88 15.5281 109.88 16.9952C109.88 18.4341 110.615 19.4833 111.705 19.4833C112.799 19.4833 113.531 18.3615 113.531 16.9656C113.532 15.543 112.815 14.479 111.721 14.479ZM121.268 20.4762L121.156 19.6715H121.114C120.64 20.3191 119.948 20.6347 119.07 20.6347C117.818 20.6347 116.928 19.7575 116.928 18.5779C116.928 16.8529 118.424 15.9608 121.013 15.9608V15.8319C121.013 14.9117 120.526 14.4508 119.562 14.4508C118.873 14.4508 118.268 14.6242 117.736 14.9695L117.42 13.9484C118.067 13.5454 118.873 13.3438 119.82 13.3438C121.646 13.3438 122.568 14.3071 122.568 16.235V18.809C122.568 19.5144 122.599 20.0612 122.669 20.4777L121.268 20.4762ZM121.055 16.9952C119.329 16.9952 118.464 17.4131 118.464 18.4045C118.464 19.138 118.91 19.4966 119.53 19.4966C120.32 19.4966 121.055 18.8935 121.055 18.074V16.9952ZM130.112 20.4762L130.039 19.3544H129.996C129.55 20.202 128.8 20.6347 127.752 20.6347C126.066 20.6347 124.818 19.1528 124.818 17.0678C124.818 14.882 126.112 13.3423 127.879 13.3423C128.815 13.3423 129.477 13.658 129.851 14.2922H129.882V10.2808H131.437V18.5927C131.437 19.2684 131.453 19.9012 131.495 20.4762H130.112ZM129.882 16.3639C129.882 15.3859 129.234 14.5516 128.245 14.5516C127.094 14.5516 126.39 15.5726 126.39 17.01C126.39 18.4193 127.12 19.384 128.214 19.384C129.191 19.384 129.882 18.5349 129.882 17.5287V16.3639ZM141.295 20.6347C139.254 20.6347 137.931 19.1099 137.931 17.0397C137.931 14.882 139.282 13.3438 141.411 13.3438C143.425 13.3438 144.777 14.7961 144.777 16.9256C144.779 19.1099 143.384 20.6347 141.295 20.6347ZM141.353 14.479C140.233 14.479 139.514 15.5281 139.514 16.9952C139.514 18.4341 140.247 19.4833 141.338 19.4833C142.432 19.4833 143.165 18.3615 143.165 16.9656C143.168 15.543 142.449 14.479 141.353 14.479ZM153.131 20.4762H151.577V16.4632C151.577 15.2273 151.102 14.6079 150.167 14.6079C149.246 14.6079 148.615 15.3992 148.615 16.3195V20.4762H147.06V15.4852C147.06 14.8672 147.045 14.2048 147.002 13.4861H148.369L148.441 14.5649H148.484C148.901 13.818 149.75 13.3423 150.699 13.3423C152.166 13.3423 153.131 14.4641 153.131 16.2898V20.4762ZM163.583 14.6523H161.874V18.0459C161.874 18.9098 162.173 19.341 162.778 19.341C163.052 19.341 163.282 19.3114 163.467 19.2684L163.51 20.448C163.209 20.5636 162.806 20.6214 162.305 20.6214C161.081 20.6214 160.349 19.9457 160.349 18.1763V14.6523H159.329V13.4876H160.349V12.2072L161.874 11.7464V13.4861H163.583V14.6523ZM171.807 20.4762H170.255V16.4928C170.255 15.2421 169.782 14.6094 168.845 14.6094C168.04 14.6094 167.29 15.1562 167.29 16.2632V20.4762H165.738V10.2808H167.29V14.479H167.321C167.81 13.7173 168.519 13.3423 169.423 13.3423C170.903 13.3423 171.807 14.4923 171.807 16.3195V20.4762ZM180.232 17.3553H175.57C175.6 18.6786 176.476 19.4255 177.773 19.4255C178.462 19.4255 179.097 19.3099 179.657 19.095L179.898 20.1739C179.237 20.4614 178.459 20.6051 177.554 20.6051C175.367 20.6051 174.073 19.224 174.073 17.0826C174.073 14.9398 175.398 13.329 177.379 13.329C179.165 13.329 180.285 14.6523 180.285 16.6514C180.295 16.8873 180.277 17.1236 180.232 17.3553ZM178.808 16.2483C178.808 15.1695 178.264 14.4078 177.27 14.4078C176.378 14.4078 175.673 15.1843 175.572 16.2483H178.808Z" fill="white"/>
<defs>
<linearGradient id="paint0_linear_462_3524" x1="147.309" y1="59.9865" x2="147.309" y2="-153.731" gradientUnits="userSpaceOnUse">
<stop stop-color="#1A1A1A" stop-opacity="0.1"/>
<stop offset="0.123" stop-color="#212121" stop-opacity="0.151"/>
<stop offset="0.308" stop-color="#353535" stop-opacity="0.227"/>
<stop offset="0.532" stop-color="#575757" stop-opacity="0.318"/>
<stop offset="0.783" stop-color="#858585" stop-opacity="0.421"/>
<stop offset="1" stop-color="#B3B3B3" stop-opacity="0.51"/>
</linearGradient>
</defs>
</svg>
