<svg width="23" height="18" viewBox="0 0 23 18" fill="none" xmlns="http://www.w3.org/2000/svg">
<path d="M20.8311 17.2549H2.95605C1.8148 17.2549 0.893555 16.3336 0.893555 15.1924V2.81738C0.893555 1.67613 1.8148 0.754883 2.95605 0.754883H20.8311C21.9723 0.754883 22.8936 1.67613 22.8936 2.81738V15.1924C22.8936 16.3336 21.9723 17.2549 20.8311 17.2549ZM2.95605 2.12988C2.57105 2.12988 2.26855 2.43238 2.26855 2.81738V15.1924C2.26855 15.5774 2.57105 15.8799 2.95605 15.8799H20.8311C21.2161 15.8799 21.5186 15.5774 21.5186 15.1924V2.81738C21.5186 2.43238 21.2161 2.12988 20.8311 2.12988H2.95605Z" fill="white"/>
<path d="M11.8935 11.7C10.931 11.7 10.051 11.315 9.39101 10.6137L2.17226 2.94123C1.91101 2.66623 1.92476 2.22623 2.19976 1.96498C2.47476 1.70373 2.91476 1.71748 3.17601 1.99248L10.3948 9.66499C11.1785 10.5037 12.6085 10.5037 13.3923 9.66499L20.611 2.00623C20.8723 1.73123 21.3123 1.71748 21.5873 1.97873C21.8623 2.23998 21.876 2.67998 21.6148 2.95498L14.396 10.6275C13.736 11.3287 12.856 11.7137 11.8935 11.7137V11.7Z" fill="white"/>
</svg>
