<svg width="209" height="499" viewBox="0 0 209 499" fill="none" xmlns="http://www.w3.org/2000/svg">
<path fill-rule="evenodd" clip-rule="evenodd" d="M19.9561 21.5779L28.1472 27.3133C28.5818 27.6176 29.1196 27.7369 29.6421 27.6447C30.1646 27.5526 30.6292 27.2566 30.9335 26.822C31.2379 26.3874 31.3571 25.8496 31.2649 25.3271C31.1728 24.8045 30.8768 24.34 30.4422 24.0356L22.2485 18.3007L27.9853 10.1094C28.1359 9.89419 28.2426 9.65143 28.2994 9.39498C28.3562 9.13852 28.3619 8.8734 28.3163 8.61473C28.2706 8.35607 28.1744 8.10893 28.0332 7.88743C27.8921 7.66593 27.7086 7.47442 27.4934 7.32381C27.2782 7.1732 27.0355 7.06645 26.779 7.00966C26.5226 6.95287 26.2574 6.94715 25.9988 6.99282C25.7401 7.03849 25.493 7.13466 25.2715 7.27585C25.05 7.41703 24.8585 7.60046 24.7078 7.81566L18.9737 16.0065L10.7827 10.271C10.5679 10.1149 10.3241 10.003 10.0657 9.94205C9.80719 9.88107 9.53916 9.87218 9.27722 9.9159C9.01527 9.95962 8.76466 10.0551 8.54 10.1967C8.31534 10.3383 8.12113 10.5232 7.9687 10.7407C7.81627 10.9582 7.70868 11.2038 7.65221 11.4633C7.59573 11.7228 7.5915 11.9909 7.63977 12.2521C7.68803 12.5132 7.78782 12.7621 7.93331 12.9843C8.0788 13.2065 8.26708 13.3974 8.48716 13.5461L16.6811 19.2824L10.9446 27.475C10.7886 27.6899 10.677 27.9337 10.6162 28.1923C10.5555 28.4508 10.5469 28.7188 10.5908 28.9807C10.6348 29.2426 10.7305 29.4932 10.8723 29.7177C11.0141 29.9422 11.1992 30.1363 11.4169 30.2885C11.6345 30.4407 11.8802 30.5481 12.1398 30.6043C12.3993 30.6605 12.6675 30.6645 12.9286 30.616C13.1897 30.5675 13.4385 30.4675 13.6605 30.3218C13.8825 30.1761 14.0733 29.9876 14.2217 29.7674L19.9561 21.5779Z" fill="#90EE91" fill-opacity="0.48"/>
<circle cx="115.5" cy="482.434" r="13.5" stroke="#90EE91" stroke-opacity="0.32" stroke-width="5"/>
<path d="M178.4 249H202.4L190.813 260.289L178.4 273V249Z" stroke="#90EE91" stroke-opacity="0.48" stroke-width="5"/>
</svg>
