<svg width="196" height="190" viewBox="0 0 196 190" fill="none" xmlns="http://www.w3.org/2000/svg">
<rect x="5.12207" y="0.088623" width="190" height="189.911" fill="white"/>
<path d="M190 137.425H0V137.52H190V137.425Z" fill="#EBEBEB"/>
<path d="M170.962 143.539H158.376V143.634H170.962V143.539Z" fill="#EBEBEB"/>
<path d="M125.864 144.573H122.562V144.668H125.864V144.573Z" fill="#EBEBEB"/>
<path d="M157.996 140.013H150.704V140.108H157.996V140.013Z" fill="#EBEBEB"/>
<path d="M36.347 140.651H19.9348V140.746H36.347V140.651Z" fill="#EBEBEB"/>
<path d="M42.1383 140.651H39.7329V140.746H42.1383V140.651Z" fill="#EBEBEB"/>
<path d="M85.5569 142.255H49.9585V142.35H85.5569V142.255Z" fill="#EBEBEB"/>
<path d="M90.06 120.477H16.6858C16.111 120.476 15.56 120.247 15.154 119.84C14.7479 119.433 14.5198 118.882 14.5198 118.307V15.1639C14.5248 14.5924 14.7551 14.0459 15.1606 13.6432C15.5662 13.2405 16.1142 13.014 16.6858 13.0131H90.06C90.6354 13.0131 91.1873 13.2417 91.5943 13.6486C92.0012 14.0555 92.2298 14.6074 92.2298 15.1829V118.307C92.2298 118.883 92.0012 119.435 91.5943 119.842C91.1873 120.248 90.6354 120.477 90.06 120.477ZM16.6858 13.0891C16.1362 13.0901 15.6094 13.3091 15.2211 13.6981C14.8328 14.0871 14.6148 14.6142 14.6148 15.1639V118.307C14.6148 118.857 14.8328 119.384 15.2211 119.773C15.6094 120.162 16.1362 120.381 16.6858 120.382H90.06C90.6099 120.381 91.1371 120.162 91.526 119.773C91.9149 119.384 92.1338 118.857 92.1348 118.307V15.1639C92.1338 14.6139 91.9149 14.0867 91.526 13.6979C91.1371 13.309 90.6099 13.0901 90.06 13.0891H16.6858Z" fill="#EBEBEB"/>
<path d="M172.258 120.477H98.8798C98.3046 120.476 97.7533 120.247 97.3466 119.84C96.9399 119.434 96.711 118.882 96.71 118.307V15.1639C96.716 14.592 96.9471 14.0456 97.3533 13.6429C97.7594 13.2403 98.3079 13.014 98.8798 13.0131H172.258C172.829 13.015 173.376 13.2419 173.78 13.6445C174.185 14.0471 174.415 14.593 174.42 15.1639V118.307C174.42 118.881 174.192 119.432 173.787 119.839C173.382 120.246 172.832 120.475 172.258 120.477ZM98.8798 13.0891C98.3298 13.0901 97.8026 13.309 97.4138 13.6979C97.0249 14.0867 96.806 14.6139 96.805 15.1639V118.307C96.806 118.857 97.0249 119.384 97.4138 119.773C97.8026 120.162 98.3298 120.381 98.8798 120.382H172.258C172.808 120.381 173.335 120.162 173.724 119.773C174.113 119.384 174.332 118.857 174.333 118.307V15.1639C174.332 14.6139 174.113 14.0867 173.724 13.6979C173.335 13.309 172.808 13.0901 172.258 13.0891H98.8798Z" fill="#EBEBEB"/>
<path d="M27.873 103.806V108.86L32.1974 109.837L157.905 108.594L162.23 105.319L157.905 104.342L27.873 103.806Z" fill="#E0E0E0"/>
<path d="M32.1975 104.783V109.837L162.23 109.571V105.319L32.1975 104.783Z" fill="#E6E6E6"/>
<path d="M27.873 118.231V123.285L32.1974 124.262L157.905 123.019L162.23 119.744L157.905 118.767L27.873 118.231Z" fill="#E0E0E0"/>
<path d="M32.1975 119.208V124.262L162.23 123.996V119.744L32.1975 119.208Z" fill="#E6E6E6"/>
<path d="M40.9337 97.9849H35.8797L34.9031 98.9691L36.1495 127.613L39.4213 128.598L40.3979 127.613L40.9337 97.9849Z" fill="#E0E0E0"/>
<path d="M39.9571 98.9691H34.9031L35.1729 128.598H39.4213L39.9571 98.9691Z" fill="#F0F0F0"/>
<path d="M51.5394 97.9849H46.4854L45.5088 98.9691L46.7552 127.613L50.027 128.598L51.0036 127.613L51.5394 97.9849Z" fill="#E0E0E0"/>
<path d="M50.5628 98.9691H45.5088L45.7786 128.598H50.027L50.5628 98.9691Z" fill="#F0F0F0"/>
<path d="M62.1451 97.9849H57.0911L56.1145 98.9691L57.3571 127.613L60.6327 128.598L61.6093 127.613L62.1451 97.9849Z" fill="#E0E0E0"/>
<path d="M61.1685 98.9691H56.1145L56.3805 128.598H60.6327L61.1685 98.9691Z" fill="#F0F0F0"/>
<path d="M85.2149 97.9849H80.1609L79.1843 98.9691L80.4269 127.613L83.6987 128.598L84.6791 127.613L85.2149 97.9849Z" fill="#E0E0E0"/>
<path d="M84.2383 98.9691H79.1843L79.4503 128.598H83.6987L84.2383 98.9691Z" fill="#F0F0F0"/>
<path d="M95.8208 97.9849H90.763L89.7864 98.9691L91.0328 127.613L94.3046 128.598L95.2812 127.613L95.8208 97.9849Z" fill="#E0E0E0"/>
<path d="M94.8442 98.9691H89.7864L90.0562 128.598H94.3046L94.8442 98.9691Z" fill="#F0F0F0"/>
<path d="M106.423 97.9849H101.369L100.392 98.9691L101.638 127.613L104.91 128.598L105.887 127.613L106.423 97.9849Z" fill="#E0E0E0"/>
<path d="M105.446 98.9691H100.392L100.662 128.598H104.91L105.446 98.9691Z" fill="#F0F0F0"/>
<path d="M131.157 97.9849H126.107L125.13 98.9691L126.373 127.613L129.645 128.598L130.621 127.613L131.157 97.9849Z" fill="#E0E0E0"/>
<path d="M130.18 98.9691H125.13L125.396 128.598H129.645L130.18 98.9691Z" fill="#F0F0F0"/>
<path d="M141.763 97.9849H136.709L135.732 98.9691L136.979 127.613L140.25 128.598L141.227 127.613L141.763 97.9849Z" fill="#E0E0E0"/>
<path d="M140.786 98.9691H135.732L136.002 128.598H140.25L140.786 98.9691Z" fill="#F0F0F0"/>
<path d="M152.368 97.9849H147.314L146.338 98.9691L147.584 127.613L150.856 128.598L151.833 127.613L152.368 97.9849Z" fill="#E0E0E0"/>
<path d="M151.392 98.9691H146.338L146.608 128.598H150.856L151.392 98.9691Z" fill="#F0F0F0"/>
<path d="M74.2597 93.9151L68.6205 93.1551L67.2373 94.4509L69.0005 132.181L74.3965 133.481L75.7797 132.181L74.2597 93.9151Z" fill="#E0E0E0"/>
<path d="M72.8765 95.2109L67.2373 94.4509L67.6173 133.481H74.3965L72.8765 95.2109Z" fill="#FAFAFA"/>
<path d="M120.464 93.1551L113.305 93.5351L111.921 94.8309L112.925 132.181L118.321 133.481L119.704 132.181L120.464 93.1551Z" fill="#E0E0E0"/>
<path d="M119.081 94.4509L111.922 94.8309L111.542 133.481H118.321L119.081 94.4509Z" fill="#FAFAFA"/>
<path d="M165.148 93.1551H157.989L156.605 94.4509L158.369 132.181L163.005 133.481L164.388 132.181L165.148 93.1551Z" fill="#E0E0E0"/>
<path d="M163.765 94.4509H156.605L156.985 133.481H163.005L163.765 94.4509Z" fill="#FAFAFA"/>
<path d="M31.0954 93.1551H23.9362L22.553 94.4509L24.3162 132.181L28.9522 133.481L30.3354 132.181L31.0954 93.1551Z" fill="#E0E0E0"/>
<path d="M29.7122 94.4509H22.553L22.933 133.481H28.9522L29.7122 94.4509Z" fill="#FAFAFA"/>
<path d="M37.012 57.1881C38.6536 56.8081 40.5346 57.9975 41.9862 57.1387C43.795 56.0709 43.662 52.6471 45.752 52.4191C49.381 52.0391 50.8364 57.3971 53.0442 57.5719C55.1076 57.7353 56.392 54.9575 58.4516 54.7599C61.0204 54.5129 62.5328 58.0431 65.094 58.3471C66.5076 58.5105 67.868 57.6593 69.274 57.7239C70.1185 57.7917 70.9048 58.1812 71.4705 58.8119C72.0362 59.4427 72.3381 60.2666 72.314 61.1135H32.0872C32.0872 61.1135 34.808 57.6973 37.012 57.1881Z" fill="#FAFAFA"/>
<path d="M90.2006 58.9133C91.409 58.2141 92.4806 58.4611 93.67 58.6815C94.8594 58.9019 94.9696 57.3249 96.3566 56.6485C98.2946 55.7023 99.4726 57.7353 99.9704 58.5485C100.468 59.3617 101.718 58.9285 102.95 59.1451C104.652 59.4529 104.713 61.2313 104.713 61.2313H88.8706C88.8706 61.2313 88.92 59.6657 90.2006 58.9133Z" fill="#F5F5F5"/>
<path d="M91.8232 69.7319C91.1544 69.5761 90.3868 70.0625 89.794 69.7091C89.0568 69.2721 89.11 67.8737 88.255 67.7825C86.773 67.6229 86.1802 69.8155 85.2796 69.8877C84.436 69.9523 83.9116 68.8199 83.0718 68.7477C82.023 68.6451 81.4036 70.0853 80.3586 70.2107C79.781 70.2791 79.2186 69.9295 78.6448 69.9561C78.2997 69.9832 77.9784 70.1419 77.7471 70.3994C77.5158 70.6568 77.3923 70.9933 77.4022 71.3393H93.8372C93.8372 71.3393 92.72 69.9371 91.8232 69.7319Z" fill="#F5F5F5"/>
<path d="M145.232 59.7075C144.415 59.5213 143.484 60.1103 142.766 59.6847C141.869 59.1565 141.934 57.4579 140.9 57.3477C139.103 57.1501 138.381 59.8139 137.286 59.8975C136.264 59.9811 135.63 58.6055 134.626 58.5067C133.353 58.3813 132.605 60.1331 131.332 60.2813C130.633 60.3649 129.96 59.9431 129.257 59.9735C128.836 60.0028 128.442 60.194 128.159 60.5071C127.875 60.8203 127.724 61.231 127.737 61.6531H147.668C147.668 61.6531 146.323 59.9621 145.232 59.7075Z" fill="#F5F5F5"/>
<path d="M95 154.586C135.691 154.586 168.678 152.66 168.678 150.284C168.678 147.909 135.691 145.983 95 145.983C54.3086 145.983 21.3218 147.909 21.3218 150.284C21.3218 152.66 54.3086 154.586 95 154.586Z" fill="#F5F5F5"/>
<path d="M171.038 64.9515H117.181V150.284H171.038V64.9515Z" stroke="#263238" stroke-miterlimit="10"/>
<path opacity="0.6" d="M171.038 64.9515H117.181V150.284H171.038V64.9515Z" stroke="white" stroke-miterlimit="10"/>
<path d="M139.726 89.7275C139.726 89.7275 135.926 94.7017 141.2 98.5093L142.489 95.4389C142.489 95.4389 141.85 94.4395 142.219 91.7985L139.726 89.7275Z" fill="#EBB376"/>
<path d="M150.134 82.268C148.208 80.444 145.369 81.4814 138.734 89.6438C138.734 89.6438 141.352 92.3874 142.956 93.2196C142.956 93.2196 148.656 88.4354 149.64 87.3182C150.624 86.201 152.475 84.4796 150.134 82.268Z" fill="#90EE91"/>
<path opacity="0.1" d="M150.134 82.268C148.208 80.444 145.369 81.4814 138.734 89.6438C138.734 89.6438 141.352 92.3874 142.956 93.2196C142.956 93.2196 148.656 88.4354 149.64 87.3182C150.624 86.201 152.475 84.4796 150.134 82.268Z" fill="white"/>
<path d="M152.517 135.909L154.527 133.61L156.237 135.153L154.204 137.623L152.517 135.909Z" fill="#EBB376"/>
<path d="M154.66 137.512L152.615 135.586C152.572 135.555 152.519 135.541 152.466 135.546C152.413 135.551 152.364 135.575 152.327 135.612L150.1 137.414C150.007 137.475 149.937 137.565 149.901 137.67C149.865 137.776 149.865 137.89 149.902 137.995C149.917 138.016 149.933 138.035 149.952 138.052C150.609 138.645 151.133 139.032 151.943 139.796C152.441 140.267 153.877 141.757 154.569 142.407C155.26 143.057 156.252 142.183 156.051 141.829C155.15 140.248 154.705 138.812 154.781 137.919C154.795 137.847 154.792 137.772 154.77 137.701C154.749 137.63 154.711 137.565 154.66 137.512Z" fill="#263238"/>
<path d="M144.613 109.153C144.613 109.153 150.48 115.993 162.537 119.565C162.537 119.565 157.008 123.365 154.972 131.923L153.687 133.728C154.349 134.614 155.232 135.31 156.248 135.745L157.525 134.016C157.525 134.016 165.836 126.625 169.56 118.087C169.507 113.85 149.845 101.45 148.561 102.579C147.277 103.708 144.613 109.153 144.613 109.153Z" fill="#90EE91"/>
<path opacity="0.5" d="M144.613 109.153C144.613 109.153 150.48 115.993 162.537 119.565C162.537 119.565 157.008 123.365 154.972 131.923L153.687 133.728C154.349 134.614 155.232 135.31 156.248 135.745L157.525 134.016C157.525 134.016 165.836 126.625 169.56 118.087C169.507 113.85 149.845 101.45 148.561 102.579C147.277 103.708 144.613 109.153 144.613 109.153Z" fill="black"/>
<path d="M120.62 144.174L122.17 141.301L124.074 142.532L122.846 144.907L120.62 144.174Z" fill="#EBB376"/>
<path d="M123.006 144.732L120.692 143.699C120.641 143.684 120.586 143.688 120.538 143.711C120.49 143.733 120.451 143.772 120.429 143.82L118.681 146.135C118.611 146.221 118.573 146.329 118.573 146.441C118.573 146.552 118.611 146.66 118.681 146.746C118.699 146.764 118.72 146.778 118.742 146.788C119.563 147.13 120.182 147.324 121.201 147.776C121.824 148.057 123.675 148.992 124.541 149.38C125.407 149.767 126.061 148.62 125.749 148.342C124.378 147.149 123.469 145.937 123.264 145.071C123.25 144.998 123.22 144.93 123.175 144.871C123.13 144.812 123.072 144.765 123.006 144.732Z" fill="#263238"/>
<path d="M140.748 124.273C138.848 128.241 125.237 141.537 125.237 141.537L123.941 143.182C122.942 142.935 122.043 142.386 121.368 141.609L122.447 139.85C128.429 125.839 135.033 123.099 135.033 123.099C135.816 108.944 137.454 107.751 139.213 102.085C142.69 101.158 148.561 102.579 148.561 102.579C148.561 102.579 146.824 113.991 140.748 124.273Z" fill="#90EE91"/>
<path opacity="0.3" d="M140.748 124.273C138.848 128.241 125.237 141.537 125.237 141.537L123.941 143.182C122.942 142.935 122.043 142.386 121.368 141.609L122.447 139.85C128.429 125.839 135.033 123.099 135.033 123.099C135.816 108.944 137.454 107.751 139.213 102.085C142.69 101.158 148.561 102.579 148.561 102.579C148.561 102.579 146.824 113.991 140.748 124.273Z" fill="black"/>
<path d="M150.1 102.416C150.1 102.416 146.577 103.81 139.232 102.085C139.232 102.085 144.848 84.3733 146.026 81.8501C147.033 79.6917 154.956 79.6879 157.149 82.8609C159.528 86.3531 153.14 100.246 150.1 102.416Z" fill="#90EE91"/>
<path opacity="0.6" d="M150.1 102.416C150.1 102.416 146.577 103.81 139.232 102.085C139.232 102.085 144.848 84.3733 146.026 81.8501C147.033 79.6917 154.956 79.6879 157.149 82.8609C159.528 86.3531 153.14 100.246 150.1 102.416Z" fill="white"/>
<path d="M161.432 100.44L163.332 100.77C163.332 100.77 165.33 100.052 165.817 100.09C166.303 100.128 168.477 101.447 168.477 101.447C168.477 101.447 168.895 102.131 168.834 102.309C168.773 102.488 165.695 104.126 165.121 104.099C164.548 104.072 163.294 102.906 163.104 102.758C162.914 102.609 159.817 101.534 159.817 101.534L161.432 100.44Z" fill="#EBB376"/>
<path d="M148.846 91.8821C148.846 91.8821 152.692 102.522 162.993 102.522L163.636 100.66C163.636 100.66 157.32 100.793 152.483 90.9131L148.846 91.8821Z" fill="#EBB376"/>
<path d="M146.54 80.7062C144.111 81.7778 143.971 84.7988 148.934 94.0632C148.934 94.0632 152.479 92.7104 153.874 91.5514C153.874 91.5514 151.662 84.4606 151.02 83.104C150.378 81.7474 149.488 79.4066 146.54 80.7062Z" fill="#90EE91"/>
<path opacity="0.4" d="M146.54 80.7062C144.111 81.7778 143.971 84.7988 148.934 94.0632C148.934 94.0632 152.479 92.7104 153.874 91.5514C153.874 91.5514 151.662 84.4606 151.02 83.104C150.378 81.7474 149.488 79.4066 146.54 80.7062Z" fill="white"/>
<path d="M153.045 74.6642C152.912 76.4122 152.399 79.5586 150.932 80.3642C151.286 81.0017 151.762 81.5628 152.333 82.0154C152.904 82.4681 153.56 82.8032 154.261 83.0014C156.374 83.636 156.104 81.8614 156.104 81.8614C154.531 80.7974 154.785 79.4522 155.466 78.2552L153.045 74.6642Z" fill="#EBB376"/>
<path opacity="0.2" d="M154.029 76.1197L155.462 78.2363C155.311 78.5216 155.183 78.819 155.082 79.1255C154.405 78.8253 153.63 77.7689 153.759 77.0089C153.796 76.6988 153.887 76.3977 154.029 76.1197Z" fill="black"/>
<path d="M156.18 70.7731C155.355 71.5825 155.982 72.5819 158.418 73.8815C159.076 72.6009 158.798 70.4045 158.038 69.9827C157.278 69.5609 156.879 70.0777 156.18 70.7731Z" fill="#263238"/>
<path d="M152.448 73.2735C152.828 74.9455 153.041 76.1235 153.66 77.0241C153.897 77.3595 154.187 77.6535 154.519 77.8943C156.564 79.3763 159.227 77.8487 159.395 75.4661C159.395 75.3901 159.395 75.3103 159.395 75.2343C159.471 73.0835 158.566 69.9143 156.248 69.4165C155.72 69.2974 155.169 69.3151 154.649 69.4678C154.129 69.6205 153.657 69.9032 153.277 70.2892C152.896 70.6752 152.621 71.1518 152.476 71.674C152.331 72.1961 152.321 72.7466 152.448 73.2735Z" fill="#EBB376"/>
<path d="M155.986 73.3305C156.017 73.5167 156.142 73.6535 156.264 73.6307C156.385 73.6079 156.461 73.4445 156.427 73.2507C156.393 73.0569 156.275 72.9277 156.153 72.9467C156.032 72.9657 155.967 73.1443 155.986 73.3305Z" fill="#263238"/>
<path d="M158.114 72.9771C158.145 73.1671 158.27 73.3001 158.392 73.2811C158.513 73.2621 158.589 73.0911 158.559 72.9011C158.528 72.7111 158.403 72.5781 158.281 72.5971C158.16 72.6161 158.08 72.7909 158.114 72.9771Z" fill="#263238"/>
<path d="M157.434 73.1823C157.753 73.7171 158.145 74.2055 158.597 74.6339C158.484 74.7463 158.348 74.8328 158.199 74.8872C158.049 74.9417 157.889 74.9629 157.73 74.9493L157.434 73.1823Z" fill="#D58745"/>
<path d="M155.295 72.7567C155.271 72.7642 155.246 72.7642 155.223 72.7567C155.196 72.7429 155.176 72.7192 155.167 72.6908C155.157 72.6624 155.16 72.6314 155.173 72.6047C155.251 72.4461 155.366 72.3087 155.508 72.2042C155.65 72.0996 155.816 72.031 155.99 72.0043C156.004 72.0021 156.018 72.0028 156.032 72.0062C156.046 72.0097 156.059 72.0158 156.07 72.0243C156.081 72.0328 156.091 72.0435 156.098 72.0557C156.105 72.0679 156.11 72.0814 156.112 72.0955C156.114 72.1245 156.105 72.1533 156.087 72.1759C156.068 72.1986 156.042 72.2133 156.013 72.2171C155.876 72.2415 155.746 72.2979 155.634 72.3817C155.523 72.4656 155.432 72.5745 155.371 72.6997C155.363 72.7138 155.352 72.7261 155.339 72.7359C155.325 72.7457 155.311 72.7528 155.295 72.7567Z" fill="#263238"/>
<path d="M158.965 72.0993C158.944 72.1029 158.922 72.1005 158.902 72.0925C158.882 72.0844 158.864 72.071 158.851 72.0537C158.773 71.9402 158.668 71.8467 158.547 71.7807C158.426 71.7147 158.29 71.678 158.152 71.6737C158.123 71.6747 158.094 71.6642 158.072 71.6443C158.05 71.6245 158.036 71.5968 158.034 71.5673C158.034 71.5379 158.045 71.5095 158.065 71.4877C158.084 71.466 158.112 71.4523 158.141 71.4495C158.317 71.4563 158.49 71.5042 158.645 71.5893C158.8 71.6743 158.933 71.7943 159.034 71.9397C159.051 71.9636 159.058 71.9931 159.054 72.0221C159.049 72.0511 159.034 72.0774 159.011 72.0955L158.965 72.0993Z" fill="#263238"/>
<path d="M153.695 69.6711C154.835 69.8611 154.223 72.4527 152.973 74.9113C151.704 74.2425 150.647 72.2931 151.054 71.4913C151.46 70.6895 152.703 69.5077 153.695 69.6711Z" fill="#263238"/>
<path d="M151.658 75.2951C151.911 75.8273 152.364 76.2373 152.919 76.4351C153.657 76.6897 154.059 76.0551 153.904 75.3217C153.755 74.6757 153.189 73.7637 152.437 73.8017C152.269 73.8144 152.107 73.8698 151.966 73.9626C151.825 74.0554 151.71 74.1825 151.632 74.332C151.554 74.4814 151.516 74.6483 151.52 74.8168C151.525 74.9853 151.572 75.1499 151.658 75.2951Z" fill="#EBB376"/>
<path d="M156.077 75.6484C156.285 75.8641 156.548 76.0188 156.837 76.0958C157.127 76.1728 157.432 76.1692 157.719 76.0854" stroke="#263238" stroke-width="0.526291" stroke-linecap="round" stroke-linejoin="round"/>
<path d="M158.528 68.911C158.308 69.3366 158.004 69.9294 156.606 70.1878C155.207 70.4462 153.892 69.8876 153.467 70.2942C153.041 70.7008 152.631 71.9738 152.631 71.9738L151.069 71.6812C150.918 71.3127 150.877 70.9085 150.95 70.517C151.023 70.1255 151.206 69.7633 151.479 69.4734C153.44 67.2656 157.404 68.8312 158.057 66.118C158.057 66.118 159.079 67.8242 158.528 68.911Z" fill="#263238"/>
<path d="M155.678 67.9116C155.678 67.9116 156.993 67.277 156.982 66.4258C157.133 66.6049 157.217 66.8306 157.221 67.0647C157.224 67.2987 157.146 67.5268 157.001 67.7102C156.476 68.341 155.678 67.9116 155.678 67.9116Z" fill="#263238"/>
<path d="M157.48 69.9333C157.921 69.7319 160.075 68.0333 158.741 66.3195" stroke="#263238" stroke-width="0.25" stroke-miterlimit="10"/>
<path d="M172.558 148.764H169.518V151.804H172.558V148.764Z" fill="#90EE91"/>
<path d="M118.701 148.764H115.661V151.804H118.701V148.764Z" fill="#90EE91"/>
<path d="M145.631 148.764H142.591V151.804H145.631V148.764Z" fill="#90EE91"/>
<path d="M172.558 63.4315H169.518V66.4715H172.558V63.4315Z" fill="#90EE91"/>
<path d="M118.701 63.4315H115.661V66.4715H118.701V63.4315Z" fill="#90EE91"/>
<path d="M172.558 106.098H169.518V109.138H172.558V106.098Z" fill="#90EE91"/>
<path d="M118.701 106.098H115.661V109.138H118.701V106.098Z" fill="#90EE91"/>
<path d="M145.631 63.4315H142.591V66.4715H145.631V63.4315Z" fill="#90EE91"/>
<g opacity="0.2">
<path d="M172.558 148.764H169.518V151.804H172.558V148.764Z" fill="white"/>
<path d="M118.701 148.764H115.661V151.804H118.701V148.764Z" fill="white"/>
<path d="M145.631 148.764H142.591V151.804H145.631V148.764Z" fill="white"/>
<path d="M172.558 63.4315H169.518V66.4715H172.558V63.4315Z" fill="white"/>
<path d="M118.701 63.4315H115.661V66.4715H118.701V63.4315Z" fill="white"/>
<path d="M172.558 106.098H169.518V109.138H172.558V106.098Z" fill="white"/>
<path d="M118.701 106.098H115.661V109.138H118.701V106.098Z" fill="white"/>
<path d="M145.631 63.4315H142.591V66.4715H145.631V63.4315Z" fill="white"/>
</g>
<path d="M113.62 109.598C113.62 109.598 112.047 107.899 111.633 107.743C111.218 107.587 109.299 107.713 109.299 107.713C102.9 104.194 104.097 99.7329 104.667 98.3725L105.461 98.4713L106.301 93.4477C108.406 89.4387 109.839 85.2473 108.631 83.4993C107.99 82.6973 107.159 82.0677 106.214 81.6677C104.869 80.9077 104.831 79.9387 105.199 78.9697C105.241 78.8633 105.287 78.7607 105.332 78.6543C105.378 78.5479 105.401 78.5099 105.439 78.4415V78.4149C106.158 78.6535 106.938 78.6321 107.643 78.3543C108.348 78.0765 108.933 77.56 109.296 76.8949C109.334 76.8303 109.368 76.7581 109.402 76.6897C109.878 75.721 110.162 74.6693 110.238 73.5927C110.244 73.6082 110.254 73.6222 110.267 73.6333C110.279 73.6445 110.294 73.6527 110.31 73.6573H110.36C110.374 73.6546 110.387 73.649 110.399 73.6411C110.411 73.6331 110.422 73.6228 110.43 73.6108C110.438 73.5988 110.444 73.5853 110.447 73.5711C110.45 73.5569 110.45 73.5423 110.447 73.5281C110.423 73.394 110.375 73.2653 110.306 73.1481C110.561 72.4109 110.603 71.6927 110.329 71.3355C110.25 71.2247 110.152 71.1284 110.04 71.0505C110.354 71.0403 110.659 70.9514 110.93 70.7921C111.815 70.4387 112.83 69.6863 112.518 68.2993L111.975 68.8617C112.006 68.5192 112.006 68.1744 111.975 67.8319C111.818 68.0446 111.62 68.2238 111.393 68.3589C111.166 68.494 110.914 68.5823 110.652 68.6185C110.76 68.4868 110.836 68.3316 110.874 68.1653C110.911 67.9991 110.91 67.8263 110.869 67.6609C110.527 68.4209 109.106 68.4665 109.068 68.4665C107.669 68.1283 106.092 67.4785 104.595 68.1359C104.245 68.279 103.94 68.5149 103.714 68.8182C103.487 69.1215 103.348 69.4807 103.311 69.8573C102.874 70.2867 102.813 71.4191 103.094 72.4451C102.867 72.5099 102.668 72.6494 102.53 72.8412C102.392 73.0329 102.323 73.2655 102.334 73.5015C102.344 74.0892 102.585 74.6493 103.007 75.0595L103.102 75.1431C102.912 76.9329 102.364 79.5397 101.042 80.2465L101.061 80.2845C99.4041 80.1021 97.8765 80.1933 96.9113 80.6265C96.9113 80.6265 93.9055 80.4555 86.8375 88.2265C86.8375 88.2265 86.9211 88.4127 87.0731 88.7015C85.2149 90.8371 80.3471 97.1755 80.4839 104.779C80.3737 104.988 79.4313 106.383 79.4921 106.938C79.5529 107.492 81.6049 110.225 81.7721 110.259C81.9393 110.293 82.5511 109.78 82.5511 109.78C82.5511 109.78 83.4973 107.462 83.4593 106.987C83.4213 106.512 82.4257 104.684 82.4257 104.684V104.574C82.4523 103.768 82.8703 98.4485 89.1973 91.6541C89.3504 91.7952 89.5157 91.9223 89.6913 92.0341C89.6913 92.0341 91.4697 90.9891 93.3165 89.8415C91.3975 95.4731 89.0947 101.933 89.0947 101.933C87.8521 105.931 90.5957 109.822 95.1253 114.963C96.1259 117.153 97.2474 119.286 98.4845 121.351C93.2861 121.772 88.2871 123.54 83.9799 126.481L81.8139 126.941C81.7916 127.128 81.7802 127.315 81.7797 127.503L79.7657 127.724V127.572C79.7528 127.521 79.7227 127.475 79.6806 127.444C79.6384 127.412 79.5867 127.395 79.5339 127.397L76.6839 127.226C76.5743 127.208 76.4618 127.227 76.3646 127.281C76.2673 127.335 76.1911 127.42 76.1481 127.522C76.1443 127.547 76.1443 127.573 76.1481 127.598C76.2317 128.48 76.3533 129.118 76.4369 130.228C76.4863 130.912 76.5319 132.983 76.6003 133.929C76.6687 134.875 77.9911 134.902 78.0861 134.507C78.4927 132.732 79.1349 131.375 79.7961 130.767C79.8532 130.722 79.8988 130.665 79.9292 130.599C79.9596 130.532 79.9739 130.46 79.9709 130.387V130.118L82.2091 129.802C82.2547 129.924 82.3079 130.049 82.3649 130.182L84.4739 129.772C84.4739 129.772 91.8231 130.007 98.0665 127.07C95.8131 130.703 93.2215 135.928 92.7845 141.305L92.0625 143.235C92.0625 143.235 92.2031 143.349 92.4425 143.505L91.7813 145.876H91.6293C91.5381 145.876 91.4583 145.967 91.4393 146.093L90.7857 148.924C90.7595 149.032 90.7707 149.146 90.8177 149.247C90.8647 149.347 90.9445 149.429 91.0441 149.479C91.068 149.483 91.0924 149.483 91.1163 149.479C92.0017 149.456 92.6363 149.38 93.7763 149.38C94.4641 149.38 96.5313 149.482 97.4813 149.482C98.4313 149.482 98.5491 148.164 98.1615 148.042C96.4249 147.51 95.1215 146.769 94.5591 146.066C94.5157 146.006 94.4587 145.956 94.3928 145.921C94.3269 145.886 94.2537 145.867 94.1791 145.865L94.5895 144.269C94.6908 144.275 94.7923 144.275 94.8935 144.269L95.8549 142.407C95.8549 142.407 106.7 126.774 107.817 122.521C108.422 120.215 105.621 114.5 102.931 109.75C101.943 105.744 100.651 102.435 99.9171 102.419H99.4915C99.8221 102.332 99.9893 102.267 99.9893 102.267C100.181 102.128 100.362 101.976 100.533 101.811C100.681 106.219 106.385 108.473 108.038 109.031C108.248 109.13 108.446 109.251 108.631 109.392C108.76 109.567 109.562 110.912 110.052 111.068C110.542 111.224 113.631 110.582 113.73 110.441C113.829 110.301 113.62 109.598 113.62 109.598Z" fill="white"/>
<g opacity="0.6">
<path d="M107.734 106.953L109.288 107.713C109.288 107.713 111.188 107.591 111.621 107.743C112.054 107.895 113.608 109.598 113.608 109.598C113.608 109.598 113.802 110.297 113.703 110.437C113.605 110.578 110.515 111.228 110.025 111.064C109.535 110.901 108.733 109.563 108.604 109.389C108.475 109.214 105.742 107.869 105.742 107.869L107.734 106.953Z" fill="#EBB376"/>
<path d="M82.4597 102.792L82.4255 104.661C82.4255 104.661 83.4211 106.489 83.4591 106.964C83.4971 107.439 82.5509 109.757 82.5509 109.757C82.5509 109.757 81.9543 110.266 81.7719 110.236C81.5895 110.206 79.5375 107.473 79.4919 106.915C79.4463 106.356 80.3735 104.965 80.4837 104.756C80.5939 104.547 81.1715 101.39 81.1715 101.39L82.4597 102.792Z" fill="#EBB376"/>
<path d="M87.7797 87.9034C87.7797 87.9034 80.3165 95.3666 80.4837 104.756L82.4407 104.661C82.4407 104.661 82.3267 98.6574 89.8811 90.9358L87.7797 87.9034Z" fill="#EBB376"/>
<path d="M104.857 97.9468C104.857 97.9468 101.623 103.499 109.288 107.713L108.459 109.153C108.459 109.153 98.6099 106.36 100.818 99.7252C100.958 99.311 103.717 96.9664 103.717 96.9664L104.857 97.9468Z" fill="#EBB376"/>
<path d="M79.4844 127.754L82.5244 127.423L82.741 129.715L79.568 130.159L79.4844 127.754Z" fill="#EBB376"/>
<path d="M102.03 98.0381L105.45 98.4713L106.818 90.2633L102.03 98.0381Z" fill="#90EE91"/>
<path opacity="0.1" d="M102.03 98.0381L105.45 98.4713L106.818 90.2633L102.03 98.0381Z" fill="white"/>
<path d="M79.9708 130.376L79.7694 127.572C79.7564 127.52 79.7264 127.475 79.6842 127.443C79.6421 127.412 79.5903 127.395 79.5376 127.397L76.6876 127.226C76.5779 127.208 76.4654 127.227 76.3682 127.281C76.271 127.335 76.1947 127.42 76.1518 127.522C76.148 127.547 76.148 127.573 76.1518 127.598C76.2354 128.48 76.357 129.118 76.4406 130.228C76.49 130.912 76.5356 132.983 76.604 133.929C76.6724 134.875 77.9948 134.902 78.0898 134.507C78.4964 132.732 79.1386 131.375 79.7998 130.767C79.8578 130.721 79.9037 130.661 79.9335 130.593C79.9633 130.525 79.9761 130.45 79.9708 130.376Z" fill="#263238"/>
<path d="M91.7014 146.07L92.5754 142.927L94.7072 143.706L94.0384 146.294L91.7014 146.07Z" fill="#EBB376"/>
<path d="M91.0288 102.028C91.0288 102.028 92.0244 110.54 98.4844 121.351C93.286 121.772 88.287 123.54 83.9798 126.481L81.8138 126.941C81.7014 128.041 81.881 129.151 82.3344 130.159L84.4434 129.749C84.4434 129.749 97.1924 130.159 103.371 123.194C106.198 120.036 101.589 102.461 99.879 102.423C98.169 102.385 91.0288 102.028 91.0288 102.028Z" fill="#90EE91"/>
<path opacity="0.5" d="M91.0288 102.028C91.0288 102.028 92.0244 110.54 98.4844 121.351C93.286 121.772 88.287 123.54 83.9798 126.481L81.8138 126.941C81.7014 128.041 81.881 129.151 82.3344 130.159L84.4434 129.749C84.4434 129.749 97.1924 130.159 103.371 123.194C106.198 120.036 101.589 102.461 99.879 102.423C98.169 102.385 91.0288 102.028 91.0288 102.028Z" fill="black"/>
<path d="M89.0945 101.933C87.3351 107.595 93.5633 113.033 101.547 122.13C101.547 122.13 93.5671 131.463 92.7653 141.282L92.0433 143.212C92.8534 143.847 93.8391 144.217 94.8667 144.273L95.8281 142.411C95.8281 142.411 106.673 126.777 107.79 122.525C108.908 118.273 98.4425 102.423 98.4425 102.423C98.4425 102.423 92.5677 101.002 89.0945 101.933Z" fill="#90EE91"/>
<path opacity="0.3" d="M89.0945 101.933C87.3351 107.595 93.5633 113.033 101.547 122.13C101.547 122.13 93.5671 131.463 92.7653 141.282L92.0433 143.212C92.8534 143.847 93.8391 144.217 94.8667 144.273L95.8281 142.411C95.8281 142.411 106.673 126.777 107.79 122.525C108.908 118.273 98.4425 102.423 98.4425 102.423C98.4425 102.423 92.5677 101.002 89.0945 101.933Z" fill="black"/>
<path d="M99.9625 102.26C99.9625 102.26 96.4361 103.658 89.0945 101.933C89.0945 101.933 95.3531 84.4265 95.8851 81.6943C96.4475 78.8367 106.426 80.3263 108.619 83.4993C111.017 86.9725 103.002 100.094 99.9625 102.26Z" fill="#90EE91"/>
<path opacity="0.6" d="M99.9625 102.26C99.9625 102.26 96.4361 103.658 89.0945 101.933C89.0945 101.933 95.3531 84.4265 95.8851 81.6943C96.4475 78.8367 106.426 80.3263 108.619 83.4993C111.017 86.9725 103.002 100.094 99.9625 102.26Z" fill="white"/>
<path d="M96.8997 80.5999C96.8997 80.5999 93.8939 80.4289 86.8259 88.1999C86.8259 88.1999 88.1407 91.0764 89.6949 91.9998C89.6949 91.9998 96.2005 88.1809 97.2607 87.1207C98.3209 86.0605 100.221 82.0667 96.8997 80.5999Z" fill="#90EE91"/>
<path opacity="0.4" d="M96.8997 80.5999C96.8997 80.5999 93.8939 80.4289 86.8259 88.1999C86.8259 88.1999 88.1407 91.0764 89.6949 91.9998C89.6949 91.9998 96.2005 88.1809 97.2607 87.1207C98.3209 86.0605 100.221 82.0667 96.8997 80.5999Z" fill="white"/>
<path d="M94.1447 145.853H91.6101C91.5189 145.853 91.4391 145.945 91.4201 146.07L90.7665 148.901C90.7403 149.009 90.7516 149.123 90.7985 149.224C90.8455 149.325 90.9253 149.406 91.0249 149.456C91.0488 149.46 91.0732 149.46 91.0971 149.456C91.9825 149.433 92.6171 149.357 93.7571 149.357C94.4449 149.357 96.5121 149.46 97.4621 149.46C98.4121 149.46 98.5299 148.141 98.1423 148.019C96.4057 147.487 95.1023 146.746 94.5399 146.043C94.4944 145.982 94.4346 145.933 94.3658 145.9C94.2969 145.867 94.2211 145.851 94.1447 145.853Z" fill="#263238"/>
<path d="M103.155 74.5731C103.022 76.3211 102.509 79.4485 101.042 80.2351C101.393 80.877 101.868 81.4427 102.439 81.8994C103.01 82.356 103.667 82.6945 104.371 82.8951C106.483 83.5297 106.198 81.6601 106.198 81.6601C104.469 80.7063 104.899 79.3459 105.575 78.1489L103.155 74.5731Z" fill="#EBB376"/>
<path opacity="0.2" d="M104.143 76.017L105.571 78.1336C105.41 78.4129 105.273 78.7053 105.161 79.0076C104.481 78.7112 103.728 77.6662 103.858 76.9062C103.895 76.5944 103.992 76.2926 104.143 76.017Z" fill="black"/>
<path d="M108.3 71.2556C107.217 71.6356 107.369 72.8174 109.06 75.0138C110.2 74.1284 110.872 72.0232 110.333 71.3126C109.793 70.602 109.257 70.9136 108.3 71.2556Z" fill="#263238"/>
<path d="M103.896 71.97C103.546 73.6534 103.246 74.8124 103.432 75.8878C103.508 76.2882 103.649 76.6733 103.85 77.0278C105.089 79.228 108.148 78.9506 109.292 76.853C109.33 76.7884 109.364 76.7162 109.398 76.6478C110.363 74.725 110.857 71.4874 108.965 70.0472C108.536 69.7159 108.029 69.4997 107.493 69.419C106.957 69.3383 106.409 69.3958 105.901 69.5861C105.394 69.7764 104.943 70.0931 104.592 70.5063C104.241 70.9195 104.001 71.4155 103.896 71.9472V71.97Z" fill="#EBB376"/>
<path d="M107.088 73.4977C107.038 73.6839 107.088 73.8777 107.213 73.8777C107.338 73.8777 107.468 73.7903 107.521 73.6079C107.574 73.4255 107.521 73.2507 107.395 73.2279C107.27 73.2051 107.16 73.3229 107.088 73.4977Z" fill="#263238"/>
<path d="M109.166 74.0677C109.117 74.2501 109.166 74.4249 109.295 74.4477C109.424 74.4705 109.554 74.3602 109.603 74.174C109.652 73.9878 109.603 73.813 109.474 73.794C109.345 73.775 109.215 73.8853 109.166 74.0677Z" fill="#263238"/>
<path d="M108.467 73.9689C108.532 74.5884 108.683 75.1959 108.915 75.7739C108.766 75.8292 108.606 75.8511 108.447 75.8379C108.288 75.8248 108.134 75.777 107.996 75.6979L108.467 73.9689Z" fill="#D58745"/>
<path d="M106.696 72.6731C106.672 72.6686 106.649 72.6566 106.632 72.6389C106.622 72.6275 106.616 72.6143 106.612 72.6003C106.608 72.5862 106.607 72.5715 106.608 72.557C106.61 72.5425 106.615 72.5285 106.622 72.5158C106.629 72.5031 106.639 72.492 106.651 72.4831C106.788 72.3709 106.95 72.2936 107.123 72.2579C107.297 72.2221 107.476 72.229 107.646 72.2779C107.66 72.2813 107.673 72.2876 107.684 72.2963C107.695 72.305 107.705 72.316 107.712 72.3285C107.718 72.341 107.722 72.3548 107.724 72.369C107.725 72.3832 107.723 72.3974 107.718 72.4109C107.714 72.4246 107.706 72.4373 107.697 72.4482C107.687 72.4591 107.675 72.468 107.662 72.4743C107.649 72.4807 107.635 72.4844 107.621 72.4853C107.606 72.4861 107.591 72.4841 107.578 72.4793C107.439 72.4444 107.294 72.4438 107.155 72.4776C107.016 72.5114 106.887 72.5785 106.78 72.6731C106.753 72.683 106.723 72.683 106.696 72.6731Z" fill="#263238"/>
<path d="M110.306 73.6231C110.286 73.6176 110.268 73.6065 110.254 73.591C110.239 73.5755 110.23 73.5563 110.226 73.5357C110.204 73.3975 110.15 73.2666 110.067 73.1537C109.984 73.0407 109.876 72.9489 109.751 72.8859C109.724 72.8734 109.703 72.8512 109.692 72.8237C109.681 72.7962 109.68 72.7655 109.691 72.7377C109.701 72.7132 109.719 72.6931 109.743 72.6813C109.767 72.6694 109.794 72.6665 109.82 72.6731C109.978 72.7528 110.115 72.8681 110.22 73.0099C110.326 73.1517 110.397 73.3161 110.428 73.4901C110.431 73.5043 110.43 73.5189 110.428 73.5331C110.425 73.5473 110.419 73.5608 110.411 73.5728C110.403 73.5848 110.392 73.5951 110.38 73.603C110.368 73.611 110.355 73.6165 110.34 73.6193H110.291L110.306 73.6231Z" fill="#263238"/>
<path d="M106.533 69.2189C107.487 69.8649 105.849 71.9662 103.69 73.68C102.813 72.54 102.668 70.3285 103.367 69.7775C104.067 69.2265 105.701 68.6565 106.533 69.2189Z" fill="#263238"/>
<path d="M102.334 73.4787C102.343 74.0664 102.585 74.6265 103.006 75.0367C103.569 75.5763 104.215 75.1583 104.363 74.4363C104.5 73.7865 104.363 72.7225 103.656 72.4603C103.5 72.4043 103.332 72.3885 103.168 72.4144C103.003 72.4402 102.848 72.5069 102.717 72.6083C102.585 72.7097 102.481 72.8425 102.414 72.9946C102.347 73.1467 102.32 73.3131 102.334 73.4787Z" fill="#EBB376"/>
<path d="M106.202 75.6447C106.301 75.9279 106.475 76.1787 106.706 76.3696C106.937 76.5606 107.216 76.6844 107.513 76.7276" stroke="#263238" stroke-width="0.526291" stroke-linecap="round" stroke-linejoin="round"/>
<path d="M111.241 70.5413C110.861 70.8415 110.34 71.2519 108.961 70.9213C107.582 70.5907 106.62 69.5153 106.065 69.7091C105.511 69.9029 104.602 70.8871 104.602 70.8871L103.307 69.9675C103.324 69.57 103.455 69.1857 103.684 68.8604C103.913 68.5351 104.23 68.2823 104.599 68.1321C107.304 66.9465 110.253 70.0321 111.978 67.8281C111.978 67.8091 112.195 69.7889 111.241 70.5413Z" fill="#263238"/>
<path d="M109.06 68.4437C109.06 68.4437 110.519 68.4171 110.865 67.6381C110.927 67.8639 110.909 68.1041 110.815 68.3185C110.721 68.533 110.556 68.7086 110.348 68.8161C109.611 69.1695 109.06 68.4437 109.06 68.4437Z" fill="#263238"/>
<path d="M109.862 71.0353C110.348 71.0353 113.012 70.3969 112.522 68.2765" stroke="#263238" stroke-width="0.25" stroke-miterlimit="10"/>
</g>
<path d="M80.9401 89.3095C80.8451 89.1651 80.1269 89.0701 80.1269 89.0701C80.1269 89.0701 77.9533 89.8643 77.6493 90.1835C77.3453 90.5027 76.7145 92.3229 76.7145 92.3229L76.0001 92.9613C72.7587 95.5909 70.1101 95.0019 68.2253 93.8049L68.4115 93.2843C66.4997 91.6148 65.1743 89.3757 64.6305 86.8965C64.5845 86.5948 64.473 86.3068 64.3037 86.0529C63.6995 85.1789 62.4265 84.3657 60.8837 83.7045C60.885 83.683 60.885 83.6614 60.8837 83.6399C59.5347 82.8989 59.5005 81.9109 59.8691 80.9419C59.9109 80.8355 59.9527 80.7329 60.0021 80.6303C60.0515 80.5277 60.0705 80.4859 60.1047 80.4137L60.1731 80.2883C60.9374 80.4456 61.7328 80.3195 62.411 79.9335C63.0892 79.5476 63.6039 78.9281 63.8591 78.1907C63.8858 78.1185 63.9087 78.045 63.9275 77.9703C64.2432 76.9377 64.3567 75.8539 64.2619 74.7783C64.2707 74.7923 64.2823 74.8042 64.2961 74.8134C64.3098 74.8226 64.3254 74.8287 64.3417 74.8315C64.3566 74.8352 64.3723 74.8352 64.3873 74.8315C64.4143 74.8212 64.4363 74.8008 64.4484 74.7744C64.4605 74.7481 64.4617 74.7181 64.4519 74.6909C64.408 74.5655 64.341 74.4495 64.2543 74.3489C64.3873 73.5889 64.3151 72.8669 63.9845 72.5553C63.8905 72.4606 63.7813 72.3822 63.6615 72.3235C63.9696 72.2651 64.2567 72.1261 64.4937 71.9207C65.3107 71.4305 66.2037 70.5261 65.6603 69.2075L65.2157 69.8497C65.1946 69.5062 65.1424 69.1654 65.0599 68.8313C64.9392 69.0668 64.7724 69.2757 64.5694 69.4454C64.3664 69.6152 64.1313 69.7423 63.8781 69.8193C63.9636 69.6725 64.0136 69.5078 64.0241 69.3382C64.0347 69.1686 64.0055 68.999 63.9389 68.8427C63.7261 69.6559 62.3277 69.9181 62.2897 69.9257C60.8533 69.8155 59.1965 69.4241 57.8209 70.3057C57.4983 70.5021 57.2354 70.7829 57.0606 71.1177C56.8858 71.4525 56.8058 71.8287 56.8291 72.2057C56.4491 72.6997 56.5859 73.8283 57.0305 74.7973C56.8148 74.8952 56.6392 75.064 56.5328 75.2755C56.4263 75.487 56.3954 75.7286 56.4453 75.9601C56.4956 76.2471 56.602 76.5214 56.7585 76.7673C56.915 77.0131 57.1185 77.2256 57.3573 77.3927C57.4707 77.4723 57.6006 77.5255 57.7373 77.5485C57.5055 79.2965 56.9469 81.5613 55.7309 82.2111V82.2567C54.1007 82.0135 52.6187 82.0135 51.6573 82.3403L51.5737 82.2719C51.5737 82.2719 48.7047 81.3675 39.9381 87.1663C39.9381 87.1663 39.9761 87.3639 40.0521 87.6831C37.7265 89.2981 31.4489 94.2419 29.7123 101.648C29.5527 101.823 28.2949 102.944 28.2189 103.499C28.1429 104.053 29.4577 107.2 29.6287 107.299C29.7997 107.397 30.5027 107.029 30.5027 107.029C30.5027 107.029 31.9885 105.011 32.0683 104.54C32.1481 104.069 31.6313 102.055 31.6313 102.055L31.6579 101.948C31.8821 101.188 33.5921 96.1229 41.4011 91.0955C41.5147 91.2639 41.6417 91.4227 41.7811 91.5705C41.7811 91.5705 46.1511 90.3013 48.7047 89.3779C46.8769 94.8461 44.3081 102.07 43.8331 103.404C43.1529 104.464 42.9173 106.326 43.5291 109.431C43.0921 113.554 42.3511 118.421 40.0673 122.229C40.0673 122.229 35.3819 119.071 26.5811 118.759L24.5595 117.855C24.4323 117.994 24.3131 118.14 24.2023 118.292L22.4429 117.285L22.5227 117.16C22.544 117.11 22.5474 117.055 22.5321 117.004C22.5168 116.952 22.4839 116.908 22.4391 116.878L20.2389 115.066C20.1612 114.986 20.0587 114.935 19.9482 114.921C19.8377 114.907 19.7258 114.932 19.6309 114.99C19.6115 115.006 19.5949 115.025 19.5815 115.047C19.1293 115.807 18.8557 116.4 18.2667 117.327C17.8867 117.912 16.7239 119.607 16.2223 120.416C15.7207 121.226 16.7733 122.024 17.0811 121.758C18.4529 120.565 19.7753 119.858 20.6645 119.744C20.7404 119.74 20.8145 119.719 20.8806 119.681C20.9467 119.644 21.0029 119.591 21.0445 119.527L21.1889 119.299L23.1839 120.363C23.1509 120.49 23.1205 120.616 23.0927 120.743L25.0383 121.655C25.0383 121.655 35.1045 129.491 44.2017 127.496C45.9649 127.116 48.2525 122.936 50.1905 118.197C53.0682 120.569 56.1052 122.742 59.2801 124.699C59.2801 124.699 58.4859 131.805 67.8567 143.813L68.8789 145.606C69.0696 145.567 69.2575 145.515 69.4413 145.451L70.5091 147.111L70.3799 147.21C70.3438 147.248 70.3219 147.298 70.3178 147.35C70.3136 147.403 70.3275 147.455 70.3571 147.499L71.5427 150.159C71.5853 150.262 71.6624 150.347 71.7608 150.4C71.8592 150.452 71.9728 150.469 72.0823 150.448C72.1056 150.44 72.1275 150.429 72.1469 150.413C72.8423 149.862 73.3097 149.414 74.1989 148.741C74.7461 148.331 76.4599 147.164 77.2161 146.594C77.9723 146.024 77.2769 144.896 76.8969 145.033C75.1869 145.656 73.6973 145.854 72.8271 145.626C72.7563 145.603 72.6813 145.597 72.608 145.609C72.5347 145.621 72.4652 145.65 72.4053 145.694L72.3559 145.732L71.3755 144.265L71.5009 144.128L70.6801 142.186C70.6801 142.186 65.6185 123.844 63.0801 120.264C60.3327 115.589 57.2411 111.124 53.8309 106.907C54.1121 105.581 54.2337 104.582 54.1387 104.091C54.3047 104.051 54.4684 104.002 54.6289 103.943C55.9475 102.199 59.5157 97.9507 62.0199 93.9227C63.5627 96.6435 66.5001 98.6651 66.5001 98.6651L66.7585 97.9355C72.5193 100.596 76.7145 95.1349 77.5695 93.8961C77.6985 93.7828 77.84 93.6847 77.9913 93.6035C78.2041 93.5503 79.7431 93.3299 80.0851 92.9423C80.4271 92.5547 81.0351 89.4539 80.9401 89.3095Z" fill="white"/>
<g opacity="0.3">
<path d="M22.1959 117.133L24.8483 118.653L23.6741 120.629L20.8469 119.124L22.1959 117.133Z" fill="#EBB376"/>
<path d="M21.0444 119.535L22.5302 117.152C22.5516 117.103 22.5549 117.048 22.5397 116.996C22.5244 116.945 22.4914 116.9 22.4466 116.871L20.2464 115.058C20.1688 114.978 20.0663 114.927 19.9558 114.914C19.8452 114.9 19.7333 114.924 19.6384 114.982C19.6191 114.999 19.6024 115.018 19.589 115.039C19.1368 115.799 18.8632 116.392 18.2742 117.319C17.8942 117.904 16.7314 119.599 16.2298 120.409C15.7282 121.218 16.7808 122.016 17.0886 121.75C18.4604 120.557 19.7828 119.85 20.672 119.736C20.7454 119.733 20.8171 119.714 20.8817 119.679C20.9463 119.644 21.0019 119.595 21.0444 119.535Z" fill="#263238"/>
<path d="M44.08 104.167C43.4492 108.572 43.4492 116.567 40.0596 122.221C40.0596 122.221 35.3742 119.063 26.5734 118.752L24.5518 117.847C23.8113 118.67 23.3025 119.675 23.0774 120.758L25.023 121.67C25.023 121.67 35.0892 129.506 44.1864 127.511C48.3284 126.622 55.3432 104.832 53.9828 103.795C52.6224 102.758 46.569 103.278 44.08 104.167Z" fill="#90EE91"/>
<path opacity="0.5" d="M44.08 104.167C43.4492 108.572 43.4492 116.567 40.0596 122.221C40.0596 122.221 35.3742 119.063 26.5734 118.752L24.5518 117.847C23.8113 118.67 23.3025 119.675 23.0774 120.758L25.023 121.67C25.023 121.67 35.0892 129.506 44.1864 127.511C48.3284 126.622 55.3432 104.832 53.9828 103.795C52.6224 102.758 46.569 103.278 44.08 104.167Z" fill="black"/>
<path d="M70.7674 147.503L69.0042 144.755L71.003 143.687L72.4887 145.907L70.7674 147.503Z" fill="#EBB376"/>
<path d="M72.4129 145.682L70.3875 147.202C70.3515 147.241 70.3296 147.29 70.3254 147.343C70.3213 147.395 70.3351 147.448 70.3647 147.491L71.5503 150.151C71.593 150.254 71.6701 150.339 71.7685 150.392C71.8668 150.445 71.9804 150.462 72.0899 150.44C72.1132 150.432 72.1351 150.421 72.1545 150.406C72.8499 149.855 73.3173 149.406 74.2065 148.734C74.7537 148.323 76.4675 147.157 77.2237 146.587C77.9799 146.017 77.2845 144.888 76.9045 145.025C75.1945 145.648 73.7049 145.846 72.8347 145.618C72.7643 145.595 72.6894 145.588 72.6161 145.6C72.5428 145.611 72.4732 145.639 72.4129 145.682Z" fill="#263238"/>
<path d="M63.0801 120.264C65.6337 123.844 70.6801 142.186 70.6801 142.186L71.4933 144.117C70.7925 144.87 69.8772 145.39 68.8713 145.606L67.8491 143.813C58.4783 131.805 59.2725 124.699 59.2725 124.699C47.2645 117.167 44.1485 112.383 43.6013 109.81C40.9755 97.4871 51.1139 103.772 51.1139 103.772C51.1139 103.772 57.0001 109.97 63.0801 120.264Z" fill="#90EE91"/>
<path opacity="0.3" d="M63.0801 120.264C65.6337 123.844 70.6801 142.186 70.6801 142.186L71.4933 144.117C70.7925 144.87 69.8772 145.39 68.8713 145.606L67.8491 143.813C58.4783 131.805 59.2725 124.699 59.2725 124.699C47.2645 117.167 44.1485 112.383 43.6013 109.81C40.9755 97.4871 51.1139 103.772 51.1139 103.772C51.1139 103.772 57.0001 109.97 63.0801 120.264Z" fill="black"/>
<path d="M75.4148 93.4629L76.7182 92.3229C76.7182 92.3229 77.349 90.5065 77.653 90.1835C77.957 89.8605 80.1306 89.0701 80.1306 89.0701C80.1306 89.0701 80.8488 89.1651 80.9438 89.3095C81.0388 89.4539 80.4384 92.5547 80.0926 92.9423C79.7468 93.3299 78.1926 93.5503 77.9988 93.6035C77.805 93.6567 75.4794 95.6479 75.4794 95.6479L75.4148 93.4629Z" fill="#EBB376"/>
<path d="M76.7183 92.3229C72.6903 96.1229 69.4983 94.8765 67.4805 93.2843C67.1613 94.4699 66.3139 96.4117 66.1543 97.6277C72.9525 101.39 77.7405 93.6529 77.7405 93.6529L76.7183 92.3229Z" fill="#EBB376"/>
<path d="M64.619 86.8965C65.1628 89.3757 66.4882 91.6148 68.4 93.2843L66.5 98.6651C66.5 98.6651 62.6999 96.0545 61.4688 92.7789L64.619 86.8965Z" fill="#90EE91"/>
<path opacity="0.1" d="M64.619 86.8965C65.1628 89.3757 66.4882 91.6148 68.4 93.2843L66.5 98.6651C66.5 98.6651 62.6999 96.0545 61.4688 92.7789L64.619 86.8965Z" fill="white"/>
<path d="M54.6287 103.943C54.6287 103.943 51.1061 105.342 43.7607 103.616C43.7607 103.616 50.0193 86.1099 50.5551 83.3777C51.1137 80.5163 62.0957 82.8875 64.2883 86.0605C66.6899 89.5337 56.9999 100.793 54.6287 103.943Z" fill="#90EE91"/>
<path opacity="0.6" d="M54.6287 103.943C54.6287 103.943 51.1061 105.342 43.7607 103.616C43.7607 103.616 50.0193 86.1099 50.5551 83.3777C51.1137 80.5163 62.0957 82.8875 64.2883 86.0605C66.6899 89.5337 56.9999 100.793 54.6287 103.943Z" fill="white"/>
<path d="M32.1251 100.242L31.6311 102.047C31.6311 102.047 32.1479 104.065 32.0681 104.532C31.9883 105 30.5025 107.021 30.5025 107.021C30.5025 107.021 29.7995 107.367 29.6285 107.291C29.4575 107.215 28.1427 104.061 28.2187 103.491C28.2947 102.921 29.5525 101.815 29.7121 101.64C29.8717 101.466 31.2055 98.5472 31.2055 98.5472L32.1251 100.242Z" fill="#EBB376"/>
<path d="M40.926 87.113C40.926 87.113 31.8592 92.509 29.7122 101.656L31.6122 102.036C31.6122 102.036 32.9802 96.1874 42.199 90.5634L40.926 87.113Z" fill="#EBB376"/>
<path d="M51.5736 82.2832C51.5736 82.2832 48.7046 81.3788 39.938 87.1776C39.938 87.1776 40.508 90.2898 41.7886 91.5628C41.7886 91.5628 49.0314 89.4614 50.3196 88.6938C51.6078 87.9262 54.4236 84.5176 51.5736 82.2832Z" fill="#90EE91"/>
<path opacity="0.4" d="M51.5736 82.2832C51.5736 82.2832 48.7046 81.3788 39.938 87.1776C39.938 87.1776 40.508 90.2898 41.7886 91.5628C41.7886 91.5628 49.0314 89.4614 50.3196 88.6938C51.6078 87.9262 54.4236 84.5176 51.5736 82.2832Z" fill="white"/>
<path d="M57.8247 76.5604C57.6917 78.3084 57.1787 81.4358 55.7119 82.2224C56.0627 82.8643 56.5377 83.4301 57.1092 83.8867C57.6807 84.3434 58.3372 84.6819 59.0407 84.8824C61.1535 85.517 60.8685 83.6474 60.8685 83.6474C59.1395 82.6974 59.5651 81.337 60.2453 80.1362L57.8247 76.5604Z" fill="#EBB376"/>
<path opacity="0.2" d="M58.8088 78.0197L60.2414 80.1363C60.0787 80.4134 59.9414 80.7046 59.831 81.0064C59.1508 80.71 58.3946 79.665 58.5238 78.905C58.5643 78.5951 58.6609 78.2951 58.8088 78.0197Z" fill="black"/>
<path d="M61.9781 72.8213C60.9711 73.3837 61.3093 74.5161 63.3119 76.4161C64.2847 75.3559 64.6229 73.1709 63.9731 72.5553C63.3233 71.9397 62.8559 72.3349 61.9781 72.8213Z" fill="#263238"/>
<path d="M57.7334 74.2349C57.6574 75.9525 57.5434 77.1419 57.9044 78.1717C58.0395 78.5596 58.2414 78.921 58.501 79.2395C60.0742 81.2155 63.061 80.4517 63.8438 78.1983C63.8706 78.1261 63.8934 78.0525 63.9122 77.9779C64.5582 75.9259 64.5278 72.6579 62.4302 71.5179C61.9525 71.2597 61.4168 71.128 60.8739 71.1352C60.331 71.1424 59.799 71.2883 59.3284 71.5591C58.8578 71.8298 58.4642 72.2163 58.185 72.682C57.9058 73.1477 57.7504 73.677 57.7334 74.2197V74.2349Z" fill="#EBB376"/>
<path d="M61.1269 75.2342C61.1079 75.4204 61.1953 75.5838 61.3169 75.6142C61.4385 75.6446 61.5525 75.485 61.5753 75.295C61.5981 75.105 61.5107 74.9454 61.3891 74.915C61.2675 74.8846 61.1801 75.048 61.1269 75.2342Z" fill="#263238"/>
<path d="M63.2739 75.4623C63.2739 75.6485 63.3385 75.8119 63.4601 75.8233C63.5817 75.8347 63.7033 75.6979 63.7223 75.5079C63.7413 75.3179 63.6577 75.1545 63.5323 75.1279C63.4069 75.1013 63.2929 75.2723 63.2739 75.4623Z" fill="#263238"/>
<path d="M62.5632 75.4775C62.7283 76.0771 62.9751 76.6512 63.2966 77.1837C63.1581 77.2628 63.0041 77.3106 62.8452 77.3237C62.6863 77.3369 62.5265 77.315 62.377 77.2597L62.5632 75.4775Z" fill="#D58745"/>
<path d="M60.6138 74.4932C60.6015 74.4945 60.589 74.4932 60.5772 74.4892C60.5654 74.4853 60.5546 74.4789 60.5454 74.4705C60.5248 74.4498 60.5132 74.4218 60.5132 74.3925C60.5132 74.3633 60.5248 74.3353 60.5454 74.3147C60.6611 74.179 60.808 74.0735 60.9735 74.0073C61.139 73.941 61.3181 73.9161 61.4954 73.9347C61.5095 73.9365 61.523 73.9411 61.5352 73.9483C61.5474 73.9554 61.5581 73.965 61.5666 73.9763C61.5751 73.9876 61.5812 74.0005 61.5847 74.0142C61.5881 74.028 61.5888 74.0423 61.5866 74.0563C61.5811 74.0852 61.5645 74.1109 61.5404 74.1279C61.5163 74.1449 61.4866 74.1519 61.4574 74.1475C61.3163 74.1329 61.1738 74.1523 61.0416 74.2038C60.9095 74.2553 60.7915 74.3376 60.6974 74.4439C60.6876 74.4574 60.6752 74.4688 60.6608 74.4773C60.6464 74.4858 60.6304 74.4912 60.6138 74.4932Z" fill="#263238"/>
<path d="M64.3263 74.8391C64.3055 74.8366 64.2857 74.8286 64.269 74.8159C64.2523 74.8032 64.2393 74.7863 64.2313 74.7669C64.1885 74.6338 64.1144 74.5129 64.0153 74.4144C63.9161 74.3159 63.7947 74.2426 63.6613 74.2007C63.6322 74.1935 63.6071 74.1751 63.5914 74.1495C63.5758 74.1238 63.5709 74.0931 63.5777 74.0639C63.585 74.0355 63.6028 74.0111 63.6275 73.9955C63.6523 73.9799 63.6821 73.9745 63.7107 73.9803C63.88 74.0324 64.0344 74.1241 64.1612 74.2476C64.2881 74.3712 64.3838 74.5231 64.4403 74.6909C64.4502 74.7181 64.449 74.7481 64.4369 74.7744C64.4248 74.8007 64.4028 74.8212 64.3757 74.8315C64.3603 74.8384 64.3432 74.841 64.3263 74.8391Z" fill="#263238"/>
<path d="M59.8957 71.0961C60.9407 71.5787 59.6601 73.9157 57.8019 75.9525C56.7569 74.9721 56.2591 72.8099 56.8633 72.1525C57.4675 71.4951 58.9837 70.6743 59.8957 71.0961Z" fill="#263238"/>
<path d="M56.4338 75.9714C56.4842 76.2585 56.5906 76.5328 56.7471 76.7786C56.9036 77.0244 57.1071 77.237 57.3458 77.404C57.988 77.8448 58.558 77.3318 58.5922 76.5946C58.6188 75.9296 58.3186 74.9036 57.5738 74.7554C57.4107 74.7257 57.2428 74.7374 57.0853 74.7893C56.9279 74.8413 56.7859 74.9319 56.6725 75.0529C56.5591 75.1738 56.4779 75.3213 56.4362 75.4817C56.3945 75.6422 56.3937 75.8106 56.4338 75.9714Z" fill="#EBB376"/>
<path d="M60.5986 77.4915C60.7408 77.7554 60.9529 77.9751 61.2116 78.1266C61.4703 78.2781 61.7657 78.3554 62.0654 78.3503" stroke="#263238" stroke-width="0.526291" stroke-linecap="round" stroke-linejoin="round"/>
<path d="M64.7558 71.647C64.429 72.0042 63.9958 72.4944 62.5632 72.369C61.1306 72.2436 60.0286 71.3582 59.5232 71.6356C59.0178 71.913 58.2692 73.0302 58.2692 73.0302L56.8442 72.3348C56.7971 71.9399 56.8644 71.5397 57.0382 71.182C57.212 70.8243 57.485 70.524 57.8246 70.317C60.306 68.7096 63.707 71.2746 65.0636 68.8312C65.0484 68.8312 65.5766 70.7502 64.7558 71.647Z" fill="#263238"/>
<path d="M62.2744 69.9257C62.2744 69.9257 63.7108 69.6673 63.9274 68.8427C64.0251 69.0553 64.0463 69.2951 63.9875 69.5215C63.9286 69.748 63.7933 69.9471 63.6044 70.0853C62.928 70.5565 62.2744 69.9257 62.2744 69.9257Z" fill="#263238"/>
<path d="M63.46 72.3539C63.935 72.2779 66.4658 71.2139 65.6336 69.2075" stroke="#263238" stroke-width="0.25" stroke-miterlimit="10"/>
</g>
<path d="M162.621 27.225H27.3789V32.697H162.621V27.225Z" fill="#90EE91"/>
<path d="M162.621 38.1691H27.3789V43.6411H162.621V38.1691Z" fill="#90EE91"/>
<g opacity="0.85">
<path d="M162.621 27.225H27.3789V32.697H162.621V27.225Z" fill="white"/>
<path d="M162.621 38.1691H27.3789V43.6411H162.621V38.1691Z" fill="white"/>
</g>
<path d="M145.87 23.2236H142.348C142.01 23.2236 141.827 23.7708 142.048 24.128L143.818 27.035C143.845 27.0932 143.888 27.1426 143.942 27.1772C143.996 27.2117 144.058 27.2301 144.122 27.2301C144.187 27.2301 144.249 27.2117 144.303 27.1772C144.357 27.1426 144.4 27.0932 144.426 27.035L146.174 24.128C146.391 23.767 146.209 23.2236 145.87 23.2236Z" fill="#90EE91"/>
<path opacity="0.2" d="M145.87 23.2236H142.348C142.01 23.2236 141.827 23.7708 142.048 24.128L143.818 27.035C143.845 27.0932 143.888 27.1426 143.942 27.1772C143.996 27.2117 144.058 27.2301 144.122 27.2301C144.187 27.2301 144.249 27.2117 144.303 27.1772C144.357 27.1426 144.4 27.0932 144.426 27.035L146.174 24.128C146.391 23.767 146.209 23.2236 145.87 23.2236Z" fill="white"/>
<path d="M125.02 27.035C125.046 27.0932 125.089 27.1426 125.143 27.1772C125.197 27.2117 125.26 27.2301 125.324 27.2301C125.388 27.2301 125.45 27.2117 125.504 27.1772C125.558 27.1426 125.601 27.0932 125.628 27.035" fill="#90EE91"/>
<path opacity="0.2" d="M125.02 27.035C125.046 27.0932 125.089 27.1426 125.143 27.1772C125.197 27.2117 125.26 27.2301 125.324 27.2301C125.388 27.2301 125.45 27.2117 125.504 27.1772C125.558 27.1426 125.601 27.0932 125.628 27.035" fill="white"/>
<path d="M144.111 27.2289V49.1131" stroke="#263238" stroke-miterlimit="10"/>
<path d="M143.701 42.1596L142.632 43.229C142.406 43.4546 142.406 43.8203 142.632 44.0459L143.701 45.1153C143.927 45.3409 144.293 45.3409 144.518 45.1153L145.588 44.0459C145.813 43.8203 145.813 43.4546 145.588 43.229L144.518 42.1596C144.293 41.934 143.927 41.934 143.701 42.1596Z" fill="#90EE91" stroke="#90EE91" stroke-miterlimit="10"/>
<path d="M27.3789 32.6971H58.3033" stroke="#90EE91" stroke-width="2" stroke-miterlimit="10"/>
<path opacity="0.4" d="M27.3789 32.6971H58.3033" stroke="black" stroke-width="2" stroke-miterlimit="10"/>
<path d="M27.3789 38.1691H100.552" stroke="#90EE91" stroke-width="2" stroke-miterlimit="10"/>
<path opacity="0.4" d="M27.3789 38.1691H100.552" stroke="black" stroke-width="2" stroke-miterlimit="10"/>
<path d="M27.3789 43.6411H142.473" stroke="#90EE91" stroke-width="2" stroke-miterlimit="10"/>
<path opacity="0.4" d="M27.3789 43.6411H142.473" stroke="black" stroke-width="2" stroke-miterlimit="10"/>
<path d="M102.03 27.2289V27.9889" stroke="#263238" stroke-miterlimit="10"/>
<path d="M102.03 29.5659V44.5227" stroke="#263238" stroke-miterlimit="10" stroke-dasharray="4.14 4.14"/>
<path d="M102.03 45.313V46.073" stroke="#263238" stroke-miterlimit="10"/>
<path d="M101.621 36.6924L100.552 37.7619C100.326 37.9874 100.326 38.3531 100.552 38.5787L101.621 39.6481C101.847 39.8737 102.212 39.8737 102.438 39.6481L103.507 38.5787C103.733 38.3531 103.733 37.9874 103.507 37.7619L102.438 36.6924C102.212 36.4669 101.847 36.4669 101.621 36.6924Z" fill="white"/>
<path d="M101.621 36.6924L100.552 37.7619C100.326 37.9874 100.326 38.3531 100.552 38.5787L101.621 39.6481C101.847 39.8737 102.212 39.8737 102.438 39.6481L103.507 38.5787C103.733 38.3531 103.733 37.9874 103.507 37.7619L102.438 36.6924C102.212 36.4669 101.847 36.4669 101.621 36.6924Z" stroke="#90EE91" stroke-miterlimit="10"/>
<path d="M59.9524 27.2289V27.9889" stroke="#263238" stroke-miterlimit="10"/>
<path d="M59.9524 29.5582V47.5702" stroke="#263238" stroke-miterlimit="10" stroke-dasharray="4.12 4.12"/>
<path d="M59.9524 48.3531V49.1131" stroke="#263238" stroke-miterlimit="10"/>
<path d="M59.5438 31.2187L58.4743 32.2882C58.2488 32.5137 58.2488 32.8795 58.4743 33.105L59.5438 34.1744C59.7693 34.4 60.1351 34.4 60.3606 34.1744L61.43 33.105C61.6556 32.8795 61.6556 32.5137 61.4301 32.2882L60.3606 31.2187C60.1351 30.9932 59.7693 30.9932 59.5438 31.2187Z" fill="white"/>
<path d="M59.5438 31.2187L58.4743 32.2882C58.2488 32.5137 58.2488 32.8795 58.4743 33.105L59.5438 34.1744C59.7693 34.4 60.1351 34.4 60.3606 34.1744L61.43 33.105C61.6556 32.8795 61.6556 32.5137 61.4301 32.2882L60.3606 31.2187C60.1351 30.9932 59.7693 30.9932 59.5438 31.2187Z" stroke="#90EE91" stroke-miterlimit="10"/>
<path d="M153.041 49.4284L145.969 46.1376L146.228 53.9314L147.74 51.963L149.526 54.6648L152.426 52.7496L150.64 50.0478L153.041 49.4284Z" fill="white" stroke="#263238" stroke-linecap="round" stroke-linejoin="round"/>
</svg>
