<svg width="191" height="187" viewBox="0 0 191 187" fill="none" xmlns="http://www.w3.org/2000/svg">
<path d="M190.68 125.985H117.79V83.8055H190.68V125.985ZM118.235 125.541H190.235V84.2503H118.235V125.541Z" fill="#E0E0E0"/>
<path d="M175.643 106.296H127.552V107.706H175.643V106.296Z" fill="#F0F0F0"/>
<path d="M178.956 111.553H127.552V113.092H178.956V111.553Z" fill="#F0F0F0"/>
<path d="M178.956 116.872H127.552V118.411H178.956V116.872Z" fill="#F0F0F0"/>
<path d="M144.359 98.66H127.552V102.32H144.359V98.66Z" fill="#F0F0F0"/>
<path d="M190.457 84.0279H118.026V90.7436H190.457V84.0279Z" fill="#E0E0E0"/>
<path d="M184.885 89.7384C184.791 89.6495 185.725 88.5243 186.966 87.2256C188.207 85.927 189.297 84.9441 189.385 85.0286C189.474 85.1131 188.545 86.2427 187.304 87.5458C186.063 88.8489 184.974 89.8274 184.885 89.7384Z" fill="white"/>
<path d="M189.394 89.7384C189.306 89.8274 188.22 88.8489 186.975 87.5458C185.73 86.2427 184.8 85.1175 184.894 85.0286C184.987 84.9396 186.068 85.9181 187.313 87.2256C188.558 88.5332 189.479 89.6495 189.394 89.7384Z" fill="white"/>
<path d="M100.988 0.500122H28.5564V42.2395H100.988V0.500122Z" fill="#E6E6E6"/>
<path d="M86.1778 22.773H38.0874V24.1829H86.1778V22.773Z" fill="#F0F0F0"/>
<path d="M89.4912 28.0299H38.0874V29.5687H89.4912V28.0299Z" fill="#F0F0F0"/>
<path d="M89.4912 33.3491H38.0874V34.8879H89.4912V33.3491Z" fill="#F0F0F0"/>
<path d="M54.8944 15.1367H38.0874V18.797H54.8944V15.1367Z" fill="#F0F0F0"/>
<path d="M100.988 0.500122H28.5564V7.21579H100.988V0.500122Z" fill="#E0E0E0"/>
<path d="M95.1705 6.17951C95.0771 6.09501 96.0111 4.96535 97.2519 3.66669C98.4928 2.36804 99.5824 1.38515 99.6713 1.4741C99.7603 1.56305 98.8308 2.68825 97.5899 3.98691C96.3491 5.28557 95.2594 6.25956 95.1705 6.17951Z" fill="white"/>
<path d="M99.6714 6.17953C99.5824 6.26848 98.4972 5.29004 97.2519 3.98693C96.0067 2.68383 95.0771 1.56307 95.1705 1.47412C95.2639 1.38517 96.3447 2.36361 97.5899 3.66672C98.8352 4.96982 99.7648 6.09503 99.6714 6.17953Z" fill="white"/>
<path d="M73.5558 78.0371H0.679688V35.853H73.5558V78.0371ZM1.12443 77.5924H73.111V36.2977H1.12443V77.5924Z" fill="#E0E0E0"/>
<path d="M58.5233 58.3483H10.4329V59.7581H58.5233V58.3483Z" fill="#F0F0F0"/>
<path d="M61.8366 63.6052H10.4329V65.144H61.8366V63.6052Z" fill="#F0F0F0"/>
<path d="M61.8366 68.9243H10.4329V70.4631H61.8366V68.9243Z" fill="#F0F0F0"/>
<path d="M27.2398 50.712H10.4329V54.3722H27.2398V50.712Z" fill="#F0F0F0"/>
<path d="M73.3335 36.0754H0.9021V42.791H73.3335V36.0754Z" fill="#E0E0E0"/>
<path d="M157.662 87.7015H72.137V164.269H157.662V87.7015Z" fill="#E6E6E6"/>
<path d="M76.4377 63.5829H9.44116V133.19H76.4377V63.5829Z" fill="#F0F0F0"/>
<path d="M76.4377 63.5829H9.44116V71.1658H76.4377V63.5829Z" fill="#E0E0E0"/>
<path d="M14.9737 67.2965C14.9615 67.5715 14.8689 67.8368 14.7072 68.0596C14.5455 68.2824 14.322 68.4528 14.0644 68.5497C13.8068 68.6466 13.5264 68.6657 13.258 68.6046C12.9896 68.5436 12.745 68.4051 12.5546 68.2063C12.3643 68.0075 12.2365 67.7571 12.1871 67.4863C12.1377 67.2155 12.169 66.9362 12.2769 66.683C12.3849 66.4298 12.5648 66.2139 12.7944 66.0621C13.024 65.9102 13.2931 65.8291 13.5683 65.8289C13.949 65.8382 14.3104 65.9978 14.5738 66.2728C14.8371 66.5478 14.9809 66.9158 14.9737 67.2965Z" fill="white"/>
<path d="M20.6798 67.2965C20.6685 67.5728 20.5762 67.8397 20.4143 68.0639C20.2525 68.2881 20.0283 68.4597 19.7696 68.5575C19.5109 68.6553 19.2293 68.6748 18.9596 68.6137C18.6899 68.5526 18.4441 68.4135 18.2529 68.2138C18.0617 68.0141 17.9334 67.7625 17.884 67.4904C17.8346 67.2184 17.8663 66.9378 17.9752 66.6836C18.0841 66.4294 18.2653 66.2129 18.4963 66.0609C18.7273 65.9089 18.9979 65.8282 19.2744 65.8289C19.6551 65.8382 20.0165 65.9978 20.2799 66.2728C20.5432 66.5478 20.687 66.9158 20.6798 67.2965Z" fill="white"/>
<path d="M26.3859 67.2965C26.3745 67.5728 26.2822 67.8397 26.1204 68.0639C25.9585 68.2881 25.7343 68.4597 25.4757 68.5575C25.217 68.6553 24.9353 68.6748 24.6656 68.6137C24.396 68.5526 24.1502 68.4135 23.959 68.2138C23.7677 68.0141 23.6394 67.7625 23.59 67.4904C23.5407 67.2184 23.5724 66.9378 23.6813 66.6836C23.7901 66.4294 23.9714 66.2129 24.2024 66.0609C24.4334 65.9089 24.704 65.8282 24.9805 65.8289C25.3611 65.8382 25.7226 65.9978 25.9859 66.2728C26.2493 66.5478 26.3931 66.9158 26.3859 67.2965Z" fill="white"/>
<path d="M181.113 15.7238H95.5884V100.964H181.113V15.7238Z" fill="#F0F0F0"/>
<path d="M181.113 15.7238H95.5884V25.7084H181.113V15.7238Z" fill="#E0E0E0"/>
<path d="M102.873 20.616C102.858 20.979 102.736 21.3293 102.523 21.6236C102.31 21.9179 102.015 22.1431 101.675 22.2713C101.335 22.3994 100.965 22.4249 100.61 22.3446C100.256 22.2643 99.9332 22.0816 99.6818 21.8193C99.4304 21.5571 99.2615 21.2267 99.1962 20.8693C99.1309 20.5119 99.172 20.1432 99.3144 19.8089C99.4569 19.4747 99.6943 19.1896 99.9973 18.9892C100.3 18.7887 100.656 18.6817 101.019 18.6813C101.521 18.693 101.998 18.9031 102.346 19.2657C102.693 19.6283 102.883 20.1138 102.873 20.616Z" fill="white"/>
<path d="M109.843 19.3084C110.089 19.5762 110.252 19.9106 110.309 20.2699C110.367 20.6293 110.318 20.9977 110.168 21.3293C110.018 21.661 109.774 21.9411 109.465 22.1348C109.157 22.3285 108.799 22.4273 108.435 22.4188C108.071 22.4103 107.718 22.295 107.419 22.0871C107.12 21.8792 106.889 21.588 106.755 21.2497C106.62 20.9115 106.589 20.5411 106.663 20.1849C106.738 19.8286 106.915 19.5021 107.174 19.2462C107.537 18.9013 108.021 18.7141 108.521 18.7258C109.021 18.7375 109.497 18.947 109.843 19.3084Z" fill="white"/>
<path d="M117.897 20.616C117.881 20.979 117.759 21.3293 117.546 21.6236C117.333 21.9179 117.038 22.1431 116.698 22.2713C116.358 22.3994 115.988 22.4249 115.634 22.3446C115.28 22.2643 114.957 22.0816 114.705 21.8193C114.454 21.5571 114.285 21.2267 114.22 20.8693C114.154 20.5119 114.195 20.1432 114.338 19.8089C114.48 19.4747 114.718 19.1896 115.021 18.9892C115.324 18.7887 115.679 18.6817 116.042 18.6813C116.544 18.693 117.022 18.9031 117.369 19.2657C117.717 19.6283 117.906 20.1138 117.897 20.616Z" fill="white"/>
<path d="M162.639 186.884C162.639 186.947 131.755 187 93.6718 187C55.5882 187 24.6917 186.947 24.6917 186.884C24.6917 186.822 55.5704 186.769 93.6718 186.769C131.773 186.769 162.639 186.826 162.639 186.884Z" fill="#263238"/>
<path d="M132.547 132.439C125.676 127.64 124.119 118.731 124.39 110.722C124.435 109.387 124.288 107.973 124.924 106.803C125.56 105.634 127.045 104.829 128.242 105.389C129.234 105.856 129.665 107.012 130.221 107.969C130.963 109.242 132.05 110.28 133.356 110.962C134.206 111.406 135.26 111.673 136.1 111.211C137.257 110.575 137.39 108.987 137.381 107.653C137.381 105.171 137.366 102.692 137.337 100.217C137.257 98.8873 137.392 97.5537 137.737 96.2673C138.151 95.0042 139.071 93.8346 140.33 93.4788C141.589 93.123 143.159 93.8568 143.443 95.1554C143.492 95.7055 143.506 96.2581 143.483 96.8099C143.519 97.3658 143.777 97.9751 144.297 98.1441C144.817 98.3131 145.36 97.9262 145.76 97.5348C147.13 96.2006 148.064 94.4616 148.931 92.7449C149.799 91.0282 150.648 89.2626 151.893 87.7993C153.139 86.3361 154.86 85.1753 156.786 85.0642C158.711 84.953 160.717 86.136 161.197 88.0039C161.678 89.8719 160.588 91.7798 159.418 93.2964C157.653 95.5476 155.573 97.5323 153.241 99.1893C152.786 99.4378 152.422 99.8261 152.205 100.297C151.916 101.186 152.756 102.076 153.632 102.356C154.624 102.685 155.7 102.583 156.746 102.707C157.791 102.832 158.903 103.285 159.298 104.264C159.841 105.625 158.702 107.048 157.586 107.982C155.345 109.85 152.799 111.32 150.061 112.327C149.083 112.683 148.055 112.999 147.264 113.684C146.472 114.368 146 115.565 146.476 116.503C146.952 117.442 148.175 117.74 149.203 117.548C150.23 117.357 151.142 116.806 152.12 116.437C153.948 115.747 156.305 115.872 157.457 117.451C157.814 117.994 158.04 118.614 158.117 119.26C158.194 119.905 158.121 120.56 157.902 121.173C157.457 122.392 156.772 123.51 155.887 124.46C152.974 127.94 149.189 130.584 144.92 132.123C140.681 133.59 136.754 133.991 132.542 132.447" fill="#90EE91"/>
<path d="M159.241 86.1627C159.241 86.1627 159.201 86.2071 159.112 86.2872L158.716 86.6385C158.369 86.9499 157.857 87.4035 157.213 88.0039C155.384 89.7016 153.686 91.5347 152.134 93.4876C151.142 94.7196 150.114 96.1161 149.02 97.6327C147.926 99.1492 146.797 100.786 145.676 102.525C144.481 104.359 143.387 106.256 142.398 108.209C141.882 109.227 141.429 110.29 140.962 111.375L139.583 114.689C137.765 118.862 136.183 123.134 134.842 127.484C133.762 131.043 133.017 134.696 132.618 138.394C132.359 140.889 132.318 143.403 132.494 145.905C132.565 146.795 132.631 147.475 132.694 147.938C132.72 148.16 132.738 148.338 132.756 148.467V148.649C132.737 148.592 132.723 148.532 132.716 148.472C132.694 148.343 132.667 148.169 132.631 147.947C132.551 147.502 132.467 146.799 132.387 145.91C132.172 143.402 132.187 140.881 132.431 138.376C132.806 134.662 133.534 130.993 134.606 127.417C135.936 123.055 137.514 118.773 139.334 114.591L140.748 111.291C141.215 110.21 141.673 109.138 142.193 108.115C143.189 106.157 144.292 104.255 145.498 102.418C146.636 100.639 147.784 99.0292 148.865 97.5259C149.945 96.0227 150.991 94.6173 151.978 93.3898C153.546 91.442 155.267 89.6217 157.124 87.9461C157.782 87.3546 158.307 86.9098 158.662 86.6118L159.076 86.2783C159.127 86.2341 159.182 86.1954 159.241 86.1627Z" fill="#263238"/>
<path d="M142.251 108.106C142.189 107.923 142.145 107.734 142.122 107.542C142.051 107.172 141.971 106.652 141.878 105.976C141.687 104.642 141.491 102.814 141.282 100.79C141.073 98.7668 140.837 96.9344 140.641 95.6135C140.539 94.9553 140.45 94.4261 140.388 94.0569C140.339 93.868 140.314 93.6738 140.312 93.4788C140.389 93.6569 140.444 93.8435 140.477 94.0347C140.575 94.3994 140.686 94.9242 140.81 95.5869C141.064 96.9211 141.313 98.7357 141.522 100.764C141.731 102.792 141.909 104.571 142.047 105.954C142.113 106.577 142.171 107.106 142.216 107.528C142.25 107.719 142.262 107.913 142.251 108.106Z" fill="#263238"/>
<path d="M159.365 104.913C159.149 104.96 158.928 104.987 158.707 104.993C158.262 105.033 157.631 105.087 156.848 105.176C155.282 105.345 153.13 105.656 150.768 106.101C148.406 106.545 146.285 107.048 144.76 107.435C143.999 107.631 143.385 107.808 142.981 107.929C142.765 108.005 142.541 108.059 142.313 108.089C142.519 107.985 142.733 107.9 142.954 107.835C143.372 107.688 143.977 107.484 144.733 107.266C146.249 106.821 148.371 106.292 150.741 105.838C152.749 105.454 154.776 105.172 156.812 104.993C157.599 104.927 158.235 104.9 158.68 104.891C158.909 104.875 159.138 104.883 159.365 104.913Z" fill="#263238"/>
<path d="M134.824 127.106C134.777 127.042 134.738 126.971 134.708 126.897L134.415 126.279C134.161 125.741 133.819 124.945 133.41 123.971C132.583 122.014 131.529 119.274 130.408 116.232C129.287 113.19 128.255 110.45 127.472 108.471C127.09 107.511 126.774 106.723 126.538 106.136L126.289 105.5C126.255 105.427 126.231 105.349 126.218 105.269C126.266 105.333 126.305 105.404 126.334 105.478L126.627 106.096C126.876 106.634 127.223 107.43 127.633 108.404C128.46 110.361 129.514 113.101 130.635 116.143C131.755 119.185 132.787 121.925 133.57 123.904C133.952 124.864 134.268 125.652 134.499 126.239C134.602 126.492 134.686 126.684 134.753 126.875C134.787 126.948 134.811 127.026 134.824 127.106Z" fill="#263238"/>
<path d="M157.542 119.781C157.47 119.822 157.394 119.853 157.315 119.874L156.657 120.097L154.224 120.884C152.169 121.551 149.332 122.503 146.218 123.553C143.105 124.602 140.254 125.536 138.186 126.159C137.154 126.474 136.314 126.715 135.731 126.875L135.06 127.048C134.982 127.073 134.901 127.089 134.82 127.097C134.891 127.056 134.967 127.025 135.046 127.004L135.705 126.781L138.137 125.994C140.192 125.327 143.03 124.375 146.143 123.326C149.256 122.276 152.102 121.342 154.17 120.719C155.207 120.404 156.043 120.164 156.63 120.003L157.301 119.83C157.38 119.805 157.46 119.789 157.542 119.781Z" fill="#263238"/>
<path d="M148.273 11.899L145.983 12.7173L145 9.72415C143.194 4.20485 137.439 1.27397 132.151 3.13746C126.863 5.00094 124.048 11.0539 125.854 16.5732L126.836 19.5664L124.537 20.3892C123.66 20.7292 122.948 21.3941 122.549 22.2456C122.15 23.0971 122.094 24.0696 122.393 24.9612L128.767 44.4366C128.899 44.8779 129.119 45.2882 129.413 45.6429C129.707 45.9977 130.069 46.2897 130.478 46.5017C130.887 46.7137 131.334 46.8414 131.794 46.877C132.253 46.9126 132.715 46.8556 133.152 46.7092L156.888 38.219C157.776 37.8796 158.498 37.2088 158.902 36.3478C159.306 35.4868 159.361 34.5028 159.054 33.6026L152.676 14.1271C152.541 13.687 152.318 13.2788 152.021 12.9268C151.724 12.5747 151.359 12.2861 150.948 12.0782C150.537 11.8702 150.088 11.7472 149.629 11.7164C149.169 11.6856 148.708 11.7477 148.273 11.899ZM130.181 15.0122C129.694 13.5771 129.782 12.0092 130.425 10.6371C131.068 9.26505 132.218 8.19516 133.632 7.65163C134.331 7.41264 135.07 7.3168 135.807 7.36983C136.543 7.42287 137.261 7.62369 137.918 7.96032C138.575 8.29694 139.158 8.76247 139.631 9.32913C140.104 9.8958 140.458 10.552 140.673 11.2585L141.651 14.2517L131.159 18.0053L130.181 15.0122ZM143.523 32.295L145.151 37.2673C145.181 37.367 145.171 37.4744 145.124 37.5671C145.077 37.6599 144.996 37.7309 144.898 37.7654L142.616 38.5793C142.525 38.6045 142.428 38.5935 142.345 38.5487C142.262 38.504 142.2 38.4288 142.171 38.3391L140.53 33.3891C139.625 33.3398 138.757 33.0152 138.042 32.4588C137.326 31.9024 136.798 31.1408 136.528 30.2759C136.141 29.1324 136.211 27.8836 136.724 26.791C137.238 25.6984 138.154 24.8466 139.281 24.4141C139.837 24.224 140.426 24.1479 141.012 24.1902C141.599 24.2326 142.171 24.3926 142.694 24.6607C143.218 24.9288 143.682 25.2995 144.059 25.7507C144.436 26.202 144.718 26.7245 144.889 27.2872C145.175 28.1658 145.199 29.1088 144.957 30.0007C144.715 30.8925 144.218 31.6945 143.528 32.3084L143.523 32.295Z" fill="#90EE91"/>
<path d="M145.881 12.6639C145.881 12.7262 141.633 14.3228 136.35 16.2219C131.066 18.121 126.756 19.6464 126.734 19.602C126.712 19.5575 130.982 17.9475 136.27 16.044C141.558 14.1405 145.858 12.6061 145.881 12.6639Z" fill="#263238"/>
<path d="M150.924 13.4822C150.943 13.5208 150.96 13.561 150.973 13.6023C151.008 13.6913 151.048 13.8069 151.102 13.9492C151.217 14.2739 151.377 14.7231 151.578 15.2835L153.285 20.2557C153.997 22.3638 154.847 24.8633 155.789 27.6385C156.234 29.0306 156.759 30.4804 157.248 32.0059C157.51 32.792 157.623 33.62 157.582 34.4476C157.544 34.8779 157.422 35.2966 157.221 35.6795C157.008 36.0611 156.722 36.3979 156.381 36.6713C155.694 37.1729 154.931 37.5617 154.122 37.8232L151.831 38.646L147.495 40.1981L140.152 42.8132L135.193 44.5566L133.859 45.0014L133.503 45.117C133.465 45.1339 133.425 45.1445 133.383 45.1482C133.383 45.1482 133.419 45.1482 133.494 45.0948L133.841 44.9569L135.175 44.4544L140.108 42.6398L147.437 39.9713L151.764 38.4058L154.055 37.5786C154.841 37.3277 155.582 36.9507 156.247 36.4623C156.565 36.2086 156.831 35.896 157.03 35.5416C157.219 35.1875 157.332 34.7985 157.364 34.3986C157.405 33.6013 157.296 32.8033 157.044 32.0459C156.563 30.5338 156.056 29.0706 155.598 27.6785C154.673 24.8989 153.819 22.3905 153.143 20.2824C152.467 18.1743 151.898 16.4798 151.506 15.2879C151.32 14.7053 151.177 14.2517 151.062 13.9225L150.955 13.5667C150.942 13.5398 150.931 13.5115 150.924 13.4822Z" fill="#263238"/>
<path d="M138.4 7.34924C138.4 7.34924 138.164 7.23361 137.728 7.05571C137.107 6.817 136.45 6.68469 135.785 6.66433C134.799 6.63052 133.817 6.81584 132.912 7.20692C131.81 7.69391 130.868 8.48159 130.194 9.47958C129.516 10.4747 129.152 11.6507 129.149 12.8552C129.158 13.8424 129.308 14.8233 129.594 15.7683C129.825 16.5777 130.065 17.2226 130.225 17.6718C130.32 17.9 130.397 18.1348 130.457 18.3745C130.33 18.1612 130.225 17.9363 130.141 17.7029C129.959 17.2582 129.696 16.6266 129.438 15.8128C129.122 14.8578 128.949 13.861 128.927 12.8552C128.915 11.6052 129.288 10.3818 129.994 9.3506C130.692 8.31617 131.672 7.50412 132.818 7.01123C133.752 6.618 134.764 6.44454 135.776 6.50422C136.456 6.53886 137.123 6.69711 137.746 6.97121C137.913 7.04804 138.073 7.13724 138.226 7.23805C138.29 7.26585 138.348 7.30336 138.4 7.34924Z" fill="#263238"/>
<path d="M138.604 24.7521C138.675 24.7091 138.75 24.6719 138.827 24.6409C139.049 24.5405 139.28 24.4587 139.516 24.3963C139.891 24.2857 140.278 24.22 140.668 24.2006C141.199 24.1721 141.73 24.2523 142.229 24.4364C143.368 24.8366 144.413 25.9974 144.929 27.5496C145.176 28.3825 145.176 29.2695 144.929 30.1024C144.654 31.0065 144.163 31.8295 143.497 32.4996L143.523 32.3795C144.115 34.0028 144.76 35.764 145.427 37.6008L145.467 37.712L145.356 37.752L144.337 38.0901L142.113 38.8328L142.002 38.8684L141.967 38.7572C141.357 36.9159 140.69 35.1992 140.188 33.5136L140.286 33.5892C139.416 33.517 138.587 33.1907 137.902 32.6508C137.282 32.1732 136.773 31.5661 136.412 30.8718C136.086 30.2561 135.923 29.567 135.94 28.8705C135.961 28.1586 136.139 27.4601 136.461 26.8251C136.783 26.19 137.242 25.634 137.804 25.1969C138.035 25.009 138.295 24.8589 138.573 24.7521C138.322 24.9012 138.079 25.063 137.844 25.2369C137.226 25.7594 136.753 26.4317 136.47 27.1893C136.226 27.7607 136.113 28.3788 136.136 28.9993C136.16 29.6199 136.321 30.2274 136.608 30.7784C136.963 31.4463 137.459 32.0291 138.062 32.4863C138.716 32.9994 139.506 33.3087 140.335 33.3757H140.41L140.432 33.4425C140.922 35.0969 141.593 36.827 142.211 38.6771L142.065 38.606L144.288 37.8632L145.302 37.5208L145.231 37.672C144.568 35.8352 143.928 34.0695 143.341 32.4462V32.3795L143.394 32.3261C144.041 31.6839 144.523 30.8951 144.8 30.0268C145.036 29.23 145.036 28.3819 144.8 27.5852C144.315 26.0908 143.314 24.9567 142.229 24.5564C141.749 24.3712 141.236 24.285 140.721 24.3029C140.337 24.3117 139.955 24.3639 139.583 24.4586C138.92 24.6231 138.609 24.7744 138.604 24.7521Z" fill="#263238"/>
<path d="M124.857 153.168L80.4316 152.964C77.866 152.949 75.411 151.918 73.6056 150.095C71.8002 148.272 70.7922 145.807 70.8028 143.241L71.2742 31.8725C71.2795 30.6015 71.5352 29.3439 72.0267 28.1717C72.5183 26.9995 73.236 25.9357 74.1389 25.0411C75.0418 24.1464 76.1122 23.4385 77.2888 22.9577C78.4655 22.477 79.7253 22.2329 80.9964 22.2393L125.418 22.4439C127.983 22.4568 130.439 23.4875 132.245 25.3096C134.051 27.1316 135.06 29.596 135.051 32.1616L134.579 143.526C134.574 144.798 134.319 146.056 133.827 147.228C133.336 148.401 132.618 149.465 131.715 150.361C130.813 151.256 129.742 151.965 128.566 152.446C127.389 152.928 126.129 153.173 124.857 153.168Z" fill="#455A64"/>
<path d="M125.351 26.2732H116.741C116.46 26.2784 116.182 26.3389 115.925 26.4512C115.667 26.5636 115.434 26.7255 115.24 26.9279C115.045 27.1303 114.891 27.3691 114.789 27.6307C114.686 27.8922 114.636 28.1715 114.641 28.4524V30.0135C114.647 30.2942 114.597 30.5732 114.494 30.8345C114.391 31.0959 114.238 31.3344 114.043 31.5364C113.848 31.7384 113.615 31.9 113.358 32.0118C113.1 32.1237 112.823 32.1837 112.542 32.1883L95.7575 32.1127C95.1897 32.0975 94.6511 31.8577 94.26 31.4457C93.8689 31.0338 93.6573 30.4835 93.6716 29.9156V28.3546C93.686 27.7875 93.475 27.2378 93.0848 26.826C92.6947 26.4142 92.1572 26.1738 91.5902 26.1575H88.5615L81.023 26.1219C79.23 26.1113 77.5058 26.8115 76.2279 28.0694C74.9501 29.3272 74.2227 31.0402 74.2051 32.8332L73.7603 141.538C73.7562 142.428 73.9274 143.309 74.264 144.132C74.6006 144.956 75.0961 145.705 75.7222 146.337C76.3483 146.969 77.0927 147.471 77.9129 147.815C78.7332 148.159 79.6132 148.339 80.5027 148.343L124.835 148.547C125.725 148.551 126.607 148.38 127.431 148.043C128.255 147.706 129.005 147.211 129.637 146.584C130.269 145.958 130.772 145.213 131.116 144.392C131.461 143.571 131.64 142.691 131.644 141.8L132.089 33.0956C132.099 31.2975 131.396 29.5688 130.132 28.2895C128.869 27.0102 127.149 26.2849 125.351 26.2732Z" fill="white"/>
<path d="M119.387 134.044L86.4224 133.902C86.0799 133.902 85.8042 133.528 85.8086 133.075L85.8442 124.451C85.8442 124.006 86.1244 123.624 86.4669 123.624L119.431 123.775C119.621 123.808 119.791 123.912 119.905 124.067C120.02 124.222 120.07 124.416 120.045 124.607L120.014 133.221C120.014 133.679 119.729 134.049 119.387 134.044Z" fill="#90EE91"/>
<path d="M97.8669 134.235C97.0131 134.235 96.1756 133.934 95.7528 133.495L95.9886 133.031C96.3951 133.43 97.1188 133.722 97.8669 133.722C98.9321 133.722 99.3956 133.275 99.3956 132.714C99.3956 131.153 95.891 132.112 95.891 130.006C95.891 129.169 96.5415 128.445 97.9889 128.445C98.6313 128.445 99.298 128.632 99.7534 128.949L99.5501 129.429C99.0622 129.112 98.493 128.957 97.9889 128.957C96.9481 128.957 96.4846 129.421 96.4846 129.99C96.4846 131.551 99.9892 130.608 99.9892 132.682C99.9892 133.519 99.3224 134.235 97.8669 134.235ZM101.3 134.186V128.494H101.902V134.186H101.3ZM107.917 128.494H108.511V134.186H108.015L104.356 129.567V134.186H103.754V128.494H104.25L107.917 133.113V128.494ZM114.377 133.259V131.34H114.955V133.511C114.418 133.991 113.654 134.235 112.865 134.235C111.133 134.235 109.864 133.007 109.864 131.34C109.864 129.673 111.133 128.445 112.873 128.445C113.735 128.445 114.483 128.722 114.987 129.266L114.613 129.649C114.133 129.177 113.564 128.982 112.897 128.982C111.491 128.982 110.458 129.982 110.458 131.34C110.458 132.69 111.491 133.698 112.889 133.698C113.434 133.698 113.938 133.576 114.377 133.259ZM121.079 134.235C119.623 134.235 118.737 133.389 118.737 131.755V128.494H119.339V131.73C119.339 133.08 119.973 133.698 121.079 133.698C122.193 133.698 122.827 133.08 122.827 131.73V128.494H123.412V131.755C123.412 133.389 122.534 134.235 121.079 134.235ZM127.356 128.494C128.803 128.494 129.682 129.226 129.682 130.445C129.682 131.657 128.803 132.389 127.356 132.389H125.827V134.186H125.226V128.494H127.356ZM127.34 131.86C128.478 131.86 129.08 131.34 129.08 130.445C129.08 129.535 128.478 129.014 127.34 129.014H125.827V131.86H127.34Z" fill="#E8E8E3"/>
<path d="M92.9973 58.2282L81.5586 58.1763L81.5491 60.2755L92.9878 60.3274L92.9973 58.2282Z" fill="#90EE91"/>
<path opacity="0.1" d="M92.9973 58.2282L81.5586 58.1763L81.5491 60.2755L92.9878 60.3274L92.9973 58.2282Z" fill="black"/>
<path d="M126.529 71.1169C126.619 71.1079 126.707 71.0869 126.792 71.0547C126.915 71.0066 127.022 70.9247 127.101 70.8185C127.179 70.7123 127.226 70.586 127.237 70.4543C127.237 69.7471 127.237 68.7153 127.237 67.39C127.237 66.7273 127.237 65.9846 127.237 65.1662C127.237 64.9661 127.237 64.7571 127.237 64.548C127.266 64.3452 127.221 64.1387 127.112 63.9654C127.051 63.8824 126.971 63.8146 126.879 63.7675C126.787 63.7205 126.686 63.6953 126.583 63.6941H125.889H119.462L82.2638 63.5563C82.1686 63.5546 82.0744 63.576 81.9893 63.6186C81.9041 63.6612 81.8305 63.7237 81.7746 63.8009C81.6672 63.9748 81.6262 64.1817 81.659 64.3835C81.659 64.8282 81.659 65.273 81.659 65.7177C81.659 66.6072 81.659 67.4967 81.659 68.3862C81.659 68.831 81.659 69.2757 81.659 69.7204C81.6405 69.9276 81.6405 70.1359 81.659 70.3431C81.6823 70.4319 81.7258 70.5142 81.7859 70.5835C81.8461 70.6529 81.9213 70.7076 82.0059 70.7434C82.0935 70.7782 82.1873 70.7949 82.2816 70.7923H84.5454L94.4232 70.8456L111.146 70.9479L122.42 71.0369L125.484 71.0725H126.28C126.463 71.0725 126.552 71.0725 126.552 71.0725H126.28H125.484H122.42H111.146L94.4232 71.0191L84.5454 70.9791H82.2816C82.157 70.9841 82.0328 70.9629 81.9169 70.9168C81.7998 70.8668 81.6957 70.7908 81.6124 70.6944C81.5292 70.5981 81.4691 70.484 81.4366 70.3609C81.4109 70.2441 81.4019 70.1243 81.4099 70.0051V69.676C81.4099 69.2312 81.4099 68.7865 81.4099 68.3417C81.4099 67.4522 81.4099 66.5627 81.4099 65.6733C81.4099 65.2285 81.4099 64.7838 81.4099 64.339C81.4014 64.2206 81.4014 64.1017 81.4099 63.9832C81.4266 63.8524 81.4772 63.7282 81.5567 63.623C81.6334 63.5156 81.735 63.4284 81.8527 63.3688C81.9704 63.3091 82.1008 63.2789 82.2327 63.2805L119.431 63.4851L125.858 63.5296H126.552C126.674 63.5297 126.794 63.5592 126.903 63.6157C127.011 63.6723 127.104 63.7541 127.174 63.8542C127.3 64.0476 127.35 64.28 127.317 64.508C127.317 64.717 127.317 64.9261 127.317 65.1262C127.317 65.9357 127.317 66.6784 127.317 67.3499C127.317 68.6842 127.285 69.7071 127.277 70.4187C127.266 70.5555 127.216 70.6864 127.133 70.7959C127.051 70.9054 126.938 70.989 126.81 71.0369C126.725 71.089 126.628 71.1168 126.529 71.1169Z" fill="#E0E0E0"/>
<path d="M105.915 65.7888H84.9946V67.7502H105.915V65.7888Z" fill="#90EE91"/>
<path opacity="0.2" d="M105.915 65.7888H84.9946V67.7502H105.915V65.7888Z" fill="white"/>
<path d="M92.9195 77.3784L81.4807 77.3265L81.4712 79.4257L92.9099 79.4776L92.9195 77.3784Z" fill="#90EE91"/>
<path opacity="0.1" d="M92.9195 77.3784L81.4807 77.3265L81.4712 79.4257L92.9099 79.4776L92.9195 77.3784Z" fill="black"/>
<path d="M126.24 90.2677C126.33 90.2566 126.419 90.2403 126.507 90.2187C126.632 90.1792 126.746 90.1135 126.843 90.026C126.939 89.9386 127.016 89.8314 127.068 89.7117C127.138 89.5322 127.165 89.3388 127.148 89.1469C127.148 88.9334 127.148 88.7022 127.148 88.4442C127.148 87.9283 127.148 87.3412 127.148 86.6652V83.8411C127.169 83.6366 127.124 83.4308 127.019 83.254C126.909 83.0728 126.737 82.9382 126.534 82.876C126.312 82.8365 126.087 82.8245 125.862 82.8404H119.463L82.393 82.7025C82.1936 82.703 82.0012 82.7759 81.8514 82.9076C81.7017 83.0393 81.605 83.2209 81.5791 83.4186C81.5791 83.8411 81.5791 84.3081 81.5791 84.7528C81.5791 85.6423 81.5791 86.5318 81.5791 87.4213C81.5791 87.866 81.5791 88.3108 81.5791 88.7555C81.5625 88.9634 81.5715 89.1725 81.6058 89.3782C81.6613 89.5585 81.7756 89.7151 81.9304 89.8229C82.0947 89.9272 82.2877 89.977 82.4819 89.9652H83.1001H84.3854L94.2277 90.0142L110.892 90.1165L122.127 90.2054L125.182 90.241H122.127H110.892L94.2188 90.2232L84.3765 90.1876H82.4419C82.2013 90.2019 81.9626 90.1379 81.7614 90.0053C81.5591 89.8651 81.4114 89.6593 81.3434 89.4227C81.3035 89.1967 81.2916 88.9666 81.3078 88.7377C81.3078 88.293 81.3078 87.8482 81.3078 87.4035C81.3078 86.514 81.3078 85.6245 81.3078 84.735C81.3078 84.2903 81.3078 83.8455 81.3078 83.4008C81.3403 83.1465 81.4643 82.9127 81.6567 82.7433C81.849 82.5738 82.0966 82.4803 82.353 82.4802L119.423 82.6847L125.822 82.7337C126.061 82.719 126.3 82.7355 126.534 82.7826C126.765 82.8581 126.96 83.0165 127.081 83.2273C127.196 83.4232 127.246 83.6506 127.223 83.8767C127.223 84.0857 127.223 84.2903 127.223 84.4949C127.223 85.2999 127.223 86.0381 127.223 86.7186C127.223 87.3991 127.223 87.9728 127.223 88.4976C127.223 88.7511 127.223 88.9868 127.223 89.2047C127.24 89.4036 127.208 89.6035 127.13 89.7873C127.072 89.9101 126.989 90.0189 126.885 90.1064C126.782 90.1939 126.66 90.258 126.53 90.2943C126.432 90.3024 126.335 90.2933 126.24 90.2677Z" fill="#E0E0E0"/>
<path d="M92.8333 97.3603L81.3945 97.3084L81.385 99.4076L92.8238 99.4595L92.8333 97.3603Z" fill="#90EE91"/>
<path opacity="0.1" d="M92.8333 97.3603L81.3945 97.3084L81.385 99.4076L92.8238 99.4595L92.8333 97.3603Z" fill="black"/>
<path d="M126.151 110.241C126.241 110.231 126.33 110.214 126.418 110.192C126.542 110.153 126.656 110.088 126.752 110.001C126.849 109.915 126.926 109.808 126.979 109.69C127.048 109.51 127.076 109.317 127.059 109.125C127.059 108.907 127.059 108.68 127.059 108.418C127.059 107.906 127.059 107.315 127.059 106.639V103.815C127.08 103.61 127.035 103.404 126.93 103.228C126.817 103.05 126.646 102.917 126.445 102.854C126.224 102.813 125.998 102.799 125.773 102.814H119.373L82.3039 102.676C82.1045 102.677 81.912 102.749 81.7623 102.881C81.6126 103.013 81.5159 103.194 81.49 103.392C81.49 103.837 81.49 104.282 81.49 104.726C81.49 105.616 81.49 106.505 81.49 107.395C81.49 107.84 81.49 108.284 81.49 108.729C81.4734 108.935 81.4824 109.143 81.5167 109.347C81.5699 109.529 81.6847 109.686 81.8413 109.792C82.0046 109.899 82.1984 109.949 82.3928 109.934H84.3275L94.1697 109.988L110.834 110.09L122.069 110.179L125.124 110.215H122.069H110.834L94.1697 110.166L84.3275 110.126H82.3928C82.1521 110.142 81.9127 110.078 81.7124 109.943C81.51 109.803 81.3623 109.597 81.2943 109.361C81.2544 109.135 81.2425 108.905 81.2587 108.676C81.2587 108.231 81.2587 107.786 81.2587 107.341C81.2587 106.452 81.2587 105.562 81.2587 104.673C81.2587 104.228 81.2587 103.783 81.2587 103.317C81.2902 103.063 81.4133 102.829 81.6049 102.659C81.7966 102.49 82.0436 102.396 82.2994 102.396L119.369 102.6L125.769 102.649C126.007 102.635 126.246 102.651 126.481 102.698C126.712 102.774 126.906 102.932 127.028 103.143C127.143 103.339 127.192 103.566 127.17 103.792C127.17 104.001 127.17 104.21 127.17 104.411C127.17 105.216 127.17 105.954 127.17 106.634C127.17 107.315 127.17 107.888 127.17 108.413C127.17 108.667 127.17 108.903 127.17 109.12C127.187 109.319 127.155 109.519 127.076 109.703C127.019 109.826 126.935 109.935 126.832 110.022C126.728 110.11 126.607 110.174 126.476 110.21C126.372 110.246 126.261 110.256 126.151 110.241Z" fill="#E0E0E0"/>
<path d="M105.469 85.4942L84.5483 85.3992L84.5394 87.3605L105.46 87.4555L105.469 85.4942Z" fill="#90EE91"/>
<path opacity="0.2" d="M105.469 85.4942L84.5483 85.3992L84.5394 87.3605L105.46 87.4555L105.469 85.4942Z" fill="white"/>
<path d="M86.44 106.612C86.4269 106.791 86.3615 106.962 86.2521 107.104C86.1426 107.246 85.9938 107.353 85.8242 107.411C85.6545 107.47 85.4715 107.477 85.2978 107.432C85.1241 107.388 84.9673 107.293 84.847 107.16C84.7266 107.027 84.6479 106.861 84.6207 106.684C84.5935 106.507 84.6189 106.325 84.6938 106.162C84.7687 105.999 84.8899 105.862 85.0422 105.767C85.1944 105.672 85.3712 105.624 85.5505 105.629C85.7983 105.643 86.0306 105.754 86.1971 105.938C86.3637 106.122 86.4509 106.364 86.44 106.612Z" fill="#90EE91"/>
<path d="M89.273 106.625C89.2818 106.751 89.2646 106.877 89.2226 106.995C89.1807 107.114 89.1148 107.222 89.0291 107.314C88.9433 107.406 88.8396 107.479 88.7243 107.529C88.6091 107.58 88.4847 107.605 88.359 107.605C88.2334 107.605 88.109 107.58 87.9937 107.529C87.8785 107.479 87.7748 107.406 87.689 107.314C87.6033 107.222 87.5374 107.114 87.4954 106.995C87.4535 106.877 87.4363 106.751 87.4451 106.625C87.4363 106.5 87.4535 106.374 87.4954 106.256C87.5374 106.137 87.6033 106.029 87.689 105.937C87.7748 105.845 87.8785 105.772 87.9937 105.721C88.109 105.671 88.2334 105.645 88.359 105.645C88.4847 105.645 88.6091 105.671 88.7243 105.721C88.8396 105.772 88.9433 105.845 89.0291 105.937C89.1148 106.029 89.1807 106.137 89.2226 106.256C89.2646 106.374 89.2818 106.5 89.273 106.625Z" fill="#90EE91"/>
<path d="M92.1107 106.639C92.0975 106.818 92.0322 106.989 91.9227 107.131C91.8132 107.273 91.6645 107.38 91.4948 107.438C91.3252 107.496 91.1422 107.504 90.9685 107.459C90.7948 107.414 90.638 107.32 90.5176 107.187C90.3973 107.054 90.3186 106.888 90.2914 106.711C90.2642 106.534 90.2896 106.352 90.3645 106.189C90.4394 106.026 90.5605 105.889 90.7128 105.794C90.8651 105.699 91.0419 105.651 91.2212 105.656C91.4685 105.671 91.7002 105.782 91.8665 105.966C92.0328 106.15 92.1204 106.391 92.1107 106.639Z" fill="#90EE91"/>
<path d="M94.9437 106.652C94.9305 106.831 94.8652 107.002 94.7557 107.144C94.6462 107.286 94.4975 107.393 94.3278 107.451C94.1582 107.51 93.9752 107.517 93.8015 107.472C93.6278 107.428 93.471 107.333 93.3506 107.2C93.2303 107.067 93.1516 106.901 93.1244 106.724C93.0972 106.547 93.1226 106.365 93.1975 106.202C93.2724 106.039 93.3935 105.902 93.5458 105.807C93.6981 105.712 93.8749 105.664 94.0542 105.669C94.3015 105.684 94.5332 105.795 94.6995 105.979C94.8658 106.163 94.9534 106.404 94.9437 106.652Z" fill="#90EE91"/>
<path d="M97.7767 106.661C97.7645 106.84 97.6998 107.012 97.5908 107.155C97.4818 107.297 97.3333 107.405 97.1637 107.464C96.9941 107.523 96.8109 107.531 96.6368 107.486C96.4628 107.442 96.3056 107.348 96.1848 107.215C96.064 107.082 95.9849 106.916 95.9574 106.739C95.9298 106.561 95.9551 106.38 96.0299 106.217C96.1047 106.053 96.2259 105.916 96.3783 105.821C96.5308 105.726 96.7077 105.678 96.8873 105.683C97.1338 105.698 97.3648 105.808 97.531 105.991C97.6971 106.174 97.7853 106.414 97.7767 106.661Z" fill="#90EE91"/>
<path d="M100.614 106.674C100.602 106.853 100.538 107.023 100.43 107.166C100.322 107.308 100.175 107.416 100.007 107.476C99.8382 107.535 99.656 107.545 99.4825 107.502C99.309 107.46 99.1516 107.367 99.0298 107.237C98.908 107.106 98.8271 106.943 98.797 106.766C98.7669 106.59 98.789 106.409 98.8605 106.246C98.9319 106.082 99.0497 105.943 99.1993 105.845C99.3489 105.747 99.5238 105.695 99.7024 105.696C99.9529 105.705 100.19 105.813 100.36 105.997C100.531 106.18 100.623 106.424 100.614 106.674Z" fill="#90EE91"/>
<path d="M103.447 106.688C103.456 106.813 103.439 106.939 103.397 107.057C103.355 107.176 103.289 107.284 103.203 107.376C103.117 107.468 103.014 107.542 102.898 107.592C102.783 107.642 102.659 107.668 102.533 107.668C102.407 107.668 102.283 107.642 102.168 107.592C102.053 107.542 101.949 107.468 101.863 107.376C101.777 107.284 101.711 107.176 101.67 107.057C101.628 106.939 101.61 106.813 101.619 106.688C101.61 106.562 101.628 106.437 101.67 106.318C101.711 106.2 101.777 106.091 101.863 105.999C101.949 105.907 102.053 105.834 102.168 105.784C102.283 105.734 102.407 105.708 102.533 105.708C102.659 105.708 102.783 105.734 102.898 105.784C103.014 105.834 103.117 105.907 103.203 105.999C103.289 106.091 103.355 106.2 103.397 106.318C103.439 106.437 103.456 106.562 103.447 106.688Z" fill="#90EE91"/>
<path d="M106.28 106.701C106.268 106.879 106.204 107.05 106.096 107.192C105.988 107.335 105.841 107.442 105.673 107.502C105.504 107.562 105.322 107.571 105.149 107.529C104.975 107.486 104.818 107.394 104.696 107.263C104.574 107.133 104.493 106.969 104.463 106.793C104.433 106.617 104.455 106.436 104.526 106.272C104.598 106.109 104.716 105.969 104.865 105.872C105.015 105.774 105.19 105.722 105.368 105.723C105.619 105.732 105.856 105.84 106.026 106.024C106.197 106.207 106.289 106.451 106.28 106.701Z" fill="#90EE91"/>
<path d="M109.113 106.714C109.101 106.894 109.036 107.065 108.927 107.208C108.818 107.351 108.67 107.458 108.5 107.517C108.33 107.576 108.147 107.584 107.973 107.54C107.799 107.495 107.642 107.401 107.521 107.268C107.4 107.135 107.321 106.97 107.294 106.792C107.266 106.615 107.291 106.433 107.366 106.27C107.441 106.107 107.562 105.969 107.715 105.874C107.867 105.779 108.044 105.731 108.224 105.736C108.47 105.751 108.701 105.861 108.867 106.044C109.034 106.227 109.122 106.467 109.113 106.714Z" fill="#90EE91"/>
<g opacity="0.2">
<path d="M86.44 106.612C86.4269 106.791 86.3615 106.962 86.2521 107.104C86.1426 107.246 85.9938 107.353 85.8242 107.411C85.6545 107.47 85.4715 107.477 85.2978 107.432C85.1241 107.388 84.9673 107.293 84.847 107.16C84.7266 107.027 84.6479 106.861 84.6207 106.684C84.5935 106.507 84.6189 106.325 84.6938 106.162C84.7687 105.999 84.8899 105.862 85.0422 105.767C85.1944 105.672 85.3712 105.624 85.5505 105.629C85.7983 105.643 86.0306 105.754 86.1971 105.938C86.3637 106.122 86.4509 106.364 86.44 106.612Z" fill="white"/>
<path d="M89.273 106.625C89.2818 106.751 89.2646 106.877 89.2226 106.995C89.1807 107.114 89.1148 107.222 89.0291 107.314C88.9433 107.406 88.8396 107.479 88.7243 107.529C88.6091 107.58 88.4847 107.605 88.359 107.605C88.2334 107.605 88.109 107.58 87.9937 107.529C87.8785 107.479 87.7748 107.406 87.689 107.314C87.6033 107.222 87.5374 107.114 87.4954 106.995C87.4535 106.877 87.4363 106.751 87.4451 106.625C87.4363 106.5 87.4535 106.374 87.4954 106.256C87.5374 106.137 87.6033 106.029 87.689 105.937C87.7748 105.845 87.8785 105.772 87.9937 105.721C88.109 105.671 88.2334 105.645 88.359 105.645C88.4847 105.645 88.6091 105.671 88.7243 105.721C88.8396 105.772 88.9433 105.845 89.0291 105.937C89.1148 106.029 89.1807 106.137 89.2226 106.256C89.2646 106.374 89.2818 106.5 89.273 106.625Z" fill="white"/>
<path d="M92.1104 106.639C92.0973 106.818 92.0319 106.989 91.9225 107.131C91.813 107.273 91.6642 107.38 91.4946 107.438C91.325 107.496 91.1419 107.504 90.9682 107.459C90.7945 107.414 90.6377 107.32 90.5174 107.187C90.397 107.054 90.3184 106.888 90.2911 106.711C90.2639 106.534 90.2893 106.352 90.3642 106.189C90.4392 106.026 90.5603 105.889 90.7126 105.794C90.8648 105.699 91.0416 105.651 91.2209 105.656C91.4683 105.671 91.6999 105.782 91.8662 105.966C92.0325 106.15 92.1202 106.391 92.1104 106.639Z" fill="white"/>
<path d="M94.9434 106.652C94.9303 106.831 94.8649 107.002 94.7555 107.144C94.646 107.286 94.4972 107.393 94.3276 107.451C94.158 107.51 93.9749 107.517 93.8012 107.472C93.6275 107.428 93.4708 107.333 93.3504 107.2C93.23 107.067 93.1514 106.901 93.1241 106.724C93.0969 106.547 93.1223 106.365 93.1973 106.202C93.2722 106.039 93.3933 105.902 93.5456 105.807C93.6979 105.712 93.8746 105.664 94.0539 105.669C94.3013 105.684 94.533 105.795 94.6992 105.979C94.8655 106.163 94.9532 106.404 94.9434 106.652Z" fill="white"/>
<path d="M97.7765 106.661C97.7642 106.84 97.6996 107.012 97.5906 107.155C97.4816 107.297 97.333 107.405 97.1634 107.464C96.9938 107.523 96.8106 107.531 96.6366 107.486C96.4625 107.442 96.3053 107.348 96.1845 107.215C96.0637 107.082 95.9847 106.916 95.9571 106.739C95.9296 106.561 95.9548 106.38 96.0297 106.217C96.1045 106.053 96.2257 105.916 96.3781 105.821C96.5305 105.726 96.7075 105.678 96.887 105.683C97.1336 105.698 97.3646 105.808 97.5307 105.991C97.6969 106.174 97.7851 106.414 97.7765 106.661Z" fill="white"/>
<path d="M100.614 106.674C100.602 106.853 100.538 107.023 100.43 107.166C100.322 107.308 100.175 107.416 100.006 107.476C99.838 107.535 99.6558 107.545 99.4823 107.502C99.3087 107.46 99.1514 107.367 99.0296 107.237C98.9078 107.106 98.8269 106.943 98.7968 106.766C98.7667 106.59 98.7887 106.409 98.8602 106.246C98.9317 106.082 99.0495 105.943 99.1991 105.845C99.3487 105.747 99.5235 105.695 99.7022 105.696C99.9527 105.705 100.189 105.813 100.36 105.997C100.531 106.18 100.622 106.424 100.614 106.674Z" fill="white"/>
<path d="M103.447 106.688C103.456 106.813 103.439 106.939 103.397 107.057C103.355 107.176 103.289 107.284 103.203 107.376C103.117 107.468 103.014 107.542 102.898 107.592C102.783 107.642 102.659 107.668 102.533 107.668C102.407 107.668 102.283 107.642 102.168 107.592C102.053 107.542 101.949 107.468 101.863 107.376C101.777 107.284 101.711 107.176 101.67 107.057C101.628 106.939 101.61 106.813 101.619 106.688C101.61 106.562 101.628 106.437 101.67 106.318C101.711 106.2 101.777 106.091 101.863 105.999C101.949 105.907 102.053 105.834 102.168 105.784C102.283 105.734 102.407 105.708 102.533 105.708C102.659 105.708 102.783 105.734 102.898 105.784C103.014 105.834 103.117 105.907 103.203 105.999C103.289 106.091 103.355 106.2 103.397 106.318C103.439 106.437 103.456 106.562 103.447 106.688Z" fill="white"/>
<path d="M106.28 106.701C106.268 106.879 106.204 107.05 106.096 107.192C105.988 107.335 105.841 107.442 105.673 107.502C105.504 107.562 105.322 107.571 105.149 107.529C104.975 107.486 104.818 107.394 104.696 107.263C104.574 107.133 104.493 106.969 104.463 106.793C104.433 106.617 104.455 106.436 104.526 106.272C104.598 106.109 104.716 105.969 104.865 105.872C105.015 105.774 105.19 105.722 105.368 105.723C105.619 105.732 105.856 105.84 106.026 106.024C106.197 106.207 106.289 106.451 106.28 106.701Z" fill="white"/>
<path d="M109.113 106.714C109.101 106.894 109.036 107.065 108.927 107.208C108.818 107.351 108.67 107.458 108.5 107.517C108.33 107.576 108.147 107.584 107.973 107.54C107.799 107.495 107.642 107.401 107.521 107.268C107.4 107.135 107.321 106.97 107.294 106.792C107.266 106.615 107.291 106.433 107.366 106.27C107.441 106.107 107.562 105.969 107.715 105.874C107.867 105.779 108.044 105.731 108.224 105.736C108.47 105.751 108.701 105.861 108.867 106.044C109.034 106.227 109.122 106.467 109.113 106.714Z" fill="white"/>
</g>
<path d="M105.088 42.5108C105.397 42.3748 105.659 42.1509 105.842 41.867C106.025 41.5831 106.12 41.2518 106.116 40.9142C106.127 40.6948 106.094 40.4753 106.018 40.2691C105.942 40.063 105.824 39.8745 105.673 39.7151C105.522 39.5557 105.34 39.4287 105.138 39.342C104.936 39.2552 104.719 39.2105 104.499 39.2105C104.279 39.2105 104.062 39.2552 103.86 39.342C103.658 39.4287 103.476 39.5557 103.325 39.7151C103.173 39.8745 103.056 40.063 102.98 40.2691C102.904 40.4753 102.871 40.6948 102.882 40.9142C102.875 41.2551 102.97 41.5904 103.154 41.8778C103.337 42.1651 103.602 42.3916 103.914 42.5286C101.423 42.9022 101.535 45.6063 101.535 45.6063L107.423 45.633C107.423 45.633 107.561 42.88 105.088 42.5108Z" fill="#90EE91"/>
<path opacity="0.1" d="M105.088 42.5108C105.397 42.3748 105.659 42.1509 105.842 41.867C106.025 41.5831 106.12 41.2518 106.116 40.9142C106.127 40.6948 106.094 40.4753 106.018 40.2691C105.942 40.063 105.824 39.8745 105.673 39.7151C105.522 39.5557 105.34 39.4287 105.138 39.342C104.936 39.2552 104.719 39.2105 104.499 39.2105C104.279 39.2105 104.062 39.2552 103.86 39.342C103.658 39.4287 103.476 39.5557 103.325 39.7151C103.173 39.8745 103.056 40.063 102.98 40.2691C102.904 40.4753 102.871 40.6948 102.882 40.9142C102.875 41.2551 102.97 41.5904 103.154 41.8778C103.337 42.1651 103.602 42.3916 103.914 42.5286C101.423 42.9022 101.535 45.6063 101.535 45.6063L107.423 45.633C107.423 45.633 107.561 42.88 105.088 42.5108Z" fill="black"/>
<path d="M114.657 47.377L93.6694 47.2818L93.6581 49.7901L114.645 49.8854L114.657 47.377Z" fill="#90EE91"/>
<path opacity="0.2" d="M114.657 47.377L93.6694 47.2818L93.6581 49.7901L114.645 49.8854L114.657 47.377Z" fill="white"/>
<path d="M37.5002 60.3763H37.2912L36.6863 60.4208C36.359 60.4405 36.0335 60.4836 35.7123 60.5498C35.5043 60.579 35.298 60.6191 35.0941 60.6698L34.4048 60.8611C33.2315 61.2211 32.1245 61.7693 31.127 62.4844C29.8092 63.441 28.7088 64.6657 27.8982 66.078C27.4217 66.8921 27.0426 67.7593 26.7685 68.6619C26.4805 69.6429 26.3147 70.6557 26.2748 71.6773C26.2483 72.214 26.2572 72.7518 26.3015 73.2873C26.3015 73.5586 26.3771 73.8299 26.4127 74.1056C26.4426 74.3836 26.4947 74.6587 26.5684 74.9284C26.9683 76.7131 27.7798 78.3796 28.938 79.795C30.0963 81.2104 31.5693 82.3355 33.2396 83.0806C34.4484 83.6022 35.7441 83.8933 37.0599 83.939C38.419 84.0137 39.7793 83.8187 41.0626 83.3652L41.454 83.2185H41.5074L41.5519 83.2452L47.1601 86.0915L46.9956 86.2339C46.3952 84.3748 45.817 82.5736 45.2566 80.8435V80.7768L45.3055 80.7279C46.666 79.3576 47.676 77.6794 48.2497 75.8357C48.7694 74.1501 48.9211 72.3725 48.6945 70.6233C48.4929 69.0687 47.9931 67.5676 47.2224 66.2025C46.5581 65.0298 45.7011 63.9774 44.6873 63.0893C43.851 62.3863 42.9253 61.7971 41.9343 61.337C41.1846 61.0136 40.4037 60.7677 39.6039 60.6031L38.7144 60.4564L38.0695 60.4074L37.6781 60.3808H37.5447C37.589 60.3758 37.6338 60.3758 37.6781 60.3808H38.0739L38.7188 60.4074L39.6083 60.5364C40.4181 60.6889 41.2096 60.926 41.9699 61.2436C42.9779 61.6982 43.9203 62.2861 44.7718 62.9914C45.8042 63.8756 46.6794 64.9282 47.3602 66.1046C48.1528 67.4844 48.668 69.0058 48.8768 70.5832C49.1223 72.3595 48.9812 74.1679 48.4632 75.8846C47.8857 77.7667 46.8601 79.4806 45.4745 80.8791L45.5012 80.7635C46.0616 82.4935 46.6442 84.2948 47.2491 86.1494L47.3336 86.4207L47.0801 86.2917L41.4718 83.4497H41.5697L41.1694 83.5965C39.8614 84.0568 38.4758 84.2562 37.0911 84.1836C35.7469 84.1324 34.4241 83.8307 33.1906 83.2941C30.8378 82.2864 28.8803 80.5351 27.618 78.3085C27.0371 77.2801 26.6129 76.1709 26.3593 75.0174C26.2899 74.7407 26.2379 74.46 26.2037 74.1768C26.1681 73.8966 26.1103 73.6209 26.0969 73.3451C25.9766 71.7626 26.1438 70.1714 26.5906 68.6486C26.8715 67.7336 27.2612 66.8556 27.7514 66.0335C28.5813 64.6084 29.7047 63.3759 31.047 62.4177C32.0608 61.7008 33.1864 61.1567 34.3781 60.8077L35.0764 60.6298C35.2819 60.5822 35.4897 60.545 35.699 60.5186C36.0235 60.4585 36.3521 60.4229 36.6819 60.4119L37.2912 60.3897C37.3605 60.3803 37.4303 60.3759 37.5002 60.3763Z" fill="#90EE91"/>
<path d="M40.0353 70.7478H39.2125L37.4335 68.2483V66.6072C37.4335 66.6072 36.1615 66.5271 36.3128 68.6753C36.464 70.8234 36.3128 70.2764 36.3128 70.2764C36.3128 70.2764 33.6132 70.2764 33.3908 70.521C33.1684 70.7656 33.1551 73.3718 33.1239 74.8261C33.1069 75.1767 33.2075 75.5229 33.4097 75.8098C33.612 76.0966 33.9043 76.3077 34.2402 76.4094C34.3344 76.4355 34.4316 76.449 34.5293 76.4494C35.2053 76.4494 38.6432 75.9024 38.6432 75.9024H40.062L40.0353 70.7478Z" fill="#90EE91"/>
<path d="M42.388 70.3075L41.881 75.9291H40.4756V70.4231L42.388 70.3075Z" fill="#90EE91"/>
<path d="M59.1504 184.754V180.951L52.3325 180.902L52.2747 186.653L52.6972 186.684C54.5784 186.804 62.2681 186.982 63.5312 186.591C64.9366 186.155 59.1504 184.754 59.1504 184.754Z" fill="#90EE91"/>
<path d="M63.6913 186.235C63.6913 186.297 61.1384 186.351 57.9941 186.351C54.8497 186.351 52.2969 186.297 52.2969 186.235C52.2969 186.173 54.8497 186.119 57.9941 186.119C61.1384 186.119 63.6913 186.173 63.6913 186.235Z" fill="#263238"/>
<path d="M59.2706 185.532C59.2127 185.501 59.2706 185.301 59.4084 185.088C59.5463 184.874 59.7331 184.785 59.7776 184.83C59.822 184.874 59.7286 185.043 59.5952 185.225C59.4618 185.408 59.3284 185.563 59.2706 185.532Z" fill="#263238"/>
<path d="M59.7063 185.781C59.6441 185.781 59.6752 185.532 59.8086 185.297C59.9421 185.061 60.12 184.919 60.1689 184.954C60.2178 184.99 60.1378 185.19 60.0132 185.399C59.8887 185.608 59.7642 185.804 59.7063 185.781Z" fill="#263238"/>
<path d="M54.3517 186.217C54.325 186.217 54.2228 186.137 54.076 185.968C53.8968 185.751 53.6973 185.551 53.48 185.372C53.2664 185.201 53.0119 185.09 52.7417 185.047C52.5327 185.021 52.3993 185.047 52.386 185.021C52.3726 184.994 52.5016 184.901 52.7462 184.883C53.069 184.876 53.3839 184.983 53.6357 185.185C53.8716 185.378 54.0705 185.611 54.2228 185.875C54.325 186.07 54.3784 186.199 54.3517 186.217Z" fill="#263238"/>
<path d="M59.2927 184.816C59.3238 184.87 59.2082 185.003 59.0125 185.074C58.8168 185.145 58.6433 185.119 58.6344 185.074C58.6255 185.03 58.7634 184.936 58.9324 184.874C59.1014 184.812 59.2571 184.763 59.2927 184.816Z" fill="#263238"/>
<path d="M59.1861 184.447C59.1861 184.514 59.0082 184.567 58.7769 184.572C58.5457 184.576 58.3633 184.523 58.3678 184.46C58.3722 184.398 58.5545 184.34 58.7769 184.336C58.9993 184.332 59.1772 184.385 59.1861 184.447Z" fill="#263238"/>
<path d="M75.9397 184.754V180.951L69.1218 180.902L69.064 186.595L69.4865 186.626C71.3677 186.746 79.0619 186.982 80.3205 186.591C81.7259 186.155 75.9397 184.754 75.9397 184.754Z" fill="#90EE91"/>
<path d="M80.4805 186.244C80.4805 186.306 77.9321 186.36 74.7833 186.36C71.6345 186.36 69.0906 186.306 69.0906 186.244C69.0906 186.182 71.639 186.128 74.7833 186.128C77.9277 186.128 80.4805 186.182 80.4805 186.244Z" fill="#263238"/>
<path d="M76.0597 185.532C76.0063 185.501 76.0597 185.301 76.1976 185.088C76.3354 184.874 76.5222 184.785 76.5667 184.83C76.6112 184.874 76.5178 185.043 76.3843 185.225C76.2509 185.408 76.1175 185.563 76.0597 185.532Z" fill="#263238"/>
<path d="M76.4955 185.781C76.4377 185.781 76.4643 185.532 76.6022 185.297C76.7401 185.061 76.9135 184.919 76.9625 184.954C77.0114 184.99 76.9269 185.19 76.8024 185.399C76.6778 185.608 76.5577 185.804 76.4955 185.781Z" fill="#263238"/>
<path d="M71.1408 186.217C71.1141 186.217 71.0163 186.137 70.865 185.968C70.6859 185.751 70.4863 185.551 70.2691 185.372C70.0555 185.201 69.801 185.09 69.5308 185.047C69.3262 185.021 69.1884 185.047 69.175 185.021C69.1617 184.994 69.2906 184.901 69.5353 184.883C69.8581 184.876 70.173 184.983 70.4247 185.185C70.6619 185.376 70.861 185.61 71.0118 185.875C71.1141 186.07 71.1675 186.199 71.1408 186.217Z" fill="#263238"/>
<path d="M76.082 184.816C76.1131 184.87 75.9975 185.003 75.8018 185.074C75.6061 185.145 75.4326 185.119 75.4237 185.074C75.4149 185.03 75.5527 184.936 75.7217 184.874C75.8907 184.812 76.0464 184.763 76.082 184.816Z" fill="#263238"/>
<path d="M75.9841 184.447C75.9841 184.514 75.8062 184.567 75.575 184.572C75.3437 184.576 75.1658 184.523 75.1702 184.46C75.1747 184.398 75.3526 184.34 75.575 184.336C75.7973 184.332 75.9841 184.385 75.9841 184.447Z" fill="#263238"/>
<path d="M101.059 71.8329C100.881 71.6506 100.441 71.7395 100.441 71.7395C100.485 71.4835 100.485 71.2218 100.441 70.9657C100.361 70.7166 99.8003 70.7655 99.8003 70.7655C99.7745 70.5558 99.7745 70.3437 99.8003 70.134C99.8048 70.0875 99.7948 70.0408 99.7717 70.0002C99.7486 69.9596 99.7136 69.9271 99.6714 69.9072C99.4062 69.7991 99.1214 69.7476 98.8352 69.756C98.4928 69.5114 99.8804 67.5678 100.396 66.9452C100.912 66.3225 100.819 65.8378 100.361 65.8378C100.045 65.8378 98.4261 67.7057 97.9279 68.3328C97.4298 68.9599 96.1089 70.7033 96.0645 69.3112C96.02 67.9192 95.4596 66.8696 95.1083 66.6917C94.7569 66.5138 94.3833 66.9318 94.5746 67.3188C94.7426 67.7584 94.8474 68.2196 94.8859 68.6886C94.9342 69.0622 94.9176 69.4414 94.837 69.8093C94.6895 70.4941 94.4888 71.1662 94.2366 71.8196H94.201C94.201 71.8196 84.4966 81.1281 83.7939 81.7908C83.1668 82.3868 70.5538 81.0837 68.0232 80.8168C67.1633 80.691 66.295 80.6315 65.4259 80.6389C64.3274 80.6878 64.1317 80.8435 63.0376 80.8568C60.2746 80.8875 57.518 81.1299 54.792 81.5818C53.5577 81.7916 52.4047 82.3365 51.4589 83.1568C50.513 83.9772 49.8106 85.0416 49.4284 86.2338C46.88 94.1948 41.1072 113.039 40.0887 123.624C39.3191 125.019 38.6243 126.455 38.0073 127.924C37.2913 129.872 37.4647 129.939 37.7049 129.983C38.3542 130.104 39.0925 126.608 39.3682 127.453C39.644 128.298 37.9673 131.62 38.6477 131.718C39.5372 131.843 40.2444 128.16 40.3289 127.867C40.4134 127.573 40.8537 127.666 40.7736 127.942C40.6446 128.333 39.3949 132.483 40.2666 132.616C40.7469 132.688 40.8003 131.811 40.8003 131.811C40.8003 131.811 41.6898 127.84 42.0945 127.92C42.4992 128 42.0678 130.344 41.8633 131.126C41.6587 131.909 41.9433 132.305 42.3614 132.114C42.646 131.98 43.3265 129.601 43.5133 128.827C43.7001 128.053 44.167 125.91 44.7941 127.15C45.4212 128.391 46.373 129.112 46.7644 129.13C46.8525 129.119 46.9357 129.083 47.003 129.025C47.0704 128.967 47.1189 128.891 47.1424 128.805C47.1658 128.72 47.1631 128.629 47.1346 128.545C47.106 128.461 47.053 128.387 46.9823 128.333C46.6457 128.005 46.3567 127.631 46.1239 127.222C45.9165 126.903 45.766 126.551 45.6792 126.181C45.5 125.443 45.3957 124.689 45.3679 123.93L45.2967 123.486C46.2929 118.554 49.1615 104.077 53.3021 94.8308L55.0011 98.3265L55.7393 100.915L51.2118 112.091L70.5227 111.838L67.6407 100.746L71.1409 89.1825C74.9257 89.267 84.6434 89.4093 86.2623 88.6755C88.2992 87.786 98.8352 74.4792 98.8352 74.4792C99.522 73.9455 100.18 73.3754 100.805 72.7714C100.805 72.7714 101.446 72.2332 101.059 71.8329Z" fill="#FFBE9D"/>
<path d="M50.3623 103.832C50.9227 101.92 53.8002 92.4648 53.8002 92.4648C53.8002 92.4648 55.2145 100.172 54.8409 101.102C54.4973 101.897 54.0913 102.665 53.6268 103.397C50.3623 108.364 50.7893 110.851 50.7893 110.851L70.5138 110.25C70.5583 107.493 68.926 101.079 68.588 100.057C68.25 99.0337 69.3752 95.6847 69.3752 95.6847C69.3752 95.6847 71.599 93.421 71.5189 92.2557C71.4767 91.209 71.3472 90.1677 71.132 89.1425L83.1401 89.5873L82.7621 81.4484L65.5148 79.7228C64.9144 81.4173 59.4841 80.5856 59.4841 80.5856C53.6223 80.7813 53.2576 81.8576 50.8204 83.7522C48.3832 85.6468 44.3494 101.907 44.3494 101.907L50.3623 103.832Z" fill="#90EE91"/>
<path d="M62.0236 101.907C61.6818 101.968 61.3337 101.986 60.9874 101.96C60.3425 101.96 59.4574 101.916 58.4834 101.818C57.5094 101.72 56.6289 101.582 56.0018 101.457C55.656 101.413 55.3169 101.326 54.9922 101.2C55.3399 101.2 55.6868 101.232 56.0284 101.297C56.66 101.377 57.5361 101.489 58.5057 101.586C59.4752 101.684 60.3558 101.751 60.9918 101.795C61.3385 101.8 61.684 101.837 62.0236 101.907Z" fill="#263238"/>
<path d="M63.3756 100.23C63.0337 100.397 62.6721 100.521 62.2994 100.599C60.525 101.065 58.6943 101.282 56.8601 101.244C56.4806 101.256 56.101 101.22 55.7305 101.137C56.1051 101.09 56.4827 101.071 56.8601 101.079C57.5584 101.057 58.519 101.008 59.5775 100.884C60.636 100.759 61.5789 100.581 62.246 100.439C62.6165 100.34 62.9942 100.27 63.3756 100.23Z" fill="#263238"/>
<path d="M70.011 92.7493C70.002 93.0884 69.9558 93.4255 69.8732 93.7545C69.7575 94.3726 69.5796 95.2177 69.3528 96.1427C69.126 97.0678 68.9081 97.9217 68.7124 98.4999C68.6337 98.8308 68.5173 99.1517 68.3655 99.4561C68.3903 99.1181 68.4529 98.7839 68.5523 98.4599C68.7213 97.7661 68.9125 96.9655 69.126 96.0894C69.3395 95.2132 69.5441 94.4127 69.7131 93.7189C69.7733 93.3849 69.8733 93.0594 70.011 92.7493Z" fill="#263238"/>
<path d="M50.5714 102.698C49.5425 102.539 48.527 102.303 47.5338 101.991C46.5188 101.754 45.5228 101.442 44.554 101.057C45.5824 101.219 46.5976 101.455 47.5916 101.764C48.6068 102.001 49.6028 102.313 50.5714 102.698Z" fill="#263238"/>
<path d="M71.3454 89.0446C71.1776 89.0735 71.0062 89.0735 70.8384 89.0446C70.3738 88.997 69.9177 88.8878 69.4819 88.72C68.7544 88.4466 68.092 88.024 67.5375 87.4794C66.983 86.9349 66.5485 86.2803 66.262 85.5578C65.9453 84.7631 65.81 83.9076 65.8661 83.0539C65.886 82.3497 66.0965 81.6642 66.4754 81.0703C66.7419 80.6703 67.14 80.376 67.6006 80.2387C67.7237 80.2047 67.851 80.1882 67.9787 80.1897C68.0676 80.1897 68.1121 80.1897 68.1121 80.1897C68.1121 80.1897 67.9253 80.1897 67.6273 80.3098C67.2047 80.4659 66.8463 80.7586 66.6089 81.1415C66.004 82.0932 65.835 83.8322 66.4799 85.4555C66.78 86.2209 67.2499 86.9083 67.8541 87.4658C68.3493 87.922 68.9195 88.2891 69.5397 88.551C70.1218 88.781 70.7273 88.9465 71.3454 89.0446Z" fill="#263238"/>
<path d="M81.7125 89.4271C81.6013 88.0633 81.5656 86.6944 81.6058 85.3266C81.571 83.96 81.6125 82.5925 81.7303 81.2305C81.8417 82.5928 81.8773 83.9603 81.8371 85.3266C81.8745 86.6947 81.8329 88.0638 81.7125 89.4271Z" fill="#263238"/>
<path d="M65.3992 80.2209C65.4482 79.2291 65.5504 78.1083 65.5504 78.1083C65.5504 78.1083 68.0054 77.837 68.1522 75.302C68.299 72.7669 68.1522 66.9185 68.1522 66.9185L63.7048 64.6414L58.7681 68.524L59.5286 81.1993L64.0561 81.4884C64.4022 81.498 64.7379 81.3699 64.9897 81.1323C65.2415 80.8947 65.3888 80.5669 65.3992 80.2209Z" fill="#FFBE9D"/>
<path d="M65.8395 73.2961C65.8395 73.2961 65.8395 73.3451 65.7995 73.4029C65.7664 73.4448 65.7236 73.4781 65.6748 73.4998C65.6259 73.5215 65.5726 73.531 65.5193 73.5274C65.2346 73.5274 64.9589 73.1983 64.8611 72.8158C64.8145 72.6304 64.8145 72.4364 64.8611 72.251C64.8702 72.1701 64.8994 72.0927 64.946 72.0259C64.9926 71.9591 65.0551 71.905 65.1279 71.8685C65.1877 71.8438 65.2549 71.8438 65.3147 71.8685C65.359 71.8905 65.395 71.9264 65.417 71.9708C65.4481 72.0464 65.417 72.0953 65.417 72.0909C65.417 72.0864 65.417 72.0464 65.3725 72.0019C65.3493 71.9701 65.3151 71.9479 65.2765 71.9397C65.2379 71.9315 65.1977 71.9378 65.1635 71.9575C65.1089 71.9904 65.0636 72.0367 65.0317 72.0919C64.9998 72.1471 64.9824 72.2095 64.9811 72.2732C64.9437 72.4387 64.9437 72.6104 64.9811 72.7758C65.0701 73.1227 65.3102 73.4029 65.5237 73.4296C65.5655 73.4352 65.608 73.4322 65.6485 73.4207C65.6891 73.4093 65.7268 73.3896 65.7594 73.3629C65.8128 73.3273 65.8306 73.2917 65.8395 73.2961Z" fill="#EB996E"/>
<path d="M69.6776 65.5487C69.3352 64.3835 68.0943 63.8053 66.9647 63.4851C65.2435 62.9959 63.3844 62.7824 61.7033 63.4006C60.0222 64.0188 58.003 65.104 58.003 66.9586C57.0112 66.8785 56.442 67.7458 56.0506 68.822C55.8004 69.4778 55.6504 70.1675 55.6058 70.8679C55.4813 73.2962 54.8008 76.6496 53.2264 78.4286C52.337 79.4203 51.105 80.1053 50.598 81.3417C50.1533 82.4135 50.3845 83.6855 49.9709 84.7706C49.6018 85.7268 48.7879 86.4073 48.1919 87.239C47.5848 88.1825 47.2274 89.2648 47.1535 90.3843C47.0796 91.5038 47.2916 92.6238 47.7694 93.6389C48.2507 94.628 48.9283 95.5087 49.761 96.2274C50.5936 96.9462 51.5639 97.4879 52.6127 97.8195C54.6901 98.4515 56.9054 98.4731 58.9948 97.8818C60.5629 97.5068 62.0256 96.7815 63.2733 95.7603C64.5498 94.7178 65.4266 93.266 65.7549 91.6509C66.0707 89.8363 65.5637 87.9906 65.1857 86.1849C64.0026 80.4788 64.3407 80.1809 65.835 74.8839C65.8706 74.7905 65.8884 74.6927 65.9151 74.5993C65.9417 74.5059 65.9551 74.4614 65.9729 74.3903C66.0153 74.1809 66.0377 73.9679 66.0396 73.7543C65.8213 73.8354 65.5844 73.8526 65.3567 73.8038C65.129 73.7549 64.92 73.6421 64.7543 73.4785C64.5881 73.3041 64.4723 73.088 64.419 72.8531C64.3658 72.6182 64.3771 72.3733 64.4518 72.1443C64.5568 71.8939 64.7131 71.6683 64.9108 71.4821C65.1085 71.2959 65.343 71.1533 65.5993 71.0636C66.093 70.859 66.6222 70.7522 67.107 70.5254C68.1343 70.0362 68.8459 69.0222 69.3307 67.9592C69.7293 67.2225 69.8523 66.3679 69.6776 65.5487Z" fill="#263238"/>
<path d="M66.0174 73.4163C66.1113 73.5551 66.1889 73.7043 66.2486 73.861C66.382 74.1412 66.5599 74.537 66.7556 74.9951L66.7912 75.0796H66.6978L66.2531 75.1196C65.9462 75.1196 65.6882 75.1775 65.3858 75.173C65.3595 75.1671 65.3351 75.1546 65.3149 75.1367C65.2946 75.1188 65.2793 75.0961 65.2702 75.0707C65.2569 75.0303 65.2569 74.9866 65.2702 74.9462C65.2805 74.8862 65.2938 74.8269 65.3102 74.7683L65.3903 74.4525C65.4305 74.2419 65.4931 74.0361 65.5771 73.8388C65.5688 74.0535 65.5375 74.2667 65.4837 74.4748L65.4214 74.7905C65.3992 74.8973 65.3591 75.0618 65.4214 75.0485C65.6438 75.0485 65.9595 74.9996 66.2531 74.9818L66.6978 74.9417L66.64 75.0396C66.4488 74.5948 66.2887 74.1768 66.1953 73.8877C66.1133 73.74 66.0534 73.5812 66.0174 73.4163Z" fill="#90EE91"/>
<path d="M50.7892 110.851L70.5136 110.25L79.0972 143.757L77.5184 182.192H67.0891L68.3655 144.576L60.7381 121.249L61.9123 183.682L51.3718 183.838L50.2644 125.154C50.2154 123.521 49.6817 119.843 49.8819 118.224L50.7892 110.851Z" fill="#263238"/>
<path d="M63.3622 121.725C63.0393 121.745 62.7152 121.725 62.3971 121.667C61.8011 121.596 60.9872 121.471 60.0933 121.293C59.1994 121.115 58.3988 120.911 57.8206 120.746C57.5116 120.678 57.2126 120.571 56.9312 120.426C56.9312 120.359 58.381 120.706 60.16 121.066C61.939 121.427 63.3711 121.658 63.3622 121.725Z" fill="#455A64"/>
<path d="M77.4117 180.084C77.4117 180.146 75.0501 180.2 72.1371 180.2C69.224 180.2 66.8579 180.146 66.8579 180.084C66.8579 180.022 69.2195 179.969 72.1371 179.969C75.0546 179.969 77.4117 180.017 77.4117 180.084Z" fill="#455A64"/>
<path d="M61.8189 182.059C61.8189 182.126 59.524 182.174 56.6954 182.174C53.8669 182.174 51.5764 182.126 51.5764 182.059C51.5764 181.992 53.8713 181.943 56.6954 181.943C59.5196 181.943 61.8189 181.997 61.8189 182.059Z" fill="#455A64"/>
<path d="M60.4581 181.899C60.3958 181.899 60.12 168.258 59.8399 151.434C59.5597 134.609 59.3951 120.96 59.4529 120.96C59.5107 120.96 59.7954 134.596 60.0711 151.429C60.3469 168.263 60.5248 181.899 60.4581 181.899Z" fill="#455A64"/>
<path d="M76.0109 180.084C76.006 180.023 76.006 179.962 76.0109 179.902V179.368C76.0109 178.888 76.0465 178.198 76.0732 177.322C76.1354 175.543 76.2244 172.959 76.3356 169.793C76.5757 163.424 76.9137 154.645 77.2829 144.954C77.2829 144.86 77.2829 144.771 77.2829 144.691V144.722C74.948 135.383 72.8354 126.906 71.301 120.773L69.5221 113.519C69.3175 112.67 69.1618 112.007 69.0506 111.544C68.9973 111.326 68.9617 111.157 68.9305 111.028C68.9132 110.971 68.9028 110.911 68.8994 110.851C68.9225 110.907 68.9404 110.965 68.9528 111.024C68.9884 111.148 69.0328 111.318 69.0951 111.531C69.2152 111.976 69.3886 112.652 69.611 113.497C70.0557 115.213 70.6828 117.686 71.4656 120.733C73.0133 126.861 75.1481 135.316 77.5141 144.669V144.7C77.5141 144.78 77.5141 144.874 77.5141 144.963C77.1183 154.654 76.7581 163.428 76.4957 169.797C76.3578 172.968 76.2422 175.534 76.1621 177.322C76.1176 178.212 76.0821 178.888 76.0598 179.368C76.0598 179.595 76.0331 179.773 76.0287 179.902C76.0294 179.963 76.0234 180.024 76.0109 180.084Z" fill="#455A64"/>
<path d="M72.6084 143.909C71.8593 144.155 71.0875 144.326 70.3046 144.42C69.3439 144.585 68.5256 144.7 68.1565 144.718V144.629C68.2765 144.665 68.3388 144.687 68.3388 144.705C68.3388 144.722 68.2632 144.705 68.1387 144.705H67.8718L68.1387 144.625C68.4856 144.522 69.3039 144.353 70.2646 144.18C71.035 144.013 71.8201 143.922 72.6084 143.909Z" fill="#455A64"/>
<path d="M72.426 145.185C71.7323 145.217 71.0371 145.185 70.3491 145.092C69.6544 145.077 68.9623 145.001 68.281 144.865C69.6709 144.751 71.07 144.859 72.426 145.185Z" fill="#455A64"/>
<path opacity="0.2" d="M50.7048 111.558C50.9384 111.858 51.2327 112.105 51.5683 112.284C51.904 112.462 52.2735 112.568 52.6528 112.594C53.4472 112.688 54.2508 112.673 55.0411 112.549C60.1335 111.985 65.5282 111.464 70.5138 110.25C64.0606 110.61 57.2426 110.49 50.7893 110.851L50.7226 111.402" fill="black"/>
<g opacity="0.2">
<path d="M57.3538 120.653L60.9918 134.769L60.7383 121.249L57.3538 120.653Z" fill="black"/>
</g>
</svg>
