<svg width="24" height="24" viewBox="0 0 24 24" fill="none" xmlns="http://www.w3.org/2000/svg">
<path d="M17.0947 5.65581C17.0947 5.31929 17.2284 4.99655 17.4664 4.7586C17.7043 4.52064 18.0271 4.38696 18.3636 4.38696C18.7001 4.38696 19.0228 4.52064 19.2608 4.7586C19.4987 4.99655 19.6324 5.31929 19.6324 5.65581C19.6324 5.99233 19.4987 6.31507 19.2608 6.55302C19.0228 6.79098 18.7001 6.92466 18.3636 6.92466C18.0271 6.92466 17.7043 6.79098 17.4664 6.55302C17.2284 6.31507 17.0947 5.99233 17.0947 5.65581Z" fill="white"/>
<path fill-rule="evenodd" clip-rule="evenodd" d="M12.0195 5.97314C10.421 5.97314 8.88799 6.60813 7.75771 7.73842C6.62742 8.86871 5.99243 10.4017 5.99243 12.0002C5.99243 13.5986 6.62742 15.1316 7.75771 16.2619C8.88799 17.3922 10.421 18.0272 12.0195 18.0272C13.6179 18.0272 15.1509 17.3922 16.2812 16.2619C17.4115 15.1316 18.0465 13.5986 18.0465 12.0002C18.0465 10.4017 17.4115 8.86871 16.2812 7.73842C15.1509 6.60813 13.6179 5.97314 12.0195 5.97314ZM7.8957 12.0002C7.8957 10.9065 8.33017 9.85759 9.10352 9.08424C9.87688 8.31088 10.9258 7.87642 12.0195 7.87642C13.1131 7.87642 14.162 8.31088 14.9354 9.08424C15.7087 9.85759 16.1432 10.9065 16.1432 12.0002C16.1432 13.0939 15.7087 14.1427 14.9354 14.9161C14.162 15.6895 13.1131 16.1239 12.0195 16.1239C10.9258 16.1239 9.87688 15.6895 9.10352 14.9161C8.33017 14.1427 7.8957 13.0939 7.8957 12.0002Z" fill="white"/>
<path fill-rule="evenodd" clip-rule="evenodd" d="M18.6911 0.368668C14.2569 -0.122889 9.78201 -0.122889 5.34786 0.368668C2.79494 0.654158 0.733059 2.66528 0.433611 5.23089C-0.0924536 9.72843 -0.0924536 14.272 0.433611 18.7695C0.733059 21.3351 2.79367 23.3462 5.34786 23.6317C9.78203 24.1228 14.2569 24.1228 18.6911 23.6317C21.244 23.3462 23.3059 21.3351 23.6053 18.7695C24.1315 14.272 24.1315 9.72842 23.6053 5.23089C23.3059 2.66528 21.2452 0.654158 18.6911 0.368668ZM5.55849 2.25925C9.85265 1.78327 14.1863 1.78327 18.4804 2.25925C20.168 2.44958 21.5193 3.7806 21.716 5.45294C22.2247 9.80295 22.2247 14.1974 21.716 18.5474C21.6143 19.3659 21.2396 20.1262 20.6525 20.7054C20.0654 21.2847 19.3002 21.6491 18.4804 21.7399C14.1863 22.2159 9.85265 22.2159 5.55849 21.7399C4.73873 21.6491 3.97351 21.2847 3.38641 20.7054C2.79932 20.1262 2.42465 19.3659 2.32292 18.5474C1.81418 14.1974 1.81418 9.80295 2.32292 5.45294C2.42465 4.63448 2.79932 3.87421 3.38641 3.29495C3.97351 2.71568 4.73873 2.34998 5.55849 2.25925Z" fill="white"/>
</svg>
