<svg width="18" height="23" viewBox="0 0 18 23" fill="none" xmlns="http://www.w3.org/2000/svg">
<path d="M9.2506 13.4824C8.4736 13.4824 7.71405 13.252 7.068 12.8203C6.42195 12.3886 5.91841 11.7751 5.62107 11.0572C5.32372 10.3394 5.24592 9.54946 5.39751 8.78739C5.54909 8.02532 5.92325 7.32532 6.47268 6.7759C7.0221 6.22648 7.7221 5.85232 8.48417 5.70073C9.24624 5.54915 10.0361 5.62695 10.754 5.92429C11.4718 6.22163 12.0854 6.72517 12.5171 7.37122C12.9488 8.01727 13.1792 8.77682 13.1792 9.55382C13.1779 10.5954 12.7636 11.5939 12.0271 12.3304C11.2907 13.0668 10.2921 13.4811 9.2506 13.4824ZM9.2506 7.19667C8.7844 7.19667 8.32867 7.33492 7.94104 7.59393C7.55341 7.85293 7.25129 8.22107 7.07288 8.65178C6.89447 9.08249 6.84779 9.55643 6.93874 10.0137C7.02969 10.4709 7.25419 10.8909 7.58384 11.2206C7.9135 11.5502 8.3335 11.7747 8.79074 11.8657C9.24798 11.9566 9.72192 11.9099 10.1526 11.7315C10.5833 11.5531 10.9515 11.251 11.2105 10.8634C11.4695 10.4757 11.6077 10.02 11.6077 9.55382C11.6071 8.92886 11.3586 8.32967 10.9167 7.88776C10.4747 7.44584 9.87556 7.1973 9.2506 7.19667Z" fill="white"/>
<path d="M9.25053 22.9109L2.62225 15.0938C2.53015 14.9764 2.439 14.8583 2.34882 14.7395C1.21659 13.248 0.604931 11.4263 0.607675 9.55375C0.607675 7.26152 1.51826 5.06317 3.13911 3.44232C4.75996 1.82147 6.9583 0.910889 9.25053 0.910889C11.5428 0.910889 13.7411 1.82147 15.362 3.44232C16.9828 5.06317 17.8934 7.26152 17.8934 9.55375C17.8961 11.4254 17.2848 13.2463 16.153 14.7371L16.1522 14.7395C16.1522 14.7395 15.9165 15.049 15.8812 15.0907L9.25053 22.9109ZM3.6036 13.7927C3.6036 13.7927 3.78668 14.0347 3.82832 14.0865L9.25053 20.4815L14.6798 14.0779C14.7144 14.0347 14.8982 13.7911 14.899 13.7903C15.8239 12.5718 16.3238 11.0836 16.322 9.55375C16.322 7.67829 15.5769 5.87964 14.2508 4.55349C12.9246 3.22734 11.126 2.48232 9.25053 2.48232C7.37507 2.48232 5.57643 3.22734 4.25028 4.55349C2.92413 5.87964 2.1791 7.67829 2.1791 9.55375C2.17746 11.0845 2.67786 12.5736 3.6036 13.7927Z" fill="white"/>
</svg>
