<svg width="80" height="68" viewBox="0 0 80 68" fill="none" xmlns="http://www.w3.org/2000/svg">
<path d="M41.2537 26.6165C41.1088 26.2142 40.9412 25.8206 40.7516 25.4375C40.6276 25.1816 40.4894 24.929 40.3432 24.6764V24.6652C40.2924 24.5763 40.2383 24.4873 40.1843 24.3967C40.1303 24.3061 40.0747 24.2219 40.0254 24.1345C39.8316 23.8305 39.6197 23.5334 39.3898 23.2431C38.931 22.6505 38.4234 22.0972 37.8724 21.5891C37.3602 21.1144 36.8166 20.6749 36.2453 20.2734C36.0578 20.1399 35.8671 20.0096 35.6701 19.8825L32.1172 17.5658L26.521 13.9113C25.3134 13.1613 24.4331 12.468 23.8802 11.8314C23.3219 11.1884 23.0249 10.3595 23.0476 9.50833C23.0483 8.59401 23.3399 7.70362 23.8802 6.96602C25.0194 5.43428 26.2731 5.2452 28.817 5.2452C29.1904 5.2452 29.5495 5.26268 29.8975 5.29604C28.1687 3.20341 26.1873 3.19864 26.1873 3.19864C23.5719 3.2479 22.0561 3.56728 20.429 4.98461C18.6208 6.5672 17.6182 8.61375 17.4211 11.1243C17.3894 11.4516 17.3719 11.7773 17.3719 12.1031C17.3719 15.3011 18.9868 17.9101 22.2166 19.9302L30.5315 25.509C32.0664 26.5217 33.2163 27.663 33.9811 28.9331C34.7459 30.2032 35.1293 31.4103 35.1315 32.5543C35.1315 35.5882 33.7618 37.7729 31.0225 39.1087C29.5662 39.7792 27.9778 40.1137 26.3748 40.0875C24.7392 40.1054 23.1171 39.7891 21.608 39.158C20.2231 38.5867 18.9915 37.6985 18.0122 36.5648C16.2686 34.6041 15.3968 32.4368 15.3968 30.0629C15.3968 27.8765 16.0493 25.7399 17.3544 23.6531L16.9143 23.3099C14.9895 25.7547 14.0271 28.35 14.0271 31.0957C14.0246 31.9198 14.1233 32.7411 14.3211 33.5411C15.266 37.1946 17.4842 39.7549 20.9756 41.222C22.8664 42.0377 24.9781 42.4455 27.3107 42.4455C29.4949 42.4723 31.6634 42.0735 33.6951 41.2713L33.9604 41.16L34.2925 41.0139L34.6103 40.8693H34.623L34.9408 40.7104C35.0457 40.6595 35.1505 40.6039 35.2586 40.5515C35.3666 40.499 35.462 40.4418 35.5637 40.3926L35.8608 40.2226C36.2438 39.9976 36.6151 39.7531 36.973 39.4901C37.1431 39.3693 37.3083 39.2406 37.4672 39.1119C37.6261 38.9832 37.8057 38.8291 37.9677 38.6829C38.1298 38.5367 38.2728 38.3969 38.419 38.2507C38.4953 38.1744 38.5779 38.0918 38.6446 38.0171L38.8432 37.801L38.9688 37.6596L39.0784 37.5325C39.1308 37.4705 39.1849 37.407 39.2373 37.3434C39.2897 37.2798 39.3342 37.2242 39.3819 37.1639L39.5265 36.9779C39.8535 36.5513 40.1483 36.1009 40.4083 35.6305C40.4449 35.5654 40.4798 35.5018 40.5132 35.4367L40.5227 35.4224L40.6181 35.2349V35.219C40.7818 34.8926 40.9272 34.5574 41.0534 34.2148C41.5662 32.8967 41.8396 31.4977 41.8606 30.0835C41.8655 28.901 41.66 27.727 41.2537 26.6165Z" fill="#9ED08B"/>
<path d="M56.6204 19.7665L56.7793 19.7808C56.7957 19.7666 56.8111 19.7512 56.8253 19.7347C56.757 19.7475 56.6903 19.757 56.6204 19.7649" fill="#9ED08B"/>
<path d="M59.2087 23.7834C57.9742 22.5261 56.4447 21.5975 54.7597 21.0822C55.4836 20.7301 56.1618 20.2909 56.7793 19.7745L56.6204 19.7602C56.6903 19.7522 56.757 19.7427 56.8253 19.73C57.0774 19.5165 57.3162 19.2878 57.5404 19.0451C58.5891 17.9122 59.1293 16.8047 59.4916 15.3381C59.5816 14.9815 59.6417 14.6179 59.6711 14.2513C59.7331 13.8874 59.7776 13.5331 59.8078 13.1851C59.838 12.8371 59.8523 12.5146 59.8523 12.2127C59.8523 11.9108 59.838 11.6009 59.8078 11.2832C59.7776 10.9654 59.7331 10.6253 59.6711 10.2646C59.6415 9.89697 59.5815 9.53238 59.4916 9.17464C59.3994 8.81236 59.293 8.45167 59.1738 8.0878C58.8592 7.15807 58.4089 6.27995 57.8375 5.48193C57.2186 4.61747 56.5126 3.81881 55.7305 3.09852C54.8477 2.29127 53.794 1.69379 52.648 1.35069C51.28 0.950315 49.8593 0.759074 48.4341 0.783438H48.0464C47.9169 0.783062 47.7877 0.798533 47.6619 0.829514C47.526 0.828151 47.3901 0.835584 47.2551 0.851761C47.1344 0.866062 46.9977 0.889893 46.8484 0.918494C46.62 0.9434 46.393 0.979994 46.1683 1.02813L46.0317 1.05674C45.7562 1.11788 45.4842 1.19318 45.2165 1.28236C44.6062 1.4658 44.0133 1.70294 43.4449 1.99103C43.0801 2.17306 42.7258 2.37517 42.3834 2.59642C41.4428 3.21751 40.583 3.95299 39.8237 4.78598C38.992 5.69085 38.3664 6.76529 37.99 7.93526C37.5817 9.16033 37.3767 19.0181 37.3767 20.5896L37.453 20.6722C38.088 20.9663 38.6798 21.3459 39.2119 21.8004C40.3131 22.7267 41.0614 23.8358 41.3475 24.8305L41.3188 18.0235V12.9436C41.3049 11.9956 41.4193 11.0501 41.6589 10.1328C41.8066 9.61148 42.0202 9.11117 42.2945 8.64393C42.5533 9.84478 42.9411 11.0141 43.4512 12.1317C43.5899 12.4252 43.7442 12.7111 43.9136 12.9881C45.0688 14.8869 48.5358 15.2126 48.6184 12.2461C48.7011 9.2795 45.4739 7.4268 44.9845 6.79599C44.4951 6.16518 48.6185 4.73037 49.8562 6.05237C50.0866 6.29865 50.7317 7.4268 51.2227 7.63177C52.0267 7.96863 53.0341 8.09575 53.943 8.21174C55.1172 8.3611 56.1326 8.49298 56.3534 9.03163C56.73 9.95322 55.9117 11.4007 55.3842 12.4177C55.0043 13.1227 54.4084 13.6874 53.684 14.0288C51.9266 14.9345 49.3938 15.0664 47.1979 15.6512C45.5597 16.0881 44.225 16.9303 43.4512 17.4324C43.0413 17.6993 42.787 17.8725 42.7298 17.8375V21.1982C42.9586 21.3237 43.2065 21.4413 43.4512 21.5477C44.9146 22.1833 46.707 22.5011 48.5549 22.4868C49.6026 23.1192 50.4828 23.9945 51.121 25.0386C51.9759 26.4157 52.4028 28.1635 52.4017 30.2821C52.4017 33.2937 51.6401 35.5431 50.1168 37.0304C48.5936 38.5176 46.5481 39.2591 43.9803 39.2549H41.2966V35.2301C40.6611 36.4764 39.8332 37.6148 38.8433 38.6034C37.5547 39.9079 35.9085 40.9868 33.9462 41.8274H46.3161C51.1507 41.8274 54.9716 40.8883 57.7787 39.0102C60.5858 37.1321 61.9894 34.4457 61.9894 30.9511C61.9894 28.0507 61.0599 25.6615 59.2008 23.7834M56.239 8.56766C57.2432 8.31661 56.6331 9.28586 56.6331 9.28586L56.239 8.56766Z" fill="#9ED08B"/>
<path fill-rule="evenodd" clip-rule="evenodd" d="M49.2604 8.25941C49.26 8.43065 49.1916 8.59473 49.0704 8.71567C48.9492 8.83661 48.7849 8.90452 48.6137 8.90452C48.5962 8.9061 48.5787 8.9061 48.5612 8.90452C48.3937 8.89292 48.2373 8.81647 48.1253 8.6914C48.0133 8.56633 47.9544 8.4025 47.9612 8.23473C47.9681 8.06695 48.04 7.90845 48.1619 7.79289C48.2837 7.67734 48.4458 7.61384 48.6137 7.61589H48.6582C48.8213 7.62789 48.9739 7.70097 49.0856 7.82055C49.1972 7.94013 49.2596 8.09742 49.2604 8.261" fill="#9ED08B"/>
<path fill-rule="evenodd" clip-rule="evenodd" d="M22.3819 29.4273C22.542 29.427 22.6986 29.4742 22.8318 29.5629C22.9651 29.6517 23.069 29.778 23.1304 29.9258C23.1918 30.0737 23.2079 30.2364 23.1768 30.3934C23.1456 30.5505 23.0686 30.6947 22.9554 30.8079C22.8422 30.9211 22.6979 30.9982 22.5409 31.0294C22.3838 31.0605 22.2211 31.0444 22.0732 30.983C21.9254 30.9215 21.7991 30.8176 21.7104 30.6844C21.6216 30.5511 21.5744 30.3946 21.5747 30.2345C21.5751 30.0205 21.6603 29.8154 21.8116 29.6642C21.9629 29.5129 22.1679 29.4277 22.3819 29.4273Z" fill="#9ED08B"/>
<path fill-rule="evenodd" clip-rule="evenodd" d="M28.1592 29.4273C28.3193 29.427 28.4759 29.4742 28.6092 29.5629C28.7424 29.6517 28.8463 29.778 28.9077 29.9258C28.9691 30.0737 28.9853 30.2364 28.9541 30.3934C28.923 30.5505 28.8459 30.6947 28.7327 30.8079C28.6195 30.9211 28.4752 30.9982 28.3182 31.0294C28.1612 31.0605 27.9984 31.0444 27.8506 30.983C27.7027 30.9215 27.5764 30.8176 27.4877 30.6844C27.3989 30.5511 27.3517 30.3946 27.3521 30.2345C27.3525 30.0205 27.4376 29.8154 27.5889 29.6642C27.7402 29.5129 27.9453 29.4277 28.1592 29.4273Z" fill="#9ED08B"/>
<path fill-rule="evenodd" clip-rule="evenodd" d="M26.5321 34.2783C26.388 34.3969 26.2106 34.4677 26.0244 34.4811C25.8383 34.4945 25.6526 34.4497 25.493 34.353C25.2816 34.2418 25.3341 33.9669 25.3341 33.7301C25.3341 33.7301 25.7615 33.3551 25.8457 33.1629C25.9585 32.9102 24.4602 32.9087 24.5984 33.1629C24.7556 33.3853 24.9458 33.5825 25.1625 33.7476C25.1323 34.0273 25.2022 34.202 24.9845 34.3292C24.4411 34.6009 24.1138 34.469 23.9104 34.2799C23.5767 33.9717 23.5402 33.3822 23.4702 33.3822C23.4305 33.3822 23.413 33.487 23.413 33.487C23.3921 33.7044 23.4344 33.9231 23.5347 34.117C23.6351 34.3109 23.7892 34.4718 23.9787 34.5802C24.3823 34.7963 24.9639 34.7391 25.2149 34.3594C25.4644 34.7375 26.0523 34.7963 26.4559 34.585C26.647 34.4767 26.8028 34.3155 26.9043 34.1206C27.0058 33.9258 27.0487 33.7057 27.0279 33.487C27.0279 33.487 27.0104 33.3822 26.9707 33.3822C26.9008 33.3822 26.8642 33.9717 26.5305 34.2799" fill="#9ED08B"/>
<path fill-rule="evenodd" clip-rule="evenodd" d="M17.302 31.9442L22.1419 32.7752C22.1562 32.7776 22.1699 32.7828 22.1822 32.7905C22.1944 32.7982 22.2051 32.8082 22.2135 32.82C22.2219 32.8318 22.2279 32.8451 22.2312 32.8593C22.2344 32.8734 22.2349 32.888 22.2325 32.9023C22.2301 32.9166 22.2249 32.9303 22.2172 32.9426C22.2095 32.9549 22.1995 32.9655 22.1877 32.9739C22.1759 32.9823 22.1625 32.9883 22.1484 32.9916C22.1343 32.9948 22.1196 32.9953 22.1053 32.9929L17.2607 32.1619C17.2463 32.1596 17.2326 32.1544 17.2203 32.1468C17.2079 32.1391 17.1972 32.1291 17.1888 32.1172C17.1804 32.1054 17.1744 32.092 17.1712 32.0779C17.168 32.0637 17.1676 32.049 17.1701 32.0347C17.1751 32.006 17.1913 31.9804 17.2151 31.9634C17.2389 31.9465 17.2684 31.9396 17.2972 31.9442" fill="#9ED08B"/>
<path fill-rule="evenodd" clip-rule="evenodd" d="M16.9429 33.1295L21.8511 33.2725C21.8655 33.2729 21.8797 33.2761 21.8928 33.282C21.906 33.2879 21.9178 33.2964 21.9277 33.3068C21.9376 33.3173 21.9453 33.3296 21.9504 33.3431C21.9556 33.3566 21.958 33.3709 21.9576 33.3853C21.9574 33.3998 21.9543 33.4142 21.9485 33.4275C21.9427 33.4408 21.9343 33.4529 21.9238 33.4629C21.9133 33.473 21.9009 33.4809 21.8873 33.4861C21.8737 33.4913 21.8593 33.4938 21.8447 33.4934L16.9365 33.3504C16.9209 33.3522 16.9051 33.3508 16.89 33.3461C16.875 33.3414 16.8612 33.3336 16.8494 33.3231C16.8377 33.3127 16.8282 33.2999 16.8218 33.2855C16.8153 33.2712 16.812 33.2556 16.812 33.2399C16.812 33.2242 16.8153 33.2086 16.8218 33.1943C16.8282 33.18 16.8377 33.1671 16.8494 33.1567C16.8612 33.1463 16.875 33.1385 16.89 33.1338C16.9051 33.1291 16.9209 33.1276 16.9365 33.1295" fill="#9ED08B"/>
<path fill-rule="evenodd" clip-rule="evenodd" d="M17.2607 34.4261L22.1245 33.7571C22.152 33.7561 22.179 33.7654 22.2001 33.7831C22.2212 33.8008 22.235 33.8258 22.2387 33.8531C22.2425 33.8804 22.236 33.9082 22.2204 33.931C22.2049 33.9537 22.1815 33.9699 22.1546 33.9764L17.2893 34.6453C17.2619 34.6459 17.2353 34.6363 17.2145 34.6185C17.1937 34.6006 17.1803 34.5757 17.1767 34.5485C17.1732 34.5214 17.1798 34.4938 17.1953 34.4712C17.2108 34.4486 17.2341 34.4326 17.2607 34.4261Z" fill="#9ED08B"/>
<path fill-rule="evenodd" clip-rule="evenodd" d="M33.3583 34.8424L28.5184 34.013C28.4896 34.0079 28.464 33.9917 28.447 33.968C28.4301 33.9442 28.4232 33.9147 28.4278 33.8858C28.4301 33.8715 28.4352 33.8578 28.4429 33.8454C28.4506 33.8331 28.4606 33.8224 28.4724 33.814C28.4842 33.8056 28.4976 33.7996 28.5118 33.7964C28.5259 33.7931 28.5406 33.7928 28.5549 33.7953L33.3948 34.6247C33.4237 34.6301 33.4493 34.6466 33.4663 34.6707C33.4832 34.6947 33.49 34.7244 33.4854 34.7534C33.48 34.7819 33.4637 34.8071 33.4399 34.8237C33.4162 34.8403 33.3869 34.847 33.3583 34.8424Z" fill="#9ED08B"/>
<path fill-rule="evenodd" clip-rule="evenodd" d="M33.7237 33.6586L28.8154 33.5156C28.8009 33.5152 28.7866 33.5119 28.7733 33.5059C28.7601 33.4999 28.7481 33.4914 28.7382 33.4807C28.7283 33.4701 28.7206 33.4576 28.7156 33.4439C28.7106 33.4303 28.7083 33.4157 28.709 33.4012C28.7094 33.3868 28.7126 33.3726 28.7185 33.3595C28.7244 33.3463 28.7328 33.3345 28.7433 33.3246C28.7538 33.3147 28.7661 33.307 28.7796 33.3019C28.793 33.2967 28.8074 33.2943 28.8218 33.2948L33.73 33.4378C33.7592 33.4386 33.787 33.4509 33.8072 33.472C33.8274 33.4931 33.8385 33.5213 33.8381 33.5506C33.8364 33.5798 33.8237 33.6073 33.8024 33.6274C33.7811 33.6475 33.7529 33.6587 33.7237 33.6586Z" fill="#9ED08B"/>
<path fill-rule="evenodd" clip-rule="evenodd" d="M33.4027 32.3621L28.5421 33.031C28.5131 33.0346 28.4838 33.0266 28.4606 33.0088C28.4374 32.9909 28.4221 32.9647 28.4182 32.9357C28.4162 32.9214 28.417 32.9068 28.4206 32.8928C28.4243 32.8789 28.4306 32.8657 28.4393 32.8542C28.448 32.8427 28.4589 32.833 28.4714 32.8257C28.4838 32.8184 28.4976 32.8137 28.5119 32.8117L33.3773 32.1428C33.4061 32.1391 33.4352 32.1469 33.4583 32.1644C33.4815 32.1819 33.4969 32.2078 33.5012 32.2365C33.5049 32.2658 33.4969 32.2952 33.4791 32.3187C33.4613 32.3422 33.435 32.3577 33.4059 32.3621" fill="#9ED08B"/>
<path d="M4.94002 62.1595C2.14825 62.1595 0 60.6325 0 58.1633H2.45015C2.55025 59.3073 3.35267 60.2289 4.94002 60.2289C6.52737 60.2289 7.44896 59.3661 7.44896 58.1808C7.44896 54.8074 0.0397235 56.997 0.0397235 51.8552C0.0397235 49.4066 1.98777 47.8828 4.83833 47.8828C7.50934 47.8828 9.397 49.289 9.60515 51.6788H7.06761C6.98817 50.735 6.16509 49.8706 4.71916 49.8309C3.39398 49.7912 2.36911 50.4331 2.36911 51.7789C2.36911 54.9314 9.75928 52.9627 9.75928 58.0632C9.75928 60.1526 8.05275 62.1611 4.94002 62.1611" fill="#9ED08B"/>
<path d="M16.927 50.7731C18.7956 50.7731 20.0794 51.6566 20.7627 52.5607V50.9542H23.0714V62.018H20.7563V60.3719C20.054 61.3157 18.7288 62.1992 16.8809 62.1992C14.016 62.1992 11.6993 59.8491 11.6993 56.4393C11.6993 53.0294 14.0097 50.7763 16.9206 50.7763M17.3973 52.764C15.6892 52.764 14.043 54.0495 14.043 56.4393C14.043 58.829 15.6892 60.2146 17.3973 60.2146C19.1054 60.2146 20.7499 58.8688 20.7499 56.479C20.7499 54.0892 19.1229 52.764 17.3973 52.764Z" fill="#9ED08B"/>
<path d="M28.3738 47.1583H26.0841V62.018H28.3738V47.1583Z" fill="#9ED08B"/>
<path d="M36.1452 62.1992C32.9673 62.1992 30.6221 59.9492 30.6221 56.479C30.6221 53.0087 32.872 50.7763 36.1452 50.7763C39.2977 50.7763 41.527 52.9642 41.527 56.2184C41.53 56.5944 41.5029 56.9701 41.4459 57.3418H32.9912C33.1501 59.1691 34.4578 60.275 36.1452 60.275C37.5499 60.275 38.3332 59.5917 38.7543 58.7273H41.2251C40.6022 60.6563 38.856 62.2024 36.1405 62.2024M33.0118 55.4859H39.1372C39.0959 53.7794 37.7517 52.6941 36.0435 52.6941C34.4975 52.6941 33.2534 53.7381 33.0118 55.4859Z" fill="#9ED08B"/>
<path d="M49.3573 62.018H43.7754V48.0624H49.0968C52.049 48.0624 53.6141 49.6879 53.6141 51.6566C53.6141 53.344 52.5908 54.3673 51.245 54.8487C52.7307 55.1109 53.9367 56.5966 53.9367 58.2634C53.9367 60.391 52.2095 62.018 49.3573 62.018ZM48.8965 49.9246H46.0651V53.9208H48.8965C50.3822 53.9208 51.28 53.2185 51.28 51.933C51.28 50.6476 50.3822 49.9246 48.8965 49.9246ZM49.0761 55.7878H46.0571V60.1463H49.1492C50.6952 60.1463 51.6391 59.3629 51.6391 58.0171C51.6391 56.6315 50.5951 55.7926 49.0682 55.7926" fill="#9ED08B"/>
<path d="M60.8835 50.7731C62.7505 50.7731 64.036 51.6566 64.7192 52.5607V50.9542H67.0279V62.018H64.7192V60.3719C64.0169 61.3157 62.6917 62.1992 60.8438 62.1992C57.9725 62.1992 55.6622 59.8491 55.6622 56.4361C55.6622 53.023 57.9725 50.7731 60.8835 50.7731ZM61.3602 52.7609C59.6536 52.7609 58.0075 54.0463 58.0075 56.4361C58.0075 58.8258 59.6536 60.2114 61.3602 60.2114C63.0667 60.2114 64.7144 58.8656 64.7144 56.4758C64.7144 54.086 63.0874 52.7609 61.3602 52.7609Z" fill="#9ED08B"/>
<path d="M77.6309 50.9543H80L73.2136 67.2187H70.8429L73.0928 61.8369L68.7344 50.9543H71.2846L74.3974 59.3868L77.6309 50.9543Z" fill="#9ED08B"/>
</svg>
