<svg width="100" height="84" viewBox="0 0 100 84" fill="none" xmlns="http://www.w3.org/2000/svg">
<path d="M51.5671 32.7708C51.3861 32.268 51.1765 31.776 50.9395 31.2971C50.7846 30.9773 50.6118 30.6615 50.4291 30.3457V30.3318C50.3655 30.2206 50.298 30.1093 50.2304 29.9961C50.1629 29.8829 50.0934 29.7776 50.0318 29.6684C49.7895 29.2884 49.5247 28.917 49.2374 28.5542C48.6638 27.8133 48.0293 27.1217 47.3405 26.4865C46.7003 25.8933 46.0208 25.3439 45.3067 24.842C45.0723 24.6752 44.834 24.5123 44.5877 24.3534L40.1466 21.4575L33.1513 16.8893C31.6418 15.9519 30.5415 15.0852 29.8503 14.2894C29.1525 13.4857 28.7812 12.4497 28.8095 11.3856C28.8104 10.2427 29.1749 9.12976 29.8503 8.20776C31.2744 6.29309 32.8415 6.05673 36.0213 6.05673C36.4881 6.05673 36.937 6.07858 37.3719 6.12029C35.211 3.5045 32.7342 3.49854 32.7342 3.49854C29.465 3.56011 27.5701 3.95933 25.5363 5.731C23.276 7.70923 22.0228 10.2674 21.7765 13.4056C21.7368 13.8147 21.7149 14.2219 21.7149 14.6291C21.7149 18.6266 23.7335 21.8879 27.7708 24.413L38.1644 31.3864C40.0831 32.6523 41.5204 34.079 42.4764 35.6667C43.4324 37.2543 43.9117 38.7631 43.9144 40.1932C43.9144 43.9854 42.2023 46.7164 38.7781 48.3861C36.9578 49.2242 34.9723 49.6424 32.9686 49.6096C30.924 49.632 28.8964 49.2366 27.01 48.4477C25.2789 47.7336 23.7395 46.6234 22.5153 45.2063C20.3358 42.7553 19.2461 40.0462 19.2461 37.0788C19.2461 34.3458 20.0617 31.6751 21.6931 29.0666L21.1429 28.6376C18.737 31.6936 17.534 34.9377 17.534 38.3698C17.5308 39.4 17.6542 40.4266 17.9014 41.4266C19.0826 45.9935 21.8553 49.1938 26.2196 51.0277C28.5831 52.0473 31.2227 52.5571 34.1384 52.5571C36.8687 52.5906 39.5793 52.0921 42.1189 51.0893L42.4506 50.9503L42.8657 50.7676L43.2629 50.5868H43.2788L43.6761 50.3882C43.8071 50.3246 43.9382 50.2551 44.0733 50.1896C44.2084 50.124 44.3275 50.0525 44.4546 49.991L44.826 49.7784C45.3049 49.4973 45.7689 49.1916 46.2164 48.8628C46.4289 48.7119 46.6355 48.551 46.8341 48.3901C47.0327 48.2292 47.2571 48.0366 47.4597 47.8538C47.6623 47.6711 47.8411 47.4963 48.0238 47.3136C48.1191 47.2183 48.2224 47.115 48.3058 47.0216L48.5541 46.7515L48.711 46.5747L48.8481 46.4158C48.9136 46.3384 48.9811 46.2589 49.0467 46.1795C49.1122 46.1 49.1678 46.0305 49.2274 45.9551L49.4082 45.7227C49.8169 45.1894 50.1854 44.6264 50.5105 44.0384C50.5562 43.957 50.5999 43.8775 50.6416 43.7961L50.6535 43.7782L50.7727 43.5438V43.524C50.9774 43.116 51.159 42.697 51.3169 42.2687C51.9578 40.6211 52.2995 38.8723 52.3259 37.1046C52.3319 35.6265 52.075 34.159 51.5671 32.7708Z" fill="white"/>
<path d="M70.7754 24.2084L70.974 24.2263C70.9946 24.2086 71.0139 24.1893 71.0316 24.1687C70.9462 24.1846 70.8628 24.1965 70.7754 24.2064" fill="white"/>
<path d="M74.011 29.2295C72.4677 27.6579 70.556 26.4972 68.4497 25.853C69.3545 25.4129 70.2023 24.864 70.9741 24.2184L70.7755 24.2005C70.8629 24.1906 70.9463 24.1787 71.0317 24.1628C71.3468 23.896 71.6453 23.6101 71.9255 23.3068C73.2364 21.8906 73.9117 20.5062 74.3645 18.673C74.4771 18.2272 74.5521 17.7728 74.5889 17.3145C74.6664 16.8596 74.722 16.4167 74.7598 15.9817C74.7975 15.5468 74.8154 15.1436 74.8154 14.7662C74.8154 14.3888 74.7975 14.0015 74.7598 13.6043C74.722 13.2071 74.6664 12.782 74.5889 12.3311C74.552 11.8715 74.4769 11.4158 74.3645 10.9686C74.2493 10.5158 74.1162 10.0649 73.9673 9.61009C73.5741 8.44792 73.0112 7.35028 72.2969 6.35275C71.5233 5.27217 70.6407 4.27385 69.6632 3.37349C68.5597 2.36442 67.2425 1.61758 65.81 1.18869C64.1 0.68823 62.3242 0.449178 60.5427 0.479633H60.0581C59.8961 0.479163 59.7347 0.498502 59.5774 0.537228C59.4075 0.535525 59.2377 0.544816 59.069 0.565038C58.918 0.582913 58.7472 0.612702 58.5605 0.648454C58.275 0.679586 57.9912 0.725328 57.7104 0.7855L57.5396 0.821256C57.1953 0.89768 56.8553 0.991814 56.5207 1.10329C55.7578 1.33258 55.0167 1.62902 54.3061 1.98912C53.8502 2.21667 53.4073 2.4693 52.9793 2.74586C51.8036 3.52222 50.7288 4.44157 49.7796 5.48281C48.74 6.6139 47.958 7.95695 47.4876 9.41941C46.9771 10.9508 46.7209 23.273 46.7209 25.2373L46.8162 25.3406C47.61 25.7082 48.3498 26.1827 49.0149 26.7508C50.3914 27.9087 51.3268 29.2951 51.6844 30.5384L51.6486 22.0297V15.6798C51.6312 14.4949 51.7741 13.313 52.0736 12.1663C52.2583 11.5147 52.5252 10.8893 52.8681 10.3053C53.1916 11.8063 53.6764 13.268 54.3141 14.6649C54.4874 15.0319 54.6803 15.3892 54.892 15.7355C56.336 18.1089 60.6698 18.5161 60.7731 14.8079C60.8764 11.0997 56.8424 8.78384 56.2307 7.99533C55.619 7.20681 60.7731 5.4133 62.3203 7.0658C62.6083 7.37365 63.4147 8.78383 64.0284 9.04005C65.0334 9.46112 66.2927 9.62002 67.4288 9.76501C68.8966 9.95171 70.1657 10.1166 70.4418 10.7899C70.9125 11.9419 69.8896 13.7513 69.2302 15.0224C68.7554 15.9037 68.0105 16.6096 67.105 17.0364C64.9083 18.1685 61.7423 18.3334 58.9974 19.0643C56.9497 19.6105 55.2813 20.6632 54.3141 21.2908C53.8016 21.6245 53.4838 21.841 53.4123 21.7973V25.998C53.6983 26.1549 54.0082 26.3019 54.3141 26.435C56.1433 27.2295 58.3837 27.6267 60.6937 27.6088C62.0033 28.3993 63.1035 29.4934 63.9013 30.7986C64.9699 32.52 65.5035 34.7048 65.5022 37.353C65.5022 41.1175 64.5501 43.9292 62.6461 45.7883C60.742 47.6474 58.1851 48.5742 54.9754 48.5689H51.6208V43.538C50.8264 45.0959 49.7915 46.5189 48.5541 47.7546C46.9433 49.3853 44.8857 50.7339 42.4327 51.7846H57.8951C63.9384 51.7846 68.7145 50.6107 72.2234 48.2631C75.7323 45.9154 77.4868 42.5575 77.4868 38.1892C77.4868 34.5638 76.3249 31.5772 74.001 29.2295M70.2988 10.2099C71.5541 9.8961 70.7914 11.1077 70.7914 11.1077L70.2988 10.2099Z" fill="white"/>
<path fill-rule="evenodd" clip-rule="evenodd" d="M61.5754 9.82448C61.5749 10.0385 61.4895 10.2436 61.3379 10.3948C61.1864 10.546 60.9811 10.6309 60.767 10.6309C60.7452 10.6328 60.7233 10.6328 60.7015 10.6309C60.4921 10.6164 60.2966 10.5208 60.1566 10.3645C60.0165 10.2081 59.9429 10.0033 59.9515 9.79362C59.96 9.5839 60.05 9.38577 60.2023 9.24133C60.3546 9.09689 60.5572 9.01752 60.767 9.02008H60.8226C61.0266 9.03508 61.2174 9.12643 61.3569 9.2759C61.4964 9.42538 61.5745 9.62199 61.5754 9.82647" fill="white"/>
<path fill-rule="evenodd" clip-rule="evenodd" d="M27.9774 36.2847C28.1775 36.2843 28.3732 36.3433 28.5398 36.4542C28.7063 36.5652 28.8362 36.723 28.913 36.9078C28.9897 37.0926 29.0099 37.2961 28.971 37.4924C28.932 37.6887 28.8357 37.869 28.6942 38.0105C28.5527 38.152 28.3724 38.2483 28.1761 38.2873C27.9798 38.3262 27.7764 38.306 27.5916 38.2293C27.4067 38.1525 27.2489 38.0226 27.1379 37.8561C27.027 37.6895 26.968 37.4938 26.9684 37.2936C26.9689 37.0262 27.0754 36.7699 27.2645 36.5808C27.4536 36.3917 27.7099 36.2852 27.9774 36.2847Z" fill="white"/>
<path fill-rule="evenodd" clip-rule="evenodd" d="M35.199 36.2847C35.3992 36.2843 35.5949 36.3433 35.7614 36.4542C35.928 36.5652 36.0579 36.723 36.1347 36.9078C36.2114 37.0926 36.2316 37.2961 36.1927 37.4924C36.1537 37.6887 36.0574 37.869 35.9159 38.0105C35.7744 38.152 35.5941 38.2483 35.3978 38.2873C35.2015 38.3262 34.998 38.306 34.8132 38.2293C34.6284 38.1525 34.4705 38.0226 34.3596 37.8561C34.2487 37.6895 34.1897 37.4938 34.1901 37.2936C34.1906 37.0262 34.2971 36.7699 34.4862 36.5808C34.6753 36.3917 34.9316 36.2852 35.199 36.2847Z" fill="white"/>
<path fill-rule="evenodd" clip-rule="evenodd" d="M33.1651 42.3482C32.985 42.4964 32.7632 42.585 32.5305 42.6017C32.2978 42.6184 32.0657 42.5624 31.8662 42.4416C31.602 42.3025 31.6676 41.9589 31.6676 41.663C31.6676 41.663 32.2018 41.1942 32.3071 40.9539C32.4481 40.6381 30.5752 40.6361 30.748 40.9539C30.9445 41.2319 31.1823 41.4784 31.4531 41.6848C31.4153 42.0344 31.5027 42.2529 31.2306 42.4118C30.5513 42.7514 30.1422 42.5865 29.888 42.3502C29.4709 41.9649 29.4252 41.228 29.3378 41.228C29.2881 41.228 29.2663 41.3591 29.2663 41.3591C29.2402 41.6307 29.293 41.9042 29.4184 42.1466C29.5438 42.3889 29.7365 42.59 29.9734 42.7256C30.4778 42.9957 31.2048 42.9242 31.5186 42.4495C31.8304 42.9222 32.5653 42.9957 33.0698 42.7315C33.3088 42.5962 33.5035 42.3946 33.6303 42.1511C33.7572 41.9075 33.8109 41.6325 33.7848 41.3591C33.7848 41.3591 33.763 41.228 33.7133 41.228C33.6259 41.228 33.5803 41.9649 33.1632 42.3502" fill="white"/>
<path fill-rule="evenodd" clip-rule="evenodd" d="M21.6275 39.4305L27.6774 40.4692C27.6952 40.4722 27.7123 40.4787 27.7277 40.4883C27.7431 40.4979 27.7564 40.5105 27.7669 40.5252C27.7774 40.54 27.7849 40.5567 27.789 40.5743C27.793 40.592 27.7936 40.6102 27.7906 40.6281C27.7876 40.646 27.7811 40.6631 27.7715 40.6784C27.7619 40.6938 27.7493 40.7071 27.7346 40.7176C27.7198 40.7281 27.7031 40.7357 27.6855 40.7397C27.6678 40.7438 27.6495 40.7443 27.6317 40.7413L21.5758 39.7026C21.5579 39.6997 21.5407 39.6933 21.5253 39.6837C21.5099 39.6741 21.4965 39.6616 21.486 39.6468C21.4755 39.632 21.468 39.6153 21.464 39.5976C21.46 39.5799 21.4595 39.5615 21.4626 39.5437C21.4689 39.5077 21.4891 39.4757 21.5189 39.4545C21.5486 39.4333 21.5855 39.4247 21.6215 39.4305" fill="white"/>
<path fill-rule="evenodd" clip-rule="evenodd" d="M21.1786 40.9124L27.3139 41.0911C27.3319 41.0916 27.3496 41.0957 27.366 41.1031C27.3825 41.1104 27.3973 41.121 27.4096 41.1341C27.422 41.1472 27.4317 41.1626 27.4381 41.1794C27.4445 41.1962 27.4475 41.2141 27.447 41.2321C27.4467 41.2503 27.4428 41.2682 27.4356 41.2849C27.4283 41.3016 27.4178 41.3166 27.4047 41.3292C27.3916 41.3418 27.3761 41.3516 27.3591 41.3581C27.3422 41.3646 27.3241 41.3677 27.3059 41.3672L21.1706 41.1885C21.1511 41.1908 21.1313 41.189 21.1126 41.1831C21.0938 41.1772 21.0765 41.1675 21.0618 41.1544C21.0471 41.1414 21.0353 41.1254 21.0272 41.1074C21.0192 41.0895 21.015 41.0701 21.015 41.0504C21.015 41.0308 21.0192 41.0113 21.0272 40.9934C21.0353 40.9755 21.0471 40.9594 21.0618 40.9464C21.0765 40.9334 21.0938 40.9236 21.1126 40.9177C21.1313 40.9118 21.1511 40.91 21.1706 40.9124" fill="white"/>
<path fill-rule="evenodd" clip-rule="evenodd" d="M21.5759 42.5328L27.6556 41.6966C27.69 41.6954 27.7237 41.7069 27.7501 41.7291C27.7765 41.7513 27.7937 41.7825 27.7984 41.8166C27.8031 41.8508 27.795 41.8854 27.7756 41.9139C27.7561 41.9424 27.7268 41.9626 27.6933 41.9707L21.6116 42.8069C21.5774 42.8076 21.5441 42.7956 21.5181 42.7733C21.4921 42.751 21.4753 42.7199 21.4709 42.6859C21.4665 42.6519 21.4747 42.6175 21.4941 42.5893C21.5135 42.561 21.5426 42.5409 21.5759 42.5328Z" fill="white"/>
<path fill-rule="evenodd" clip-rule="evenodd" d="M41.6978 43.0531L35.6479 42.0163C35.612 42.01 35.5799 41.9898 35.5588 41.9601C35.5376 41.9304 35.5289 41.8935 35.5347 41.8574C35.5376 41.8395 35.544 41.8224 35.5536 41.8069C35.5632 41.7915 35.5757 41.7782 35.5905 41.7676C35.6053 41.7571 35.622 41.7496 35.6397 41.7456C35.6574 41.7416 35.6757 41.7411 35.6936 41.7442L41.7435 42.781C41.7796 42.7878 41.8116 42.8084 41.8328 42.8385C41.8539 42.8685 41.8625 42.9056 41.8567 42.9419C41.8499 42.9775 41.8295 43.009 41.7999 43.0298C41.7702 43.0506 41.7336 43.0589 41.6978 43.0531Z" fill="white"/>
<path fill-rule="evenodd" clip-rule="evenodd" d="M42.1546 41.5738L36.0193 41.395C36.0011 41.3945 35.9833 41.3904 35.9667 41.3829C35.9501 41.3754 35.9352 41.3647 35.9228 41.3514C35.9104 41.3381 35.9008 41.3225 35.8946 41.3054C35.8883 41.2883 35.8854 41.2702 35.8862 41.252C35.8868 41.234 35.8908 41.2163 35.8982 41.1999C35.9055 41.1834 35.9161 41.1686 35.9292 41.1563C35.9423 41.1439 35.9577 41.1342 35.9745 41.1278C35.9913 41.1214 36.0093 41.1184 36.0273 41.119L42.1626 41.2977C42.1991 41.2987 42.2337 41.3141 42.259 41.3405C42.2843 41.3669 42.2982 41.4022 42.2976 41.4387C42.2956 41.4753 42.2796 41.5096 42.253 41.5348C42.2264 41.5599 42.1912 41.5738 42.1546 41.5738Z" fill="white"/>
<path fill-rule="evenodd" clip-rule="evenodd" d="M41.7535 39.9529L35.6777 40.7891C35.6414 40.7936 35.6048 40.7836 35.5758 40.7613C35.5468 40.739 35.5278 40.7062 35.5228 40.6699C35.5203 40.6521 35.5213 40.6339 35.5259 40.6164C35.5304 40.5989 35.5383 40.5825 35.5492 40.5681C35.5601 40.5537 35.5737 40.5416 35.5893 40.5325C35.6049 40.5234 35.6221 40.5174 35.64 40.515L41.7217 39.6788C41.7577 39.6743 41.7941 39.684 41.823 39.7059C41.852 39.7278 41.8712 39.7601 41.8766 39.796C41.8812 39.8325 41.8712 39.8694 41.849 39.8987C41.8267 39.928 41.7938 39.9475 41.7574 39.9529" fill="white"/>
<path d="M6.17502 77.1998C2.68531 77.1998 0 75.2911 0 72.2046H3.06269C3.18782 73.6346 4.19083 74.7866 6.17502 74.7866C8.15921 74.7866 9.3112 73.7081 9.3112 72.2264C9.3112 68.0098 0.0496544 70.7467 0.0496544 64.3194C0.0496544 61.2587 2.48471 59.354 6.04791 59.354C9.38667 59.354 11.7463 61.1118 12.0064 64.099H8.83452C8.73521 62.9192 7.70637 61.8387 5.89895 61.789C4.24248 61.7394 2.96139 62.5418 2.96139 64.2241C2.96139 68.1647 12.1991 65.7038 12.1991 72.0794C12.1991 74.6913 10.0659 77.2018 6.17502 77.2018" fill="white"/>
<path d="M21.1587 62.9668C23.4944 62.9668 25.0992 64.0711 25.9533 65.2012V63.1932H28.8392V77.023H25.9454V74.9653C25.0675 76.1451 23.411 77.2494 21.1011 77.2494C17.52 77.2494 14.6241 74.3118 14.6241 70.0495C14.6241 65.7872 17.512 62.9708 21.1507 62.9708M21.7466 65.4555C19.6114 65.4555 17.5538 67.0623 17.5538 70.0495C17.5538 73.0367 19.6114 74.7687 21.7466 74.7687C23.8817 74.7687 25.9374 73.0864 25.9374 70.0992C25.9374 67.1119 23.9036 65.4555 21.7466 65.4555Z" fill="white"/>
<path d="M35.4672 58.4482H32.6051V77.023H35.4672V58.4482Z" fill="white"/>
<path d="M45.1815 77.2491C41.2092 77.2491 38.2776 74.4367 38.2776 70.0989C38.2776 65.761 41.09 62.9705 45.1815 62.9705C49.1221 62.9705 51.9087 65.7054 51.9087 69.7731C51.9125 70.2431 51.8787 70.7127 51.8074 71.1773H41.239C41.4376 73.4614 43.0722 74.8438 45.1815 74.8438C46.9373 74.8438 47.9165 73.9898 48.4428 72.9093H51.5313C50.7528 75.3205 48.57 77.2531 45.1756 77.2531M41.2648 68.8575H48.9215C48.8699 66.7243 47.1896 65.3678 45.0544 65.3678C43.1219 65.3678 41.5667 66.6727 41.2648 68.8575Z" fill="white"/>
<path d="M61.6967 77.0227H54.7192V59.5781H61.3709C65.0613 59.5781 67.0176 61.61 67.0176 64.0709C67.0176 66.1802 65.7385 67.4593 64.0563 68.0611C65.9133 68.3888 67.4208 70.2459 67.4208 72.3294C67.4208 74.9889 65.2619 77.0227 61.6967 77.0227ZM61.1207 61.9059H57.5813V66.9012H61.1207C62.9778 66.9012 64.0999 66.0233 64.0999 64.4164C64.0999 62.8096 62.9778 61.9059 61.1207 61.9059ZM61.3451 69.2349H57.5714V74.683H61.4365C63.369 74.683 64.5488 73.7038 64.5488 72.0215C64.5488 70.2896 63.2439 69.2409 61.3352 69.2409" fill="white"/>
<path d="M76.1043 62.9668C78.4381 62.9668 80.0449 64.0711 80.899 65.2012V63.1932H83.7849V77.023H80.899V74.9653C80.0211 76.1451 78.3646 77.2494 76.0547 77.2494C72.4657 77.2494 69.5778 74.3118 69.5778 70.0455C69.5778 65.7792 72.4657 62.9668 76.1043 62.9668ZM76.7002 65.4515C74.567 65.4515 72.5094 67.0583 72.5094 70.0455C72.5094 73.0327 74.567 74.7647 76.7002 74.7647C78.8333 74.7647 80.893 73.0824 80.893 70.0952C80.893 67.108 78.8592 65.4515 76.7002 65.4515Z" fill="white"/>
<path d="M97.0386 63.1926H100L91.517 83.5231H88.5536L91.366 76.796L85.918 63.1926H89.1058L92.9967 73.7333L97.0386 63.1926Z" fill="white"/>
</svg>
