<svg width="23" height="20" viewBox="0 0 23 20" fill="none" xmlns="http://www.w3.org/2000/svg">
<path d="M15.9866 13.5186L16.501 13.0656L15.3063 12.0016L14.7942 12.4546L15.9866 13.5186ZM18.2259 12.8756L20.3817 13.9146L21.1883 12.5966L19.0336 11.5586L18.2259 12.8756ZM20.7957 15.9786L19.1938 17.3916L20.3862 18.4546L21.9881 17.0426L20.7957 15.9786ZM18.2168 17.8456C16.5811 17.9816 12.3507 17.8606 7.76839 13.8226L6.57486 14.8856C11.5746 19.2926 16.334 19.5086 18.3748 19.3396L18.2168 17.8456ZM7.76839 13.8226C3.40151 9.97264 2.67728 6.73565 2.58703 5.33065L0.897135 5.41565C1.00994 7.18365 1.90678 10.7716 6.57486 14.8856L7.76839 13.8226ZM9.31952 7.64265L9.64329 7.35665L8.45201 6.29365L8.12825 6.57865L9.31952 7.64265ZM9.90049 3.72165L8.47909 2.03765L7.12424 2.93765L8.54565 4.62065L9.90049 3.72165ZM3.69482 1.67065L1.9237 3.23065L3.11723 4.29465L4.88722 2.73465L3.69482 1.67065ZM8.72389 7.11065C8.12599 6.57865 8.12599 6.57865 8.12599 6.58065H8.12374L8.12035 6.58465C8.06709 6.63283 8.01912 6.6854 7.97709 6.74165C7.91617 6.82165 7.84961 6.92665 7.79321 7.05965C7.65584 7.40296 7.62162 7.77206 7.69393 8.13065C7.8451 8.99565 8.51745 10.1386 10.2389 11.6566L11.4325 10.5926C9.8204 9.17265 9.43685 8.30865 9.36578 7.90065C9.33193 7.70665 9.3669 7.61065 9.37706 7.58865C9.3827 7.57465 9.38495 7.57365 9.37706 7.58265C9.36711 7.59651 9.35578 7.60956 9.34321 7.62165L9.33193 7.63165C9.32829 7.63475 9.32452 7.63776 9.32065 7.64065L8.72389 7.11065ZM10.2389 11.6566C11.9615 13.1746 13.2577 13.7666 14.2347 13.8986C14.7344 13.9666 15.1371 13.9126 15.4428 13.8116C15.6138 13.7556 15.7737 13.6759 15.9166 13.5756C15.9361 13.5613 15.9549 13.5462 15.9731 13.5306L15.9809 13.5246L15.9843 13.5216L15.9855 13.5196C15.9855 13.5196 15.9866 13.5186 15.3898 12.9866C14.7919 12.4546 14.7953 12.4536 14.7953 12.4536L14.7976 12.4516L14.7998 12.4496L14.8066 12.4446L14.8179 12.4346C14.8314 12.4239 14.8458 12.4138 14.8607 12.4046C14.872 12.3976 14.8686 12.4006 14.8528 12.4066C14.8246 12.4156 14.7141 12.4466 14.4919 12.4166C14.0248 12.3526 13.0434 12.0126 11.4325 10.5926L10.2389 11.6566ZM8.47909 2.03665C7.32843 0.676645 5.06772 0.460645 3.69482 1.67065L4.88722 2.73465C5.48737 2.20565 6.5523 2.26065 7.12424 2.93765L8.47909 2.03665ZM2.58816 5.33165C2.56559 4.98565 2.74496 4.62365 3.11723 4.29565L1.92258 3.23165C1.31679 3.76565 0.839602 4.52165 0.897135 5.41565L2.58816 5.33165ZM19.1938 17.3916C18.8847 17.6656 18.5508 17.8196 18.218 17.8466L18.3748 19.3396C19.2039 19.2706 19.8819 18.9006 20.3873 18.4556L19.1938 17.3916ZM9.64329 7.35665C10.7545 6.37765 10.8368 4.83065 9.90162 3.72265L8.54678 4.62165C9.0014 5.16065 8.93371 5.86765 8.45089 6.29465L9.64329 7.35665ZM20.3828 13.9156C21.3044 14.3596 21.4477 15.4056 20.7968 15.9796L21.9903 17.0426C23.502 15.7096 23.0361 13.4866 21.1894 12.5976L20.3828 13.9156ZM16.501 13.0666C16.9342 12.6846 17.6314 12.5906 18.227 12.8766L19.0347 11.5596C17.8119 10.9696 16.2957 11.1326 15.3075 12.0026L16.501 13.0666Z" fill="white"/>
</svg>
