<svg width="201" height="60" viewBox="0 0 201 60" fill="none" xmlns="http://www.w3.org/2000/svg">
<path d="M192.775 59.8291H7.59002C3.44188 59.8291 0.182617 56.5698 0.182617 52.4217V7.97723C0.182617 3.82908 3.44188 0.569824 7.59002 0.569824H192.775C196.923 0.569824 200.183 3.82908 200.183 7.97723V52.4217C200.183 56.5698 196.923 59.8291 192.775 59.8291Z" fill="black"/>
<path d="M192.775 1.75501C196.183 1.75501 198.997 4.56982 198.997 7.97723V52.4217C198.997 55.8291 196.183 58.6439 192.775 58.6439H7.59002C4.18262 58.6439 1.3678 55.8291 1.3678 52.4217V7.97723C1.3678 4.56982 4.18262 1.75501 7.59002 1.75501H192.775ZM192.775 0.569824H7.59002C3.44188 0.569824 0.182617 3.97723 0.182617 7.97723V52.4217C0.182617 56.5698 3.44188 59.8291 7.59002 59.8291H192.775C196.923 59.8291 200.183 56.5698 200.183 52.4217V7.97723C200.183 3.97723 196.923 0.569824 192.775 0.569824Z" fill="#A6A6A6"/>
<path d="M70.4048 15.6809C70.4048 16.8661 70.1085 17.9031 69.3677 18.6438C68.4788 19.5327 67.4418 19.9772 66.1085 19.9772C64.7751 19.9772 63.7381 19.5327 62.8492 18.6438C61.9603 17.755 61.5159 16.7179 61.5159 15.3846C61.5159 14.0513 61.9603 13.0142 62.8492 12.1253C63.7381 11.2364 64.7751 10.792 66.1085 10.792C66.7011 10.792 67.2936 10.9401 67.8862 11.2364C68.4788 11.5327 68.9233 11.829 69.2196 12.2735L68.4788 13.0142C67.8862 12.2735 67.1455 11.9772 66.1085 11.9772C65.2196 11.9772 64.3307 12.2735 63.7381 13.0142C62.9974 13.6068 62.7011 14.4957 62.7011 15.5327C62.7011 16.5698 62.9974 17.4587 63.7381 18.0513C64.4788 18.6438 65.2196 19.0883 66.1085 19.0883C67.1455 19.0883 67.8862 18.792 68.627 18.0513C69.0714 17.6068 69.3677 17.0142 69.3677 16.2735H66.1085V15.0883H70.4048V15.6809ZM77.2196 11.9772H73.2196V14.792H76.9233V15.829H73.2196V18.6438H77.2196V19.829H72.0344V10.9401H77.2196V11.9772ZM82.1085 19.829H80.9233V11.9772H78.4048V10.9401H84.627V11.9772H82.1085V19.829ZM88.9233 19.829V10.9401H90.1085V19.829H88.9233ZM95.1455 19.829H93.9603V11.9772H91.4418V10.9401H97.5159V11.9772H94.9973V19.829H95.1455ZM109.22 18.6438C108.331 19.5327 107.294 19.9772 105.96 19.9772C104.627 19.9772 103.59 19.5327 102.701 18.6438C101.812 17.755 101.368 16.7179 101.368 15.3846C101.368 14.0513 101.812 13.0142 102.701 12.1253C103.59 11.2364 104.627 10.792 105.96 10.792C107.294 10.792 108.331 11.2364 109.22 12.1253C110.108 13.0142 110.553 14.0513 110.553 15.3846C110.553 16.7179 110.108 17.755 109.22 18.6438ZM103.59 17.9031C104.183 18.4957 105.071 18.9401 105.96 18.9401C106.849 18.9401 107.738 18.6438 108.331 17.9031C108.923 17.3105 109.368 16.4216 109.368 15.3846C109.368 14.3475 109.071 13.4587 108.331 12.8661C107.738 12.2735 106.849 11.829 105.96 11.829C105.071 11.829 104.183 12.1253 103.59 12.8661C102.997 13.4587 102.553 14.3475 102.553 15.3846C102.553 16.4216 102.849 17.3105 103.59 17.9031ZM112.183 19.829V10.9401H113.516L117.812 17.9031V10.9401H118.997V19.829H117.812L113.22 12.5698V19.829H112.183Z" fill="white" stroke="white" stroke-width="1.18519" stroke-miterlimit="10"/>
<path d="M101.072 32.8662C97.516 32.8662 94.7012 35.5328 94.7012 39.2365C94.7012 42.7921 97.516 45.6069 101.072 45.6069C104.627 45.6069 107.442 42.9402 107.442 39.2365C107.442 35.3847 104.627 32.8662 101.072 32.8662ZM101.072 42.9402C99.1456 42.9402 97.516 41.3106 97.516 39.0884C97.516 36.8662 99.1456 35.2365 101.072 35.2365C102.997 35.2365 104.627 36.718 104.627 39.0884C104.627 41.3106 102.997 42.9402 101.072 42.9402ZM87.2938 32.8662C83.7382 32.8662 80.9234 35.5328 80.9234 39.2365C80.9234 42.7921 83.7382 45.6069 87.2938 45.6069C90.8493 45.6069 93.6641 42.9402 93.6641 39.2365C93.6641 35.3847 90.8493 32.8662 87.2938 32.8662ZM87.2938 42.9402C85.3678 42.9402 83.7382 41.3106 83.7382 39.0884C83.7382 36.8662 85.3678 35.2365 87.2938 35.2365C89.2197 35.2365 90.8493 36.718 90.8493 39.0884C90.8493 41.3106 89.2197 42.9402 87.2938 42.9402ZM70.8493 34.7921V37.4588H77.2197C77.0715 38.9402 76.4789 40.1254 75.7382 40.8662C74.8493 41.755 73.3678 42.7921 70.8493 42.7921C66.8493 42.7921 63.8864 39.681 63.8864 35.681C63.8864 31.681 66.9975 28.5699 70.8493 28.5699C72.9234 28.5699 74.553 29.4588 75.7382 30.4958L77.6641 28.5699C76.0345 27.0884 73.9604 25.9032 70.9975 25.9032C65.6641 25.9032 61.0715 30.3476 61.0715 35.681C61.0715 41.0143 65.6641 45.4588 70.9975 45.4588C73.9604 45.4588 76.0345 44.5699 77.8123 42.6439C79.5901 40.8662 80.1826 38.3476 80.1826 36.4217C80.1826 35.8291 80.1826 35.2365 80.0345 34.7921H70.8493ZM138.109 36.8662C137.516 35.3847 136.034 32.8662 132.775 32.8662C129.516 32.8662 126.849 35.3847 126.849 39.2365C126.849 42.7921 129.516 45.6069 133.072 45.6069C135.886 45.6069 137.664 43.8291 138.257 42.7921L136.183 41.3106C135.442 42.3476 134.553 43.0884 133.072 43.0884C131.59 43.0884 130.701 42.4958 129.96 41.1625L138.405 37.6069L138.109 36.8662ZM129.516 38.9402C129.516 36.5699 131.442 35.2365 132.775 35.2365C133.812 35.2365 134.849 35.8291 135.146 36.5699L129.516 38.9402ZM122.553 45.0143H125.368V26.4958H122.553V45.0143ZM118.109 34.1995C117.368 33.4588 116.183 32.718 114.701 32.718C111.59 32.718 108.627 35.5328 108.627 39.0884C108.627 42.6439 111.442 45.3106 114.701 45.3106C116.183 45.3106 117.368 44.5699 117.96 43.8291H118.109V44.718C118.109 47.0884 116.775 48.4217 114.701 48.4217C113.072 48.4217 111.886 47.2365 111.59 46.1995L109.22 47.2365C109.96 48.8662 111.738 50.9402 114.849 50.9402C118.109 50.9402 120.775 49.0143 120.775 44.4217V33.1625H118.109V34.1995ZM114.849 42.9402C112.923 42.9402 111.294 41.3106 111.294 39.0884C111.294 36.8662 112.923 35.2365 114.849 35.2365C116.775 35.2365 118.257 36.8662 118.257 39.0884C118.257 41.3106 116.775 42.9402 114.849 42.9402ZM150.997 26.4958H144.331V45.0143H147.146V38.0513H150.997C154.109 38.0513 157.072 35.8291 157.072 32.2736C157.072 28.718 154.109 26.4958 150.997 26.4958ZM151.146 35.3847H147.146V29.0143H151.146C153.22 29.0143 154.405 30.7921 154.405 32.1254C154.257 33.755 153.072 35.3847 151.146 35.3847ZM168.183 32.718C166.109 32.718 164.034 33.6069 163.294 35.5328L165.812 36.5699C166.405 35.5328 167.294 35.2365 168.331 35.2365C169.812 35.2365 171.146 36.1254 171.294 37.6069V37.755C170.849 37.4588 169.664 37.0143 168.479 37.0143C165.812 37.0143 163.146 38.4958 163.146 41.1625C163.146 43.681 165.368 45.3106 167.738 45.3106C169.664 45.3106 170.553 44.4217 171.294 43.5328H171.442V45.0143H174.109V37.9032C173.812 34.6439 171.294 32.718 168.183 32.718ZM167.886 42.9402C166.997 42.9402 165.664 42.4958 165.664 41.3106C165.664 39.8291 167.294 39.3847 168.627 39.3847C169.812 39.3847 170.405 39.681 171.146 39.9773C170.849 41.755 169.368 42.9402 167.886 42.9402ZM183.442 33.1625L180.331 41.1625H180.183L176.923 33.1625H173.96L178.849 44.4217L176.034 50.6439H178.849L186.405 33.1625H183.442ZM158.553 45.0143H161.368V26.4958H158.553V45.0143Z" fill="white"/>
<path d="M15.5902 11.681C15.1457 12.1255 14.9976 12.8662 14.9976 13.7551V46.4958C14.9976 47.3847 15.2939 48.1255 15.7383 48.5699L15.8864 48.7181L34.2568 30.3477V30.0514L15.5902 11.681Z" fill="url(#paint0_linear_462_3511)"/>
<path d="M40.1827 36.5699L34.1086 30.4958V30.0514L40.1827 23.9773L40.3309 24.1254L47.5901 28.2736C49.6642 29.4588 49.6642 31.3847 47.5901 32.5699L40.1827 36.5699Z" fill="url(#paint1_linear_462_3511)"/>
<path d="M40.3308 36.4217L34.1086 30.1995L15.5901 48.718C16.3308 49.4587 17.3679 49.4587 18.7012 48.8661L40.3308 36.4217Z" fill="url(#paint2_linear_462_3511)"/>
<path d="M40.3308 23.9774L18.7012 11.6811C17.3679 10.9404 16.3308 11.0885 15.5901 11.8292L34.1086 30.1996L40.3308 23.9774Z" fill="url(#paint3_linear_462_3511)"/>
<path opacity="0.2" d="M40.1827 36.2737L18.7012 48.4218C17.516 49.1626 16.479 49.0144 15.7382 48.4218L15.5901 48.57L15.7382 48.7181C16.479 49.3107 17.516 49.4589 18.7012 48.7181L40.1827 36.2737Z" fill="black"/>
<path opacity="0.12" d="M15.5902 48.4217C15.1457 47.9772 14.9976 47.2365 14.9976 46.3476V46.4958C14.9976 47.3846 15.2939 48.1254 15.7383 48.5698V48.4217H15.5902ZM47.5901 32.1254L40.1827 36.2735L40.3309 36.4217L47.5901 32.2735C48.6272 31.6809 49.0716 30.9402 49.0716 30.1995C49.0716 30.9402 48.479 31.5328 47.5901 32.1254Z" fill="black"/>
<path opacity="0.25" d="M18.7013 11.829L47.5901 28.2735C48.479 28.8661 49.0716 29.4587 49.0716 30.1994C49.0716 29.4587 48.6272 28.7179 47.5901 28.1253L18.7013 11.6809C16.6272 10.4957 14.9976 11.3846 14.9976 13.755V13.9031C14.9976 11.6809 16.6272 10.6438 18.7013 11.829Z" fill="white"/>
<defs>
<linearGradient id="paint0_linear_462_3511" x1="32.479" y1="13.4736" x2="7.61534" y2="38.3358" gradientUnits="userSpaceOnUse">
<stop stop-color="#00A0FF"/>
<stop offset="0.007" stop-color="#00A1FF"/>
<stop offset="0.26" stop-color="#00BEFF"/>
<stop offset="0.512" stop-color="#00D2FF"/>
<stop offset="0.76" stop-color="#00DFFF"/>
<stop offset="1" stop-color="#00E3FF"/>
</linearGradient>
<linearGradient id="paint1_linear_462_3511" x1="50.3072" y1="30.201" x2="14.4598" y2="30.201" gradientUnits="userSpaceOnUse">
<stop stop-color="#FFE000"/>
<stop offset="0.409" stop-color="#FFBD00"/>
<stop offset="0.775" stop-color="#FFA500"/>
<stop offset="1" stop-color="#FF9C00"/>
</linearGradient>
<linearGradient id="paint2_linear_462_3511" x1="36.9634" y1="33.6009" x2="3.24787" y2="67.3165" gradientUnits="userSpaceOnUse">
<stop stop-color="#FF3A44"/>
<stop offset="1" stop-color="#C31162"/>
</linearGradient>
<linearGradient id="paint3_linear_462_3511" x1="10.9931" y1="0.830722" x2="26.0493" y2="15.887" gradientUnits="userSpaceOnUse">
<stop stop-color="#32A071"/>
<stop offset="0.069" stop-color="#2DA771"/>
<stop offset="0.476" stop-color="#15CF74"/>
<stop offset="0.801" stop-color="#06E775"/>
<stop offset="1" stop-color="#00F076"/>
</linearGradient>
</defs>
</svg>
